{"glyphs":{"0":{"ha":819,"x_min":56,"x_max":764,"o":"m 56 521 q 86 770 56 668 q 169 936 117 873 q 283 1027 220 999 q 410 1056 346 1056 q 543 1027 479 1056 q 656 936 606 999 q 735 770 706 873 q 764 521 764 668 q 731 271 764 374 q 646 106 699 169 q 531 15 593 43 q 410 -14 469 -14 q 283 15 346 -14 q 169 106 220 43 q 86 271 117 169 q 56 521 56 374 m 208 521 q 234 250 208 353 q 306 102 260 148 q 410 56 351 56 q 520 102 475 56 q 588 250 565 148 q 611 521 611 353 q 588 791 611 689 q 520 940 565 894 q 410 986 475 986 q 306 940 351 986 q 234 791 260 894 q 208 521 208 689 "},"1":{"ha":729,"x_min":69,"x_max":660,"o":"m 69 26 l 69 56 q 76 74 69 71 q 97 76 82 76 l 276 76 q 300 82 295 76 q 306 106 306 88 l 306 815 q 301 840 306 833 q 279 847 297 847 l 124 847 q 101 851 108 847 q 93 871 93 854 l 93 892 q 98 917 93 910 q 122 924 103 924 q 232 932 190 924 q 303 971 274 940 q 363 1068 333 1001 q 371 1088 368 1079 q 392 1097 374 1097 l 411 1097 q 431 1095 424 1097 q 438 1079 438 1092 l 438 113 q 444 82 438 88 q 475 76 450 76 l 629 76 q 651 74 643 76 q 660 56 660 71 l 660 28 q 656 6 660 11 q 636 0 652 0 l 93 0 q 74 5 78 0 q 69 26 69 10 "},"2":{"ha":792,"x_min":56,"x_max":749,"o":"m 743 226 q 724 82 749 135 q 655 8 700 30 q 549 -14 609 -14 q 447 -1 493 -14 q 361 28 401 11 q 284 57 321 44 q 208 69 247 69 q 160 56 178 69 q 132 21 142 43 q 124 6 128 12 q 105 0 119 0 l 72 0 q 58 5 60 0 q 56 20 56 10 q 136 274 60 165 q 357 485 212 383 q 435 544 396 512 q 507 616 474 576 q 559 705 540 656 q 579 813 579 753 q 528 951 579 906 q 385 997 478 997 q 285 981 330 997 q 214 941 240 964 q 188 899 188 917 q 197 878 188 887 q 220 859 207 869 q 243 835 233 849 q 253 796 253 820 q 226 736 253 758 q 170 715 199 715 q 128 724 150 715 q 92 753 107 733 q 78 807 78 774 q 117 928 78 871 q 230 1020 157 985 q 406 1056 303 1056 q 643 991 553 1056 q 733 792 733 927 q 708 676 733 729 q 636 576 683 623 q 528 487 590 530 q 392 403 465 444 q 232 279 292 347 q 144 142 172 212 q 133 117 139 128 q 126 100 128 106 q 129 93 124 93 q 142 106 139 93 q 160 133 146 118 q 217 172 184 157 q 292 187 250 187 q 384 172 344 187 q 464 141 424 156 q 557 126 504 126 q 646 152 618 126 q 677 227 674 179 q 681 242 678 239 q 697 246 683 246 l 725 246 q 740 242 737 246 q 743 226 742 238 "},"3":{"ha":736,"x_min":35,"x_max":681,"o":"m 35 207 q 64 278 35 257 q 124 299 94 299 q 177 278 152 299 q 203 218 203 257 q 196 188 203 199 q 181 167 190 176 q 165 150 172 158 q 158 129 158 141 q 178 91 158 110 q 237 58 198 71 q 335 44 276 44 q 456 78 410 44 q 520 162 501 111 q 540 264 540 213 q 525 360 540 310 q 464 449 510 410 q 329 498 419 487 q 299 499 313 500 q 276 503 285 498 q 267 529 267 509 l 267 542 q 276 568 267 563 q 299 572 285 573 q 329 574 314 572 q 432 611 394 583 q 486 677 469 640 q 508 752 503 714 q 513 821 513 791 q 470 948 513 898 q 335 997 428 997 q 234 970 268 997 q 200 914 200 942 q 207 893 200 902 q 222 876 213 885 q 238 856 231 867 q 244 825 244 844 q 219 766 244 787 q 165 744 194 744 q 125 753 145 744 q 90 783 104 763 q 76 836 76 803 q 107 943 76 893 q 201 1024 138 993 q 363 1056 264 1056 q 499 1032 433 1056 q 609 956 566 1008 q 653 821 653 904 q 642 725 653 774 q 600 635 631 677 q 508 565 569 594 q 459 547 469 547 q 449 535 449 547 q 466 525 449 526 q 504 516 483 524 q 644 412 608 480 q 681 264 681 344 q 658 157 681 207 q 593 68 636 106 q 489 8 551 29 q 349 -14 427 -14 q 173 18 243 -14 q 69 100 103 49 q 35 207 35 150 "},"4":{"ha":750,"x_min":44,"x_max":736,"o":"m 715 58 l 715 18 q 711 3 715 6 q 694 0 706 0 l 369 0 q 352 4 356 0 q 347 22 347 8 l 347 53 q 351 72 347 67 q 368 76 355 76 l 460 76 q 475 80 471 76 q 479 94 479 83 l 479 293 q 476 314 479 309 q 456 319 472 319 l 107 319 q 85 322 92 319 q 72 331 79 324 l 53 349 q 45 365 44 359 q 51 385 46 372 q 128 512 81 454 q 233 623 176 569 q 343 734 289 677 q 441 856 398 790 q 506 1005 484 922 q 511 1031 510 1021 q 534 1042 513 1042 l 610 1042 q 637 1037 631 1042 q 640 1013 643 1033 q 588 859 629 927 q 488 735 546 791 q 367 630 429 679 q 250 531 304 580 q 163 429 195 483 q 156 411 156 419 q 166 400 156 403 q 194 396 175 396 l 467 396 q 478 399 478 396 q 479 413 479 403 l 479 500 q 483 521 479 517 q 497 531 488 524 q 538 577 521 550 q 569 651 554 605 q 574 667 573 660 q 589 674 576 674 l 593 674 q 609 669 607 674 q 611 652 611 665 l 611 426 q 616 401 611 407 q 640 396 621 396 l 715 396 q 732 391 728 396 q 736 372 736 386 l 736 340 q 731 323 736 326 q 711 319 726 319 l 635 319 q 615 314 619 319 q 611 292 611 308 l 611 101 q 616 81 611 85 q 638 76 621 76 l 691 76 q 710 74 704 76 q 715 58 715 72 "},"5":{"ha":715,"x_min":42,"x_max":674,"o":"m 42 193 q 71 264 42 243 q 131 285 101 285 q 184 264 159 285 q 210 204 210 243 q 199 166 210 179 q 176 142 188 152 q 165 115 165 131 q 205 66 165 88 q 300 44 244 44 q 422 83 369 44 q 504 184 474 122 q 533 319 533 247 q 508 482 533 413 q 436 589 482 551 q 328 626 390 626 q 232 612 269 626 q 163 558 195 597 q 147 543 154 548 q 120 538 140 538 l 91 538 q 69 545 72 538 q 69 568 67 553 l 127 1015 q 135 1036 129 1031 q 158 1042 141 1042 l 329 1042 q 447 1038 406 1042 q 511 1039 488 1035 q 554 1067 533 1044 q 564 1079 560 1072 q 581 1086 568 1086 l 621 1086 q 631 1076 633 1086 l 622 1042 q 598 974 613 999 q 547 936 583 949 q 439 920 510 924 q 243 917 367 917 l 213 917 q 190 913 197 917 q 181 894 183 909 l 152 671 q 146 633 149 646 q 147 618 142 620 q 160 625 153 615 q 185 649 166 634 q 250 682 211 669 q 344 694 288 694 q 529 648 456 694 q 638 523 602 602 q 674 347 674 444 q 625 161 674 243 q 494 33 576 80 q 314 -14 412 -14 q 168 14 229 -14 q 74 89 107 42 q 42 193 42 136 "},"6":{"ha":764,"x_min":69,"x_max":722,"o":"m 518 960 q 501 985 518 974 q 443 997 484 997 q 314 947 363 997 q 240 807 265 897 q 210 597 216 717 q 209 572 210 580 q 211 563 208 565 q 219 567 215 560 q 231 583 222 573 q 318 644 266 622 q 439 667 370 667 q 581 629 516 667 q 684 516 645 592 q 722 326 722 441 q 700 180 722 243 q 635 73 677 116 q 534 8 593 30 q 401 -14 475 -14 q 255 13 317 -14 q 152 101 193 40 q 90 264 110 163 q 69 514 69 365 q 115 802 69 681 q 242 990 160 924 q 436 1056 324 1056 q 542 1038 493 1056 q 622 984 592 1020 q 653 890 653 947 q 624 819 653 840 q 564 799 594 799 q 510 820 536 799 q 485 879 485 841 q 493 918 485 904 q 510 942 501 933 q 518 960 518 951 m 583 326 q 537 522 583 445 q 408 599 491 599 q 306 569 351 599 q 234 492 260 540 q 208 389 208 444 q 260 141 208 234 q 415 49 313 49 q 514 86 477 49 q 567 188 551 124 q 583 326 583 251 "},"7":{"ha":728,"x_min":56,"x_max":714,"o":"m 56 807 q 80 957 57 903 q 147 1033 103 1011 q 250 1056 190 1056 q 338 1043 301 1056 q 407 1014 375 1031 q 472 985 438 997 q 549 972 506 972 q 607 988 588 972 q 636 1030 626 1004 q 641 1039 639 1037 q 653 1042 644 1042 l 701 1042 q 714 1038 713 1042 q 713 1023 714 1034 q 681 925 706 984 q 618 796 655 866 q 542 652 582 726 q 469 511 503 579 q 422 403 438 446 q 400 328 406 360 q 394 267 394 297 q 401 203 394 228 q 417 160 408 178 q 433 123 426 141 q 440 81 440 105 q 431 33 440 55 q 402 -1 422 12 q 351 -14 382 -14 q 285 24 311 -14 q 260 133 260 62 q 273 259 260 195 q 314 390 285 323 q 388 529 342 457 q 488 697 435 604 q 578 871 540 789 q 589 890 584 882 q 590 900 593 897 q 581 897 588 903 q 564 887 575 890 q 535 881 551 883 q 500 879 519 879 q 415 886 448 879 q 358 903 383 894 q 308 919 334 912 q 242 926 281 926 q 151 898 178 926 q 121 810 123 869 q 119 799 121 802 q 110 796 117 796 l 71 796 q 59 798 63 796 q 56 807 56 799 "},"8":{"ha":736,"x_min":49,"x_max":688,"o":"m 188 292 q 207 177 188 233 q 266 85 226 122 q 368 49 306 49 q 470 85 430 49 q 529 177 510 122 q 549 292 549 233 q 529 406 549 350 q 470 498 510 462 q 368 535 430 535 q 266 498 306 535 q 207 406 226 462 q 188 292 188 350 m 83 792 q 119 928 83 868 q 220 1022 156 988 q 368 1056 284 1056 q 516 1022 452 1056 q 617 928 581 988 q 653 792 653 868 q 613 657 653 712 q 506 574 574 602 q 489 568 495 570 q 483 563 483 567 q 488 558 483 560 q 504 551 492 556 q 638 452 589 520 q 688 292 688 385 q 649 139 688 208 q 538 28 610 69 q 368 -14 466 -14 q 198 28 270 -14 q 88 139 126 69 q 49 292 49 208 q 96 448 49 383 q 226 544 144 513 q 247 552 236 549 q 258 561 258 556 q 250 569 258 566 q 225 578 241 572 q 122 660 160 607 q 83 792 83 714 m 222 792 q 239 694 222 740 q 288 619 256 648 q 368 590 320 590 q 448 619 416 590 q 497 694 481 648 q 514 792 514 740 q 497 889 514 843 q 448 964 481 935 q 368 993 416 993 q 288 964 320 993 q 239 889 256 935 q 222 792 222 843 "},"9":{"ha":764,"x_min":42,"x_max":694,"o":"m 246 82 q 263 57 246 69 q 321 44 280 44 q 450 95 401 44 q 524 235 499 145 q 553 444 548 326 q 555 469 554 462 q 553 479 556 477 q 545 475 549 481 q 533 459 542 469 q 446 398 498 421 q 325 375 394 375 q 183 413 248 375 q 80 525 119 450 q 42 715 42 601 q 64 862 42 799 q 129 969 87 926 q 230 1034 171 1012 q 363 1056 289 1056 q 509 1028 447 1056 q 612 940 571 1001 q 674 778 653 879 q 694 528 694 676 q 649 240 694 361 q 522 52 604 118 q 328 -14 440 -14 q 222 4 271 -14 q 142 58 172 22 q 111 151 111 94 q 140 222 111 201 q 200 243 169 243 q 253 222 228 243 q 279 163 279 201 q 271 123 279 138 q 254 100 263 109 q 246 82 246 91 m 181 715 q 227 520 181 597 q 356 443 273 443 q 458 472 413 443 q 530 549 503 501 q 556 653 556 597 q 504 901 556 808 q 349 993 452 993 q 250 955 287 993 q 197 854 213 917 q 181 715 181 791 "}," ":{"ha":417,"x_min":0,"x_max":0,"o":""}," ":{"ha":417,"x_min":0,"x_max":0,"o":""}," ":{"ha":694,"x_min":0,"x_max":0,"o":""}," ":{"ha":1389,"x_min":0,"x_max":0,"o":""}," ":{"ha":694,"x_min":0,"x_max":0,"o":""}," ":{"ha":1389,"x_min":0,"x_max":0,"o":""}," ":{"ha":463,"x_min":0,"x_max":0,"o":""}," ":{"ha":347,"x_min":0,"x_max":0,"o":""}," ":{"ha":231,"x_min":0,"x_max":0,"o":""}," ":{"ha":806,"x_min":0,"x_max":0,"o":""}," ":{"ha":277,"x_min":0,"x_max":0,"o":""}," ":{"ha":231,"x_min":0,"x_max":0,"o":""}," ":{"ha":139,"x_min":0,"x_max":0,"o":""},"A":{"ha":1194,"x_min":0,"x_max":1194,"o":"m 567 876 l 364 401 q 362 385 359 389 q 383 382 365 382 l 735 382 q 768 387 767 382 q 761 414 769 392 l 589 872 q 578 894 581 893 q 567 876 574 894 m 0 29 l 0 58 q 4 73 0 69 q 19 76 8 76 l 107 76 q 136 83 129 76 q 149 104 143 90 l 561 1056 q 566 1061 563 1060 q 576 1063 569 1063 l 631 1063 q 643 1061 640 1063 q 649 1054 647 1060 l 1026 107 q 1038 83 1033 90 q 1065 76 1042 76 l 1175 76 q 1192 73 1189 76 q 1194 55 1194 69 l 1194 24 q 1191 4 1194 8 q 1172 0 1188 0 l 763 0 q 743 3 749 0 q 736 22 736 7 l 736 54 q 742 73 736 69 q 761 76 748 76 l 867 76 q 883 84 883 76 q 878 101 882 92 l 816 268 q 801 299 807 292 q 761 306 794 306 l 358 306 q 327 300 335 306 q 312 278 319 294 l 240 110 q 236 85 233 93 q 262 76 239 76 l 367 76 q 384 73 379 76 q 389 56 389 69 l 389 22 q 386 3 389 6 q 367 0 383 0 l 35 0 q 8 4 15 0 q 0 29 0 8 "},"À":{"ha":1194,"x_min":0,"x_max":1194,"o":"m 617 1159 l 453 1255 q 427 1286 435 1265 q 434 1333 419 1308 q 460 1356 444 1349 q 495 1360 477 1363 q 526 1344 513 1358 l 660 1213 q 661 1188 673 1201 l 638 1163 q 628 1156 632 1157 q 617 1159 624 1154 m 567 876 l 364 401 q 362 385 359 389 q 383 382 365 382 l 735 382 q 768 387 767 382 q 761 414 769 392 l 589 872 q 578 894 581 893 q 567 876 574 894 m 0 29 l 0 58 q 4 73 0 69 q 19 76 8 76 l 107 76 q 136 83 129 76 q 149 104 143 90 l 561 1056 q 566 1061 563 1060 q 576 1063 569 1063 l 631 1063 q 643 1061 640 1063 q 649 1054 647 1060 l 1026 107 q 1038 83 1033 90 q 1065 76 1042 76 l 1175 76 q 1192 73 1189 76 q 1194 55 1194 69 l 1194 24 q 1191 4 1194 8 q 1172 0 1188 0 l 763 0 q 743 3 749 0 q 736 22 736 7 l 736 54 q 742 73 736 69 q 761 76 748 76 l 867 76 q 883 84 883 76 q 878 101 882 92 l 816 268 q 801 299 807 292 q 761 306 794 306 l 358 306 q 327 300 335 306 q 312 278 319 294 l 240 110 q 236 85 233 93 q 262 76 239 76 l 367 76 q 384 73 379 76 q 389 56 389 69 l 389 22 q 386 3 389 6 q 367 0 383 0 l 35 0 q 8 4 15 0 q 0 29 0 8 "},"Á":{"ha":1194,"x_min":0,"x_max":1194,"o":"m 562 1165 l 538 1190 q 538 1212 527 1201 l 674 1344 q 705 1360 688 1358 q 740 1356 723 1363 q 766 1333 757 1349 q 773 1286 781 1308 q 747 1255 765 1265 l 589 1163 q 575 1157 580 1157 q 562 1165 569 1156 m 567 876 l 364 401 q 362 385 359 389 q 383 382 365 382 l 735 382 q 768 387 767 382 q 761 414 769 392 l 589 872 q 578 894 581 893 q 567 876 574 894 m 0 29 l 0 58 q 4 73 0 69 q 19 76 8 76 l 107 76 q 136 83 129 76 q 149 104 143 90 l 561 1056 q 566 1061 563 1060 q 576 1063 569 1063 l 631 1063 q 643 1061 640 1063 q 649 1054 647 1060 l 1026 107 q 1038 83 1033 90 q 1065 76 1042 76 l 1175 76 q 1192 73 1189 76 q 1194 55 1194 69 l 1194 24 q 1191 4 1194 8 q 1172 0 1188 0 l 763 0 q 743 3 749 0 q 736 22 736 7 l 736 54 q 742 73 736 69 q 761 76 748 76 l 867 76 q 883 84 883 76 q 878 101 882 92 l 816 268 q 801 299 807 292 q 761 306 794 306 l 358 306 q 327 300 335 306 q 312 278 319 294 l 240 110 q 236 85 233 93 q 262 76 239 76 l 367 76 q 384 73 379 76 q 389 56 389 69 l 389 22 q 386 3 389 6 q 367 0 383 0 l 35 0 q 8 4 15 0 q 0 29 0 8 "},"Â":{"ha":1194,"x_min":0,"x_max":1194,"o":"m 422 1174 l 406 1190 q 399 1201 399 1198 q 406 1211 399 1203 l 537 1342 q 551 1351 544 1349 q 574 1353 558 1353 l 633 1353 q 652 1351 647 1353 q 665 1342 658 1348 l 798 1208 q 804 1201 803 1203 q 799 1194 804 1199 l 776 1171 q 765 1164 768 1163 q 753 1170 763 1164 l 618 1271 q 583 1272 600 1284 l 447 1169 q 422 1174 435 1160 m 567 876 l 364 401 q 362 385 359 389 q 383 382 365 382 l 735 382 q 768 387 767 382 q 761 414 769 392 l 589 872 q 578 894 581 893 q 567 876 574 894 m 0 29 l 0 58 q 4 73 0 69 q 19 76 8 76 l 107 76 q 136 83 129 76 q 149 104 143 90 l 561 1056 q 566 1061 563 1060 q 576 1063 569 1063 l 631 1063 q 643 1061 640 1063 q 649 1054 647 1060 l 1026 107 q 1038 83 1033 90 q 1065 76 1042 76 l 1175 76 q 1192 73 1189 76 q 1194 55 1194 69 l 1194 24 q 1191 4 1194 8 q 1172 0 1188 0 l 763 0 q 743 3 749 0 q 736 22 736 7 l 736 54 q 742 73 736 69 q 761 76 748 76 l 867 76 q 883 84 883 76 q 878 101 882 92 l 816 268 q 801 299 807 292 q 761 306 794 306 l 358 306 q 327 300 335 306 q 312 278 319 294 l 240 110 q 236 85 233 93 q 262 76 239 76 l 367 76 q 384 73 379 76 q 389 56 389 69 l 389 22 q 386 3 389 6 q 367 0 383 0 l 35 0 q 8 4 15 0 q 0 29 0 8 "},"Ã":{"ha":1194,"x_min":0,"x_max":1194,"o":"m 704 1167 q 632 1183 660 1167 q 581 1222 603 1200 q 542 1258 563 1239 q 490 1276 521 1276 q 432 1254 451 1276 q 413 1190 414 1232 q 399 1181 412 1181 l 376 1181 q 363 1186 365 1181 q 362 1201 361 1191 q 386 1281 366 1246 q 439 1336 406 1316 q 515 1357 472 1357 q 588 1341 559 1357 q 637 1302 617 1324 q 670 1266 652 1285 q 716 1247 688 1247 q 793 1328 788 1247 q 796 1340 794 1336 q 808 1343 799 1343 l 831 1343 q 843 1340 841 1343 q 844 1328 845 1336 q 828 1240 843 1276 q 782 1185 813 1204 q 704 1167 752 1167 m 567 876 l 364 401 q 362 385 359 389 q 383 382 365 382 l 735 382 q 768 387 767 382 q 761 414 769 392 l 589 872 q 578 894 581 893 q 567 876 574 894 m 0 29 l 0 58 q 4 73 0 69 q 19 76 8 76 l 107 76 q 136 83 129 76 q 149 104 143 90 l 561 1056 q 566 1061 563 1060 q 576 1063 569 1063 l 631 1063 q 643 1061 640 1063 q 649 1054 647 1060 l 1026 107 q 1038 83 1033 90 q 1065 76 1042 76 l 1175 76 q 1192 73 1189 76 q 1194 55 1194 69 l 1194 24 q 1191 4 1194 8 q 1172 0 1188 0 l 763 0 q 743 3 749 0 q 736 22 736 7 l 736 54 q 742 73 736 69 q 761 76 748 76 l 867 76 q 883 84 883 76 q 878 101 882 92 l 816 268 q 801 299 807 292 q 761 306 794 306 l 358 306 q 327 300 335 306 q 312 278 319 294 l 240 110 q 236 85 233 93 q 262 76 239 76 l 367 76 q 384 73 379 76 q 389 56 389 69 l 389 22 q 386 3 389 6 q 367 0 383 0 l 35 0 q 8 4 15 0 q 0 29 0 8 "},"Ä":{"ha":1194,"x_min":0,"x_max":1194,"o":"m 710 1174 q 663 1193 683 1174 q 644 1240 644 1213 q 663 1288 644 1268 q 710 1308 683 1308 q 758 1288 738 1308 q 777 1240 777 1268 q 758 1193 777 1213 q 710 1174 738 1174 m 488 1174 q 441 1193 460 1174 q 422 1240 422 1213 q 441 1288 422 1268 q 488 1308 460 1308 q 535 1288 516 1308 q 555 1240 555 1268 q 535 1193 555 1213 q 488 1174 516 1174 m 567 876 l 364 401 q 362 385 359 389 q 383 382 365 382 l 735 382 q 768 387 767 382 q 761 414 769 392 l 589 872 q 578 894 581 893 q 567 876 574 894 m 0 29 l 0 58 q 4 73 0 69 q 19 76 8 76 l 107 76 q 136 83 129 76 q 149 104 143 90 l 561 1056 q 566 1061 563 1060 q 576 1063 569 1063 l 631 1063 q 643 1061 640 1063 q 649 1054 647 1060 l 1026 107 q 1038 83 1033 90 q 1065 76 1042 76 l 1175 76 q 1192 73 1189 76 q 1194 55 1194 69 l 1194 24 q 1191 4 1194 8 q 1172 0 1188 0 l 763 0 q 743 3 749 0 q 736 22 736 7 l 736 54 q 742 73 736 69 q 761 76 748 76 l 867 76 q 883 84 883 76 q 878 101 882 92 l 816 268 q 801 299 807 292 q 761 306 794 306 l 358 306 q 327 300 335 306 q 312 278 319 294 l 240 110 q 236 85 233 93 q 262 76 239 76 l 367 76 q 384 73 379 76 q 389 56 389 69 l 389 22 q 386 3 389 6 q 367 0 383 0 l 35 0 q 8 4 15 0 q 0 29 0 8 "},"Å":{"ha":1194,"x_min":0,"x_max":1194,"o":"m 600 1167 q 537 1183 565 1167 q 492 1228 508 1199 q 476 1291 476 1256 q 492 1355 476 1326 q 537 1400 508 1383 q 600 1417 565 1417 q 664 1400 635 1417 q 709 1355 692 1383 q 725 1291 725 1326 q 708 1228 725 1256 q 664 1183 692 1199 q 600 1167 635 1167 m 600 1218 q 651 1238 631 1218 q 671 1291 671 1258 q 651 1345 671 1324 q 600 1366 631 1366 q 549 1345 569 1366 q 530 1291 530 1324 q 549 1238 530 1258 q 600 1218 569 1218 m 567 876 l 364 401 q 362 385 359 389 q 383 382 365 382 l 735 382 q 768 387 767 382 q 761 414 769 392 l 589 872 q 578 894 581 893 q 567 876 574 894 m 0 29 l 0 58 q 4 73 0 69 q 19 76 8 76 l 107 76 q 136 83 129 76 q 149 104 143 90 l 561 1056 q 566 1061 563 1060 q 576 1063 569 1063 l 631 1063 q 643 1061 640 1063 q 649 1054 647 1060 l 1026 107 q 1038 83 1033 90 q 1065 76 1042 76 l 1175 76 q 1192 73 1189 76 q 1194 55 1194 69 l 1194 24 q 1191 4 1194 8 q 1172 0 1188 0 l 763 0 q 743 3 749 0 q 736 22 736 7 l 736 54 q 742 73 736 69 q 761 76 748 76 l 867 76 q 883 84 883 76 q 878 101 882 92 l 816 268 q 801 299 807 292 q 761 306 794 306 l 358 306 q 327 300 335 306 q 312 278 319 294 l 240 110 q 236 85 233 93 q 262 76 239 76 l 367 76 q 384 73 379 76 q 389 56 389 69 l 389 22 q 386 3 389 6 q 367 0 383 0 l 35 0 q 8 4 15 0 q 0 29 0 8 "},"Ā":{"ha":1194,"x_min":0,"x_max":1194,"o":"m 433 1189 l 433 1212 q 436 1226 433 1222 q 447 1231 438 1231 l 743 1231 q 761 1227 756 1231 q 767 1209 767 1223 l 767 1188 q 765 1172 767 1176 q 751 1167 763 1167 l 458 1167 q 439 1170 444 1167 q 433 1189 433 1174 m 567 876 l 364 401 q 362 385 359 389 q 383 382 365 382 l 735 382 q 768 387 767 382 q 761 414 769 392 l 589 872 q 578 894 581 893 q 567 876 574 894 m 0 29 l 0 58 q 4 73 0 69 q 19 76 8 76 l 107 76 q 136 83 129 76 q 149 104 143 90 l 561 1056 q 566 1061 563 1060 q 576 1063 569 1063 l 631 1063 q 643 1061 640 1063 q 649 1054 647 1060 l 1026 107 q 1038 83 1033 90 q 1065 76 1042 76 l 1175 76 q 1192 73 1189 76 q 1194 55 1194 69 l 1194 24 q 1191 4 1194 8 q 1172 0 1188 0 l 763 0 q 743 3 749 0 q 736 22 736 7 l 736 54 q 742 73 736 69 q 761 76 748 76 l 867 76 q 883 84 883 76 q 878 101 882 92 l 816 268 q 801 299 807 292 q 761 306 794 306 l 358 306 q 327 300 335 306 q 312 278 319 294 l 240 110 q 236 85 233 93 q 262 76 239 76 l 367 76 q 384 73 379 76 q 389 56 389 69 l 389 22 q 386 3 389 6 q 367 0 383 0 l 35 0 q 8 4 15 0 q 0 29 0 8 "},"Ă":{"ha":1194,"x_min":0,"x_max":1194,"o":"m 600 1167 q 477 1212 510 1167 q 442 1333 443 1258 q 458 1346 442 1346 l 471 1346 q 483 1335 483 1346 q 518 1266 487 1288 q 600 1243 549 1243 q 680 1263 648 1243 q 717 1326 711 1283 q 719 1341 719 1335 q 731 1346 719 1346 l 747 1346 q 759 1343 758 1346 q 760 1329 761 1340 q 723 1211 758 1256 q 600 1167 688 1167 m 567 876 l 364 401 q 362 385 359 389 q 383 382 365 382 l 735 382 q 768 387 767 382 q 761 414 769 392 l 589 872 q 578 894 581 893 q 567 876 574 894 m 0 29 l 0 58 q 4 73 0 69 q 19 76 8 76 l 107 76 q 136 83 129 76 q 149 104 143 90 l 561 1056 q 566 1061 563 1060 q 576 1063 569 1063 l 631 1063 q 643 1061 640 1063 q 649 1054 647 1060 l 1026 107 q 1038 83 1033 90 q 1065 76 1042 76 l 1175 76 q 1192 73 1189 76 q 1194 55 1194 69 l 1194 24 q 1191 4 1194 8 q 1172 0 1188 0 l 763 0 q 743 3 749 0 q 736 22 736 7 l 736 54 q 742 73 736 69 q 761 76 748 76 l 867 76 q 883 84 883 76 q 878 101 882 92 l 816 268 q 801 299 807 292 q 761 306 794 306 l 358 306 q 327 300 335 306 q 312 278 319 294 l 240 110 q 236 85 233 93 q 262 76 239 76 l 367 76 q 384 73 379 76 q 389 56 389 69 l 389 22 q 386 3 389 6 q 367 0 383 0 l 35 0 q 8 4 15 0 q 0 29 0 8 "},"Ą":{"ha":1194,"x_min":0,"x_max":1194,"o":"m 958 -291 q 853 -268 899 -291 q 808 -185 808 -245 q 825 -128 808 -156 q 868 -74 842 -100 q 926 -26 895 -49 q 985 16 957 -3 q 1005 26 997 24 q 1018 23 1014 28 q 1018 10 1023 17 q 1006 -8 1014 2 q 974 -48 990 -26 q 947 -97 958 -71 q 937 -151 937 -122 q 952 -200 937 -177 q 1003 -224 967 -224 q 1047 -211 1028 -224 q 1076 -181 1065 -198 q 1097 -176 1085 -167 l 1106 -183 q 1113 -192 1113 -188 q 1109 -203 1113 -195 q 1053 -266 1088 -241 q 958 -291 1019 -291 m 567 876 l 364 401 q 362 385 359 389 q 383 382 365 382 l 735 382 q 768 387 767 382 q 761 414 769 392 l 589 872 q 578 894 581 893 q 567 876 574 894 m 0 29 l 0 58 q 4 73 0 69 q 19 76 8 76 l 107 76 q 136 83 129 76 q 149 104 143 90 l 561 1056 q 566 1061 563 1060 q 576 1063 569 1063 l 631 1063 q 643 1061 640 1063 q 649 1054 647 1060 l 1026 107 q 1038 83 1033 90 q 1065 76 1042 76 l 1175 76 q 1192 73 1189 76 q 1194 55 1194 69 l 1194 24 q 1191 4 1194 8 q 1172 0 1188 0 l 763 0 q 743 3 749 0 q 736 22 736 7 l 736 54 q 742 73 736 69 q 761 76 748 76 l 867 76 q 883 84 883 76 q 878 101 882 92 l 816 268 q 801 299 807 292 q 761 306 794 306 l 358 306 q 327 300 335 306 q 312 278 319 294 l 240 110 q 236 85 233 93 q 262 76 239 76 l 367 76 q 384 73 379 76 q 389 56 389 69 l 389 22 q 386 3 389 6 q 367 0 383 0 l 35 0 q 8 4 15 0 q 0 29 0 8 "},"B":{"ha":1038,"x_min":52,"x_max":983,"o":"m 608 76 q 718 102 667 76 q 799 175 769 127 q 830 292 830 223 q 799 407 830 360 q 718 476 769 453 q 608 500 667 500 l 371 500 q 343 493 349 500 q 337 463 337 486 l 337 103 q 344 81 337 85 q 369 76 351 76 l 608 76 m 371 576 l 594 576 q 694 597 647 576 q 772 659 742 617 q 802 771 802 702 q 772 883 802 840 q 694 945 742 926 q 594 965 647 965 l 361 965 q 341 958 344 965 q 337 934 337 951 l 337 604 q 343 580 337 584 q 371 576 350 576 m 622 0 l 81 0 q 58 3 65 0 q 52 22 52 6 l 52 53 q 58 73 52 69 q 78 76 63 76 l 177 76 q 198 80 192 76 q 205 97 205 83 l 205 939 q 199 961 205 958 q 174 965 193 965 l 81 965 q 58 969 63 965 q 52 990 52 973 l 52 1019 q 57 1038 52 1033 q 75 1042 62 1042 l 594 1042 q 777 1011 699 1042 q 898 921 855 981 q 941 771 941 861 q 901 627 941 681 q 783 551 861 573 q 769 541 768 547 q 782 532 769 535 q 930 449 877 507 q 983 292 983 391 q 939 123 983 188 q 814 30 895 59 q 622 0 733 0 "},"C":{"ha":1125,"x_min":76,"x_max":1049,"o":"m 76 521 q 119 735 76 637 q 235 905 161 833 q 403 1016 308 976 q 604 1056 499 1056 q 782 1018 705 1056 q 913 926 860 981 q 928 916 923 915 q 940 937 934 917 l 969 1036 q 972 1046 971 1044 q 983 1049 974 1049 l 1021 1049 q 1032 1046 1030 1049 q 1035 1035 1035 1044 l 1035 706 q 1031 691 1035 694 q 1015 688 1026 688 l 972 688 q 958 692 959 688 q 956 708 958 697 q 898 836 944 775 q 780 936 853 897 q 611 975 706 975 q 407 914 490 975 q 280 750 323 853 q 236 521 236 647 q 276 292 236 394 q 396 128 316 189 q 597 68 476 68 q 789 116 709 68 q 916 240 869 164 q 971 399 962 316 q 975 407 972 405 q 985 410 978 410 l 1033 410 q 1045 408 1041 410 q 1048 400 1049 407 q 982 188 1040 282 q 824 40 924 94 q 583 -14 723 -14 q 380 26 472 -14 q 219 137 287 65 q 114 307 151 209 q 76 521 76 405 "},"Ç":{"ha":1125,"x_min":76,"x_max":1049,"o":"m 455 -344 l 455 -332 q 460 -317 455 -320 q 476 -313 466 -314 q 555 -294 519 -310 q 591 -244 591 -278 q 574 -201 591 -216 q 528 -179 556 -185 q 469 -169 500 -172 q 446 -163 449 -167 q 450 -149 443 -158 l 555 -9 q 560 -3 558 -4 q 571 -2 563 -2 l 606 -2 q 620 -5 622 -2 q 612 -16 617 -8 l 550 -98 q 543 -111 541 -110 q 563 -115 544 -113 q 655 -143 620 -119 q 690 -226 690 -167 q 671 -289 690 -263 q 622 -331 653 -315 q 552 -355 590 -347 q 472 -364 513 -362 q 455 -344 455 -365 m 76 521 q 119 735 76 637 q 235 905 161 833 q 403 1016 308 976 q 604 1056 499 1056 q 782 1018 705 1056 q 913 926 860 981 q 928 916 923 915 q 940 937 934 917 l 969 1036 q 972 1046 971 1044 q 983 1049 974 1049 l 1021 1049 q 1032 1046 1030 1049 q 1035 1035 1035 1044 l 1035 706 q 1031 691 1035 694 q 1015 688 1026 688 l 972 688 q 958 692 959 688 q 956 708 958 697 q 898 836 944 775 q 780 936 853 897 q 611 975 706 975 q 407 914 490 975 q 280 750 323 853 q 236 521 236 647 q 276 292 236 394 q 396 128 316 189 q 597 68 476 68 q 789 116 709 68 q 916 240 869 164 q 971 399 962 316 q 975 407 972 405 q 985 410 978 410 l 1033 410 q 1045 408 1041 410 q 1048 400 1049 407 q 982 188 1040 282 q 824 40 924 94 q 583 -14 723 -14 q 380 26 472 -14 q 219 137 287 65 q 114 307 151 209 q 76 521 76 405 "},"Ć":{"ha":1125,"x_min":76,"x_max":1049,"o":"m 563 1165 l 540 1190 q 540 1212 528 1201 l 676 1344 q 707 1360 689 1358 q 741 1356 724 1363 q 767 1333 758 1349 q 775 1286 783 1308 q 749 1255 767 1265 l 590 1163 q 576 1157 581 1157 q 563 1165 571 1156 m 76 521 q 119 735 76 637 q 235 905 161 833 q 403 1016 308 976 q 604 1056 499 1056 q 782 1018 705 1056 q 913 926 860 981 q 928 916 923 915 q 940 937 934 917 l 969 1036 q 972 1046 971 1044 q 983 1049 974 1049 l 1021 1049 q 1032 1046 1030 1049 q 1035 1035 1035 1044 l 1035 706 q 1031 691 1035 694 q 1015 688 1026 688 l 972 688 q 958 692 959 688 q 956 708 958 697 q 898 836 944 775 q 780 936 853 897 q 611 975 706 975 q 407 914 490 975 q 280 750 323 853 q 236 521 236 647 q 276 292 236 394 q 396 128 316 189 q 597 68 476 68 q 789 116 709 68 q 916 240 869 164 q 971 399 962 316 q 975 407 972 405 q 985 410 978 410 l 1033 410 q 1045 408 1041 410 q 1048 400 1049 407 q 982 188 1040 282 q 824 40 924 94 q 583 -14 723 -14 q 380 26 472 -14 q 219 137 287 65 q 114 307 151 209 q 76 521 76 405 "},"Ĉ":{"ha":1125,"x_min":76,"x_max":1049,"o":"m 423 1174 l 408 1190 q 400 1201 400 1198 q 408 1211 400 1203 l 538 1342 q 553 1351 546 1349 q 575 1353 560 1353 l 634 1353 q 654 1351 648 1353 q 666 1342 660 1348 l 799 1208 q 805 1201 805 1203 q 800 1194 806 1199 l 777 1171 q 767 1164 769 1163 q 755 1170 764 1164 l 619 1271 q 585 1272 601 1284 l 448 1169 q 423 1174 436 1160 m 76 521 q 119 735 76 637 q 235 905 161 833 q 403 1016 308 976 q 604 1056 499 1056 q 782 1018 705 1056 q 913 926 860 981 q 928 916 923 915 q 940 937 934 917 l 969 1036 q 972 1046 971 1044 q 983 1049 974 1049 l 1021 1049 q 1032 1046 1030 1049 q 1035 1035 1035 1044 l 1035 706 q 1031 691 1035 694 q 1015 688 1026 688 l 972 688 q 958 692 959 688 q 956 708 958 697 q 898 836 944 775 q 780 936 853 897 q 611 975 706 975 q 407 914 490 975 q 280 750 323 853 q 236 521 236 647 q 276 292 236 394 q 396 128 316 189 q 597 68 476 68 q 789 116 709 68 q 916 240 869 164 q 971 399 962 316 q 975 407 972 405 q 985 410 978 410 l 1033 410 q 1045 408 1041 410 q 1048 400 1049 407 q 982 188 1040 282 q 824 40 924 94 q 583 -14 723 -14 q 380 26 472 -14 q 219 137 287 65 q 114 307 151 209 q 76 521 76 405 "},"Ċ":{"ha":1125,"x_min":76,"x_max":1049,"o":"m 604 1201 q 545 1226 570 1201 q 521 1285 521 1251 q 545 1344 521 1319 q 604 1368 570 1368 q 663 1344 639 1368 q 688 1285 688 1319 q 663 1226 688 1251 q 604 1201 639 1201 m 76 521 q 119 735 76 637 q 235 905 161 833 q 403 1016 308 976 q 604 1056 499 1056 q 782 1018 705 1056 q 913 926 860 981 q 928 916 923 915 q 940 937 934 917 l 969 1036 q 972 1046 971 1044 q 983 1049 974 1049 l 1021 1049 q 1032 1046 1030 1049 q 1035 1035 1035 1044 l 1035 706 q 1031 691 1035 694 q 1015 688 1026 688 l 972 688 q 958 692 959 688 q 956 708 958 697 q 898 836 944 775 q 780 936 853 897 q 611 975 706 975 q 407 914 490 975 q 280 750 323 853 q 236 521 236 647 q 276 292 236 394 q 396 128 316 189 q 597 68 476 68 q 789 116 709 68 q 916 240 869 164 q 971 399 962 316 q 975 407 972 405 q 985 410 978 410 l 1033 410 q 1045 408 1041 410 q 1048 400 1049 407 q 982 188 1040 282 q 824 40 924 94 q 583 -14 723 -14 q 380 26 472 -14 q 219 137 287 65 q 114 307 151 209 q 76 521 76 405 "},"Č":{"ha":1125,"x_min":76,"x_max":1049,"o":"m 526 1195 l 413 1310 q 402 1325 403 1319 q 410 1338 400 1330 l 422 1347 q 439 1355 433 1356 q 456 1346 444 1353 l 564 1275 q 601 1261 585 1262 q 638 1275 617 1261 l 753 1356 q 769 1361 764 1363 q 783 1349 774 1359 l 790 1344 q 802 1329 800 1335 q 794 1314 803 1324 l 671 1190 q 658 1178 663 1183 q 636 1174 653 1174 l 581 1174 q 548 1180 559 1174 q 526 1195 536 1185 m 76 521 q 119 735 76 637 q 235 905 161 833 q 403 1016 308 976 q 604 1056 499 1056 q 782 1018 705 1056 q 913 926 860 981 q 928 916 923 915 q 940 937 934 917 l 969 1036 q 972 1046 971 1044 q 983 1049 974 1049 l 1021 1049 q 1032 1046 1030 1049 q 1035 1035 1035 1044 l 1035 706 q 1031 691 1035 694 q 1015 688 1026 688 l 972 688 q 958 692 959 688 q 956 708 958 697 q 898 836 944 775 q 780 936 853 897 q 611 975 706 975 q 407 914 490 975 q 280 750 323 853 q 236 521 236 647 q 276 292 236 394 q 396 128 316 189 q 597 68 476 68 q 789 116 709 68 q 916 240 869 164 q 971 399 962 316 q 975 407 972 405 q 985 410 978 410 l 1033 410 q 1045 408 1041 410 q 1048 400 1049 407 q 982 188 1040 282 q 824 40 924 94 q 583 -14 723 -14 q 380 26 472 -14 q 219 137 287 65 q 114 307 151 209 q 76 521 76 405 "},"D":{"ha":1142,"x_min":52,"x_max":1066,"o":"m 52 24 l 52 50 q 56 72 52 67 q 76 76 60 76 l 183 76 q 202 82 199 76 q 205 104 205 88 l 205 935 q 202 959 205 953 q 181 965 199 965 l 92 965 q 61 969 70 965 q 52 990 52 972 l 52 1022 q 63 1038 52 1035 q 90 1042 74 1042 l 566 1042 q 775 1002 682 1042 q 932 892 867 963 q 1032 727 997 822 q 1066 521 1066 632 q 1030 315 1066 410 q 927 149 994 220 q 769 39 860 78 q 566 0 677 0 l 76 0 q 57 5 61 0 q 52 24 52 9 m 365 76 l 566 76 q 768 135 694 76 q 874 294 842 193 q 906 521 906 394 q 872 748 906 647 q 762 907 837 849 q 566 965 687 965 l 367 965 q 342 960 347 965 q 337 935 337 955 l 337 100 q 342 80 337 83 q 365 76 348 76 "},"Ď":{"ha":1142,"x_min":52,"x_max":1066,"o":"m 400 1195 l 286 1310 q 275 1325 277 1319 q 283 1338 274 1330 l 296 1347 q 312 1355 307 1356 q 329 1346 317 1353 l 438 1275 q 475 1261 458 1262 q 511 1275 491 1261 l 626 1356 q 643 1361 638 1363 q 657 1349 648 1359 l 664 1344 q 675 1329 674 1335 q 667 1314 677 1324 l 544 1190 q 532 1178 537 1183 q 510 1174 526 1174 l 454 1174 q 421 1180 433 1174 q 400 1195 410 1185 m 52 24 l 52 50 q 56 72 52 67 q 76 76 60 76 l 183 76 q 202 82 199 76 q 205 104 205 88 l 205 935 q 202 959 205 953 q 181 965 199 965 l 92 965 q 61 969 70 965 q 52 990 52 972 l 52 1022 q 63 1038 52 1035 q 90 1042 74 1042 l 566 1042 q 775 1002 682 1042 q 932 892 867 963 q 1032 727 997 822 q 1066 521 1066 632 q 1030 315 1066 410 q 927 149 994 220 q 769 39 860 78 q 566 0 677 0 l 76 0 q 57 5 61 0 q 52 24 52 9 m 365 76 l 566 76 q 768 135 694 76 q 874 294 842 193 q 906 521 906 394 q 872 748 906 647 q 762 907 837 849 q 566 965 687 965 l 367 965 q 342 960 347 965 q 337 935 337 955 l 337 100 q 342 80 337 83 q 365 76 348 76 "},"E":{"ha":1052,"x_min":52,"x_max":962,"o":"m 171 965 l 77 965 q 56 972 60 965 q 52 994 52 978 l 52 1015 q 56 1036 52 1031 q 76 1042 60 1042 l 910 1042 q 941 1037 935 1042 q 948 1008 948 1033 l 948 743 q 947 721 948 726 q 928 715 947 715 l 901 715 q 882 722 885 715 q 878 742 879 728 q 857 875 876 826 q 792 945 837 924 q 670 965 748 965 l 367 965 q 343 960 349 965 q 337 935 337 955 l 337 597 q 340 574 337 582 q 360 567 344 567 l 455 567 q 577 605 538 567 q 621 704 616 643 q 626 722 622 718 q 640 726 629 726 l 663 726 q 679 722 674 726 q 684 706 684 717 l 684 372 q 681 350 684 356 q 662 344 677 344 l 639 344 q 627 348 633 344 q 620 368 622 352 q 599 441 617 409 q 545 492 581 474 q 455 511 510 511 l 363 511 q 341 505 345 511 q 337 481 337 499 l 337 107 q 342 82 337 88 q 367 76 347 76 l 656 76 q 799 99 748 76 q 870 176 849 121 q 892 332 891 232 q 896 350 892 346 q 909 354 900 354 l 935 354 q 955 351 949 354 q 962 333 962 347 l 962 24 q 958 5 962 9 q 940 0 953 0 l 80 0 q 58 4 65 0 q 52 25 52 8 l 52 57 q 58 74 52 71 q 77 76 63 76 l 167 76 q 199 83 193 76 q 205 115 205 90 l 205 936 q 199 961 205 958 q 171 965 192 965 "},"È":{"ha":1052,"x_min":52,"x_max":962,"o":"m 568 1159 l 404 1255 q 378 1286 387 1265 q 385 1333 370 1308 q 412 1356 395 1349 q 447 1360 428 1363 q 477 1344 465 1358 l 612 1213 q 613 1188 624 1201 l 589 1163 q 580 1156 583 1157 q 568 1159 576 1154 m 171 965 l 77 965 q 56 972 60 965 q 52 994 52 978 l 52 1015 q 56 1036 52 1031 q 76 1042 60 1042 l 910 1042 q 941 1037 935 1042 q 948 1008 948 1033 l 948 743 q 947 721 948 726 q 928 715 947 715 l 901 715 q 882 722 885 715 q 878 742 879 728 q 857 875 876 826 q 792 945 837 924 q 670 965 748 965 l 367 965 q 343 960 349 965 q 337 935 337 955 l 337 597 q 340 574 337 582 q 360 567 344 567 l 455 567 q 577 605 538 567 q 621 704 616 643 q 626 722 622 718 q 640 726 629 726 l 663 726 q 679 722 674 726 q 684 706 684 717 l 684 372 q 681 350 684 356 q 662 344 677 344 l 639 344 q 627 348 633 344 q 620 368 622 352 q 599 441 617 409 q 545 492 581 474 q 455 511 510 511 l 363 511 q 341 505 345 511 q 337 481 337 499 l 337 107 q 342 82 337 88 q 367 76 347 76 l 656 76 q 799 99 748 76 q 870 176 849 121 q 892 332 891 232 q 896 350 892 346 q 909 354 900 354 l 935 354 q 955 351 949 354 q 962 333 962 347 l 962 24 q 958 5 962 9 q 940 0 953 0 l 80 0 q 58 4 65 0 q 52 25 52 8 l 52 57 q 58 74 52 71 q 77 76 63 76 l 167 76 q 199 83 193 76 q 205 115 205 90 l 205 936 q 199 961 205 958 q 171 965 192 965 "},"É":{"ha":1052,"x_min":52,"x_max":962,"o":"m 513 1165 l 490 1190 q 490 1212 478 1201 l 626 1344 q 657 1360 639 1358 q 691 1356 674 1363 q 717 1333 708 1349 q 725 1286 733 1308 q 699 1255 717 1265 l 540 1163 q 526 1157 531 1157 q 513 1165 521 1156 m 171 965 l 77 965 q 56 972 60 965 q 52 994 52 978 l 52 1015 q 56 1036 52 1031 q 76 1042 60 1042 l 910 1042 q 941 1037 935 1042 q 948 1008 948 1033 l 948 743 q 947 721 948 726 q 928 715 947 715 l 901 715 q 882 722 885 715 q 878 742 879 728 q 857 875 876 826 q 792 945 837 924 q 670 965 748 965 l 367 965 q 343 960 349 965 q 337 935 337 955 l 337 597 q 340 574 337 582 q 360 567 344 567 l 455 567 q 577 605 538 567 q 621 704 616 643 q 626 722 622 718 q 640 726 629 726 l 663 726 q 679 722 674 726 q 684 706 684 717 l 684 372 q 681 350 684 356 q 662 344 677 344 l 639 344 q 627 348 633 344 q 620 368 622 352 q 599 441 617 409 q 545 492 581 474 q 455 511 510 511 l 363 511 q 341 505 345 511 q 337 481 337 499 l 337 107 q 342 82 337 88 q 367 76 347 76 l 656 76 q 799 99 748 76 q 870 176 849 121 q 892 332 891 232 q 896 350 892 346 q 909 354 900 354 l 935 354 q 955 351 949 354 q 962 333 962 347 l 962 24 q 958 5 962 9 q 940 0 953 0 l 80 0 q 58 4 65 0 q 52 25 52 8 l 52 57 q 58 74 52 71 q 77 76 63 76 l 167 76 q 199 83 193 76 q 205 115 205 90 l 205 936 q 199 961 205 958 q 171 965 192 965 "},"Ê":{"ha":1052,"x_min":52,"x_max":962,"o":"m 373 1174 l 358 1190 q 350 1201 350 1198 q 358 1211 350 1203 l 488 1342 q 503 1351 496 1349 q 525 1353 510 1353 l 584 1353 q 604 1351 598 1353 q 616 1342 610 1348 l 749 1208 q 755 1201 755 1203 q 750 1194 756 1199 l 727 1171 q 717 1164 719 1163 q 705 1170 714 1164 l 569 1271 q 535 1272 551 1284 l 398 1169 q 373 1174 386 1160 m 171 965 l 77 965 q 56 972 60 965 q 52 994 52 978 l 52 1015 q 56 1036 52 1031 q 76 1042 60 1042 l 910 1042 q 941 1037 935 1042 q 948 1008 948 1033 l 948 743 q 947 721 948 726 q 928 715 947 715 l 901 715 q 882 722 885 715 q 878 742 879 728 q 857 875 876 826 q 792 945 837 924 q 670 965 748 965 l 367 965 q 343 960 349 965 q 337 935 337 955 l 337 597 q 340 574 337 582 q 360 567 344 567 l 455 567 q 577 605 538 567 q 621 704 616 643 q 626 722 622 718 q 640 726 629 726 l 663 726 q 679 722 674 726 q 684 706 684 717 l 684 372 q 681 350 684 356 q 662 344 677 344 l 639 344 q 627 348 633 344 q 620 368 622 352 q 599 441 617 409 q 545 492 581 474 q 455 511 510 511 l 363 511 q 341 505 345 511 q 337 481 337 499 l 337 107 q 342 82 337 88 q 367 76 347 76 l 656 76 q 799 99 748 76 q 870 176 849 121 q 892 332 891 232 q 896 350 892 346 q 909 354 900 354 l 935 354 q 955 351 949 354 q 962 333 962 347 l 962 24 q 958 5 962 9 q 940 0 953 0 l 80 0 q 58 4 65 0 q 52 25 52 8 l 52 57 q 58 74 52 71 q 77 76 63 76 l 167 76 q 199 83 193 76 q 205 115 205 90 l 205 936 q 199 961 205 958 q 171 965 192 965 "},"Ë":{"ha":1052,"x_min":52,"x_max":962,"o":"m 662 1174 q 615 1193 634 1174 q 595 1240 595 1213 q 615 1288 595 1268 q 662 1308 634 1308 q 709 1288 690 1308 q 728 1240 728 1268 q 709 1193 728 1213 q 662 1174 690 1174 m 440 1174 q 392 1193 412 1174 q 373 1240 373 1213 q 392 1288 373 1268 q 440 1308 412 1308 q 487 1288 467 1308 q 506 1240 506 1268 q 487 1193 506 1213 q 440 1174 467 1174 m 171 965 l 77 965 q 56 972 60 965 q 52 994 52 978 l 52 1015 q 56 1036 52 1031 q 76 1042 60 1042 l 910 1042 q 941 1037 935 1042 q 948 1008 948 1033 l 948 743 q 947 721 948 726 q 928 715 947 715 l 901 715 q 882 722 885 715 q 878 742 879 728 q 857 875 876 826 q 792 945 837 924 q 670 965 748 965 l 367 965 q 343 960 349 965 q 337 935 337 955 l 337 597 q 340 574 337 582 q 360 567 344 567 l 455 567 q 577 605 538 567 q 621 704 616 643 q 626 722 622 718 q 640 726 629 726 l 663 726 q 679 722 674 726 q 684 706 684 717 l 684 372 q 681 350 684 356 q 662 344 677 344 l 639 344 q 627 348 633 344 q 620 368 622 352 q 599 441 617 409 q 545 492 581 474 q 455 511 510 511 l 363 511 q 341 505 345 511 q 337 481 337 499 l 337 107 q 342 82 337 88 q 367 76 347 76 l 656 76 q 799 99 748 76 q 870 176 849 121 q 892 332 891 232 q 896 350 892 346 q 909 354 900 354 l 935 354 q 955 351 949 354 q 962 333 962 347 l 962 24 q 958 5 962 9 q 940 0 953 0 l 80 0 q 58 4 65 0 q 52 25 52 8 l 52 57 q 58 74 52 71 q 77 76 63 76 l 167 76 q 199 83 193 76 q 205 115 205 90 l 205 936 q 199 961 205 958 q 171 965 192 965 "},"Ē":{"ha":1052,"x_min":52,"x_max":962,"o":"m 385 1189 l 385 1212 q 387 1226 385 1222 q 399 1231 390 1231 l 694 1231 q 713 1227 708 1231 q 718 1209 718 1223 l 718 1188 q 716 1172 718 1176 q 703 1167 714 1167 l 409 1167 q 390 1170 396 1167 q 385 1189 385 1174 m 171 965 l 77 965 q 56 972 60 965 q 52 994 52 978 l 52 1015 q 56 1036 52 1031 q 76 1042 60 1042 l 910 1042 q 941 1037 935 1042 q 948 1008 948 1033 l 948 743 q 947 721 948 726 q 928 715 947 715 l 901 715 q 882 722 885 715 q 878 742 879 728 q 857 875 876 826 q 792 945 837 924 q 670 965 748 965 l 367 965 q 343 960 349 965 q 337 935 337 955 l 337 597 q 340 574 337 582 q 360 567 344 567 l 455 567 q 577 605 538 567 q 621 704 616 643 q 626 722 622 718 q 640 726 629 726 l 663 726 q 679 722 674 726 q 684 706 684 717 l 684 372 q 681 350 684 356 q 662 344 677 344 l 639 344 q 627 348 633 344 q 620 368 622 352 q 599 441 617 409 q 545 492 581 474 q 455 511 510 511 l 363 511 q 341 505 345 511 q 337 481 337 499 l 337 107 q 342 82 337 88 q 367 76 347 76 l 656 76 q 799 99 748 76 q 870 176 849 121 q 892 332 891 232 q 896 350 892 346 q 909 354 900 354 l 935 354 q 955 351 949 354 q 962 333 962 347 l 962 24 q 958 5 962 9 q 940 0 953 0 l 80 0 q 58 4 65 0 q 52 25 52 8 l 52 57 q 58 74 52 71 q 77 76 63 76 l 167 76 q 199 83 193 76 q 205 115 205 90 l 205 936 q 199 961 205 958 q 171 965 192 965 "},"Ĕ":{"ha":1052,"x_min":52,"x_max":962,"o":"m 551 1167 q 428 1212 462 1167 q 393 1333 394 1258 q 409 1346 393 1346 l 422 1346 q 435 1335 434 1346 q 469 1266 438 1288 q 551 1243 501 1243 q 631 1263 599 1243 q 669 1326 663 1283 q 670 1341 670 1335 q 683 1346 670 1346 l 698 1346 q 711 1343 709 1346 q 712 1329 713 1340 q 674 1211 709 1256 q 551 1167 640 1167 m 171 965 l 77 965 q 56 972 60 965 q 52 994 52 978 l 52 1015 q 56 1036 52 1031 q 76 1042 60 1042 l 910 1042 q 941 1037 935 1042 q 948 1008 948 1033 l 948 743 q 947 721 948 726 q 928 715 947 715 l 901 715 q 882 722 885 715 q 878 742 879 728 q 857 875 876 826 q 792 945 837 924 q 670 965 748 965 l 367 965 q 343 960 349 965 q 337 935 337 955 l 337 597 q 340 574 337 582 q 360 567 344 567 l 455 567 q 577 605 538 567 q 621 704 616 643 q 626 722 622 718 q 640 726 629 726 l 663 726 q 679 722 674 726 q 684 706 684 717 l 684 372 q 681 350 684 356 q 662 344 677 344 l 639 344 q 627 348 633 344 q 620 368 622 352 q 599 441 617 409 q 545 492 581 474 q 455 511 510 511 l 363 511 q 341 505 345 511 q 337 481 337 499 l 337 107 q 342 82 337 88 q 367 76 347 76 l 656 76 q 799 99 748 76 q 870 176 849 121 q 892 332 891 232 q 896 350 892 346 q 909 354 900 354 l 935 354 q 955 351 949 354 q 962 333 962 347 l 962 24 q 958 5 962 9 q 940 0 953 0 l 80 0 q 58 4 65 0 q 52 25 52 8 l 52 57 q 58 74 52 71 q 77 76 63 76 l 167 76 q 199 83 193 76 q 205 115 205 90 l 205 936 q 199 961 205 958 q 171 965 192 965 "},"Ė":{"ha":1052,"x_min":52,"x_max":962,"o":"m 554 1201 q 495 1226 520 1201 q 471 1285 471 1251 q 495 1344 471 1319 q 554 1368 520 1368 q 613 1344 589 1368 q 638 1285 638 1319 q 613 1226 638 1251 q 554 1201 589 1201 m 171 965 l 77 965 q 56 972 60 965 q 52 994 52 978 l 52 1015 q 56 1036 52 1031 q 76 1042 60 1042 l 910 1042 q 941 1037 935 1042 q 948 1008 948 1033 l 948 743 q 947 721 948 726 q 928 715 947 715 l 901 715 q 882 722 885 715 q 878 742 879 728 q 857 875 876 826 q 792 945 837 924 q 670 965 748 965 l 367 965 q 343 960 349 965 q 337 935 337 955 l 337 597 q 340 574 337 582 q 360 567 344 567 l 455 567 q 577 605 538 567 q 621 704 616 643 q 626 722 622 718 q 640 726 629 726 l 663 726 q 679 722 674 726 q 684 706 684 717 l 684 372 q 681 350 684 356 q 662 344 677 344 l 639 344 q 627 348 633 344 q 620 368 622 352 q 599 441 617 409 q 545 492 581 474 q 455 511 510 511 l 363 511 q 341 505 345 511 q 337 481 337 499 l 337 107 q 342 82 337 88 q 367 76 347 76 l 656 76 q 799 99 748 76 q 870 176 849 121 q 892 332 891 232 q 896 350 892 346 q 909 354 900 354 l 935 354 q 955 351 949 354 q 962 333 962 347 l 962 24 q 958 5 962 9 q 940 0 953 0 l 80 0 q 58 4 65 0 q 52 25 52 8 l 52 57 q 58 74 52 71 q 77 76 63 76 l 167 76 q 199 83 193 76 q 205 115 205 90 l 205 936 q 199 961 205 958 q 171 965 192 965 "},"Ę":{"ha":1052,"x_min":52,"x_max":981,"o":"m 826 -291 q 721 -268 767 -291 q 676 -185 676 -245 q 693 -128 676 -156 q 736 -74 710 -100 q 794 -26 763 -49 q 853 16 825 -3 q 873 26 865 24 q 886 23 882 28 q 886 10 891 17 q 874 -8 882 2 q 842 -48 858 -26 q 815 -97 826 -71 q 805 -151 805 -122 q 820 -200 805 -177 q 871 -224 835 -224 q 915 -211 897 -224 q 944 -181 933 -198 q 965 -176 953 -167 l 974 -183 q 981 -192 981 -188 q 977 -203 981 -195 q 922 -266 956 -241 q 826 -291 887 -291 m 171 965 l 77 965 q 56 972 60 965 q 52 994 52 978 l 52 1015 q 56 1036 52 1031 q 76 1042 60 1042 l 910 1042 q 941 1037 935 1042 q 948 1008 948 1033 l 948 743 q 947 721 948 726 q 928 715 947 715 l 901 715 q 882 722 885 715 q 878 742 879 728 q 857 875 876 826 q 792 945 837 924 q 670 965 748 965 l 367 965 q 343 960 349 965 q 337 935 337 955 l 337 597 q 340 574 337 582 q 360 567 344 567 l 455 567 q 577 605 538 567 q 621 704 616 643 q 626 722 622 718 q 640 726 629 726 l 663 726 q 679 722 674 726 q 684 706 684 717 l 684 372 q 681 350 684 356 q 662 344 677 344 l 639 344 q 627 348 633 344 q 620 368 622 352 q 599 441 617 409 q 545 492 581 474 q 455 511 510 511 l 363 511 q 341 505 345 511 q 337 481 337 499 l 337 107 q 342 82 337 88 q 367 76 347 76 l 656 76 q 799 99 748 76 q 870 176 849 121 q 892 332 891 232 q 896 350 892 346 q 909 354 900 354 l 935 354 q 955 351 949 354 q 962 333 962 347 l 962 24 q 958 5 962 9 q 940 0 953 0 l 80 0 q 58 4 65 0 q 52 25 52 8 l 52 57 q 58 74 52 71 q 77 76 63 76 l 167 76 q 199 83 193 76 q 205 115 205 90 l 205 936 q 199 961 205 958 q 171 965 192 965 "},"Ě":{"ha":1052,"x_min":52,"x_max":962,"o":"m 476 1195 l 363 1310 q 352 1325 353 1319 q 360 1338 350 1330 l 372 1347 q 389 1355 383 1356 q 406 1346 394 1353 l 514 1275 q 551 1261 535 1262 q 588 1275 567 1261 l 703 1356 q 719 1361 714 1363 q 733 1349 724 1359 l 740 1344 q 752 1329 750 1335 q 744 1314 753 1324 l 621 1190 q 608 1178 613 1183 q 586 1174 603 1174 l 531 1174 q 498 1180 509 1174 q 476 1195 486 1185 m 171 965 l 77 965 q 56 972 60 965 q 52 994 52 978 l 52 1015 q 56 1036 52 1031 q 76 1042 60 1042 l 910 1042 q 941 1037 935 1042 q 948 1008 948 1033 l 948 743 q 947 721 948 726 q 928 715 947 715 l 901 715 q 882 722 885 715 q 878 742 879 728 q 857 875 876 826 q 792 945 837 924 q 670 965 748 965 l 367 965 q 343 960 349 965 q 337 935 337 955 l 337 597 q 340 574 337 582 q 360 567 344 567 l 455 567 q 577 605 538 567 q 621 704 616 643 q 626 722 622 718 q 640 726 629 726 l 663 726 q 679 722 674 726 q 684 706 684 717 l 684 372 q 681 350 684 356 q 662 344 677 344 l 639 344 q 627 348 633 344 q 620 368 622 352 q 599 441 617 409 q 545 492 581 474 q 455 511 510 511 l 363 511 q 341 505 345 511 q 337 481 337 499 l 337 107 q 342 82 337 88 q 367 76 347 76 l 656 76 q 799 99 748 76 q 870 176 849 121 q 892 332 891 232 q 896 350 892 346 q 909 354 900 354 l 935 354 q 955 351 949 354 q 962 333 962 347 l 962 24 q 958 5 962 9 q 940 0 953 0 l 80 0 q 58 4 65 0 q 52 25 52 8 l 52 57 q 58 74 52 71 q 77 76 63 76 l 167 76 q 199 83 193 76 q 205 115 205 90 l 205 936 q 199 961 205 958 q 171 965 192 965 "},"F":{"ha":1003,"x_min":52,"x_max":934,"o":"m 185 965 l 69 965 q 56 968 59 965 q 52 981 52 970 l 52 1028 q 54 1039 52 1036 q 63 1042 56 1042 l 917 1042 q 931 1038 928 1042 q 934 1022 934 1033 l 934 729 q 929 717 934 719 q 915 715 924 715 l 878 715 q 866 719 868 715 q 865 732 865 722 q 845 873 864 822 q 781 944 826 924 q 656 965 736 965 l 360 965 q 342 958 347 965 q 337 940 337 951 l 337 581 q 342 558 337 563 q 364 553 347 553 l 469 553 q 588 583 549 553 q 634 669 627 613 q 635 691 635 684 q 653 699 635 699 l 676 699 q 693 696 688 699 q 698 682 698 694 l 698 349 q 696 335 698 340 q 685 331 694 331 l 649 331 q 638 334 639 331 q 635 347 636 338 q 594 447 633 411 q 469 483 556 483 l 358 483 q 340 478 343 483 q 337 458 337 473 l 337 104 q 341 82 337 88 q 363 76 346 76 l 484 76 q 499 74 494 76 q 503 63 503 72 l 503 21 q 498 4 503 8 q 481 0 493 0 l 69 0 q 56 2 59 0 q 52 14 52 3 l 52 64 q 57 75 52 73 q 71 76 62 76 l 186 76 q 201 81 198 76 q 205 97 205 85 l 205 944 q 202 962 205 958 q 185 965 199 965 "},"G":{"ha":1208,"x_min":76,"x_max":1188,"o":"m 755 514 l 1153 514 q 1181 509 1174 514 q 1188 482 1188 504 l 1188 447 q 1183 428 1188 432 q 1162 424 1178 424 l 1072 424 q 1052 418 1056 424 q 1049 397 1049 413 l 1049 335 q 1048 302 1049 317 q 1044 272 1048 286 q 1001 175 1033 225 q 911 82 968 124 q 773 13 855 39 q 583 -14 692 -14 q 383 26 475 -14 q 222 137 290 65 q 115 307 153 209 q 76 521 76 405 q 119 735 76 637 q 235 905 161 833 q 403 1016 308 976 q 604 1056 499 1056 q 786 1024 709 1056 q 915 937 863 992 q 932 928 927 925 q 942 947 938 931 l 965 1017 q 972 1034 968 1026 q 985 1042 976 1042 l 1016 1042 q 1030 1037 1024 1042 q 1035 1024 1035 1033 l 1035 718 q 1032 697 1035 707 q 1017 688 1029 688 l 984 688 q 962 692 966 688 q 956 713 958 697 q 911 840 946 779 q 805 939 876 901 q 614 978 734 978 q 415 916 500 978 q 283 751 330 855 q 236 521 236 647 q 276 290 236 394 q 394 124 315 186 q 590 63 473 63 q 739 89 677 63 q 840 157 801 116 q 896 239 878 198 q 901 256 899 248 q 903 278 903 265 l 903 401 q 895 420 903 417 q 874 424 888 424 l 758 424 q 735 427 740 424 q 729 449 729 431 l 729 488 q 734 509 729 504 q 755 514 739 514 "},"Ĝ":{"ha":1208,"x_min":76,"x_max":1188,"o":"m 423 1174 l 408 1190 q 400 1201 400 1198 q 408 1211 400 1203 l 538 1342 q 553 1351 546 1349 q 575 1353 560 1353 l 634 1353 q 654 1351 648 1353 q 666 1342 660 1348 l 799 1208 q 805 1201 805 1203 q 800 1194 806 1199 l 777 1171 q 767 1164 769 1163 q 755 1170 764 1164 l 619 1271 q 585 1272 601 1284 l 448 1169 q 423 1174 436 1160 m 755 514 l 1153 514 q 1181 509 1174 514 q 1188 482 1188 504 l 1188 447 q 1183 428 1188 432 q 1162 424 1178 424 l 1072 424 q 1052 418 1056 424 q 1049 397 1049 413 l 1049 335 q 1048 302 1049 317 q 1044 272 1048 286 q 1001 175 1033 225 q 911 82 968 124 q 773 13 855 39 q 583 -14 692 -14 q 383 26 475 -14 q 222 137 290 65 q 115 307 153 209 q 76 521 76 405 q 119 735 76 637 q 235 905 161 833 q 403 1016 308 976 q 604 1056 499 1056 q 786 1024 709 1056 q 915 937 863 992 q 932 928 927 925 q 942 947 938 931 l 965 1017 q 972 1034 968 1026 q 985 1042 976 1042 l 1016 1042 q 1030 1037 1024 1042 q 1035 1024 1035 1033 l 1035 718 q 1032 697 1035 707 q 1017 688 1029 688 l 984 688 q 962 692 966 688 q 956 713 958 697 q 911 840 946 779 q 805 939 876 901 q 614 978 734 978 q 415 916 500 978 q 283 751 330 855 q 236 521 236 647 q 276 290 236 394 q 394 124 315 186 q 590 63 473 63 q 739 89 677 63 q 840 157 801 116 q 896 239 878 198 q 901 256 899 248 q 903 278 903 265 l 903 401 q 895 420 903 417 q 874 424 888 424 l 758 424 q 735 427 740 424 q 729 449 729 431 l 729 488 q 734 509 729 504 q 755 514 739 514 "},"Ğ":{"ha":1208,"x_min":76,"x_max":1188,"o":"m 601 1167 q 478 1212 512 1167 q 443 1333 444 1258 q 459 1346 443 1346 l 472 1346 q 485 1335 484 1346 q 519 1266 488 1288 q 601 1243 551 1243 q 681 1263 649 1243 q 719 1326 713 1283 q 720 1341 720 1335 q 733 1346 720 1346 l 748 1346 q 761 1343 759 1346 q 762 1329 763 1340 q 724 1211 759 1256 q 601 1167 690 1167 m 755 514 l 1153 514 q 1181 509 1174 514 q 1188 482 1188 504 l 1188 447 q 1183 428 1188 432 q 1162 424 1178 424 l 1072 424 q 1052 418 1056 424 q 1049 397 1049 413 l 1049 335 q 1048 302 1049 317 q 1044 272 1048 286 q 1001 175 1033 225 q 911 82 968 124 q 773 13 855 39 q 583 -14 692 -14 q 383 26 475 -14 q 222 137 290 65 q 115 307 153 209 q 76 521 76 405 q 119 735 76 637 q 235 905 161 833 q 403 1016 308 976 q 604 1056 499 1056 q 786 1024 709 1056 q 915 937 863 992 q 932 928 927 925 q 942 947 938 931 l 965 1017 q 972 1034 968 1026 q 985 1042 976 1042 l 1016 1042 q 1030 1037 1024 1042 q 1035 1024 1035 1033 l 1035 718 q 1032 697 1035 707 q 1017 688 1029 688 l 984 688 q 962 692 966 688 q 956 713 958 697 q 911 840 946 779 q 805 939 876 901 q 614 978 734 978 q 415 916 500 978 q 283 751 330 855 q 236 521 236 647 q 276 290 236 394 q 394 124 315 186 q 590 63 473 63 q 739 89 677 63 q 840 157 801 116 q 896 239 878 198 q 901 256 899 248 q 903 278 903 265 l 903 401 q 895 420 903 417 q 874 424 888 424 l 758 424 q 735 427 740 424 q 729 449 729 431 l 729 488 q 734 509 729 504 q 755 514 739 514 "},"Ġ":{"ha":1208,"x_min":76,"x_max":1188,"o":"m 604 1201 q 545 1226 570 1201 q 521 1285 521 1251 q 545 1344 521 1319 q 604 1368 570 1368 q 663 1344 639 1368 q 688 1285 688 1319 q 663 1226 688 1251 q 604 1201 639 1201 m 755 514 l 1153 514 q 1181 509 1174 514 q 1188 482 1188 504 l 1188 447 q 1183 428 1188 432 q 1162 424 1178 424 l 1072 424 q 1052 418 1056 424 q 1049 397 1049 413 l 1049 335 q 1048 302 1049 317 q 1044 272 1048 286 q 1001 175 1033 225 q 911 82 968 124 q 773 13 855 39 q 583 -14 692 -14 q 383 26 475 -14 q 222 137 290 65 q 115 307 153 209 q 76 521 76 405 q 119 735 76 637 q 235 905 161 833 q 403 1016 308 976 q 604 1056 499 1056 q 786 1024 709 1056 q 915 937 863 992 q 932 928 927 925 q 942 947 938 931 l 965 1017 q 972 1034 968 1026 q 985 1042 976 1042 l 1016 1042 q 1030 1037 1024 1042 q 1035 1024 1035 1033 l 1035 718 q 1032 697 1035 707 q 1017 688 1029 688 l 984 688 q 962 692 966 688 q 956 713 958 697 q 911 840 946 779 q 805 939 876 901 q 614 978 734 978 q 415 916 500 978 q 283 751 330 855 q 236 521 236 647 q 276 290 236 394 q 394 124 315 186 q 590 63 473 63 q 739 89 677 63 q 840 157 801 116 q 896 239 878 198 q 901 256 899 248 q 903 278 903 265 l 903 401 q 895 420 903 417 q 874 424 888 424 l 758 424 q 735 427 740 424 q 729 449 729 431 l 729 488 q 734 509 729 504 q 755 514 739 514 "},"Ģ":{"ha":1208,"x_min":76,"x_max":1188,"o":"m 510 -206 q 531 -159 510 -178 q 584 -140 553 -140 q 639 -167 617 -140 q 662 -256 662 -194 q 653 -313 662 -283 q 626 -368 644 -342 q 581 -412 608 -394 q 520 -433 555 -429 q 511 -432 514 -433 q 508 -424 508 -431 l 508 -400 q 522 -387 508 -390 q 568 -366 547 -383 q 601 -323 589 -349 q 609 -265 613 -297 q 605 -260 608 -258 q 597 -264 601 -261 q 584 -270 590 -269 q 569 -271 578 -271 q 525 -252 541 -271 q 510 -206 510 -233 m 755 514 l 1153 514 q 1181 509 1174 514 q 1188 482 1188 504 l 1188 447 q 1183 428 1188 432 q 1162 424 1178 424 l 1072 424 q 1052 418 1056 424 q 1049 397 1049 413 l 1049 335 q 1048 302 1049 317 q 1044 272 1048 286 q 1001 175 1033 225 q 911 82 968 124 q 773 13 855 39 q 583 -14 692 -14 q 383 26 475 -14 q 222 137 290 65 q 115 307 153 209 q 76 521 76 405 q 119 735 76 637 q 235 905 161 833 q 403 1016 308 976 q 604 1056 499 1056 q 786 1024 709 1056 q 915 937 863 992 q 932 928 927 925 q 942 947 938 931 l 965 1017 q 972 1034 968 1026 q 985 1042 976 1042 l 1016 1042 q 1030 1037 1024 1042 q 1035 1024 1035 1033 l 1035 718 q 1032 697 1035 707 q 1017 688 1029 688 l 984 688 q 962 692 966 688 q 956 713 958 697 q 911 840 946 779 q 805 939 876 901 q 614 978 734 978 q 415 916 500 978 q 283 751 330 855 q 236 521 236 647 q 276 290 236 394 q 394 124 315 186 q 590 63 473 63 q 739 89 677 63 q 840 157 801 116 q 896 239 878 198 q 901 256 899 248 q 903 278 903 265 l 903 401 q 895 420 903 417 q 874 424 888 424 l 758 424 q 735 427 740 424 q 729 449 729 431 l 729 488 q 734 509 729 504 q 755 514 739 514 "},"H":{"ha":1229,"x_min":52,"x_max":1177,"o":"m 337 935 l 337 617 q 343 583 337 590 q 376 576 349 576 l 856 576 q 888 585 883 576 q 892 621 892 593 l 892 929 q 889 958 892 951 q 863 965 885 965 l 749 965 q 730 972 735 965 q 726 992 726 979 l 726 1013 q 731 1036 726 1031 q 753 1042 735 1042 l 1149 1042 q 1172 1038 1166 1042 q 1177 1015 1177 1033 l 1177 989 q 1172 970 1177 974 q 1150 965 1166 965 l 1063 965 q 1032 961 1040 965 q 1024 933 1024 956 l 1024 100 q 1030 81 1024 85 q 1050 76 1035 76 l 1150 76 q 1170 73 1164 76 q 1177 54 1177 69 l 1177 31 q 1170 5 1177 9 q 1142 0 1163 0 l 753 0 q 730 6 735 0 q 726 31 726 11 l 726 51 q 729 71 726 66 q 746 76 732 76 l 863 76 q 888 84 883 76 q 892 111 892 92 l 892 467 q 886 494 892 489 q 858 500 879 500 l 369 500 q 343 495 349 500 q 337 471 337 491 l 337 104 q 341 82 337 88 q 363 76 346 76 l 481 76 q 499 72 494 76 q 503 53 503 68 l 503 35 q 498 6 503 11 q 469 0 492 0 l 80 0 q 57 5 63 0 q 52 28 52 10 l 52 47 q 57 71 52 66 q 81 76 63 76 l 176 76 q 199 80 193 76 q 205 100 205 83 l 205 938 q 199 960 205 955 q 178 965 194 965 l 76 965 q 56 972 59 965 q 52 997 52 979 l 52 1015 q 58 1037 52 1032 q 80 1042 65 1042 l 476 1042 q 497 1038 490 1042 q 503 1019 503 1035 l 503 992 q 499 970 503 975 q 478 965 494 965 l 364 965 q 342 960 347 965 q 337 935 337 954 "},"Ĥ":{"ha":1229,"x_min":52,"x_max":1177,"o":"m 430 1174 l 415 1190 q 407 1201 407 1198 q 415 1211 407 1203 l 545 1342 q 560 1351 553 1349 q 582 1353 567 1353 l 641 1353 q 661 1351 655 1353 q 673 1342 667 1348 l 806 1208 q 812 1201 812 1203 q 807 1194 813 1199 l 784 1171 q 774 1164 776 1163 q 762 1170 771 1164 l 626 1271 q 592 1272 608 1284 l 455 1169 q 430 1174 443 1160 m 337 935 l 337 617 q 343 583 337 590 q 376 576 349 576 l 856 576 q 888 585 883 576 q 892 621 892 593 l 892 929 q 889 958 892 951 q 863 965 885 965 l 749 965 q 730 972 735 965 q 726 992 726 979 l 726 1013 q 731 1036 726 1031 q 753 1042 735 1042 l 1149 1042 q 1172 1038 1166 1042 q 1177 1015 1177 1033 l 1177 989 q 1172 970 1177 974 q 1150 965 1166 965 l 1063 965 q 1032 961 1040 965 q 1024 933 1024 956 l 1024 100 q 1030 81 1024 85 q 1050 76 1035 76 l 1150 76 q 1170 73 1164 76 q 1177 54 1177 69 l 1177 31 q 1170 5 1177 9 q 1142 0 1163 0 l 753 0 q 730 6 735 0 q 726 31 726 11 l 726 51 q 729 71 726 66 q 746 76 732 76 l 863 76 q 888 84 883 76 q 892 111 892 92 l 892 467 q 886 494 892 489 q 858 500 879 500 l 369 500 q 343 495 349 500 q 337 471 337 491 l 337 104 q 341 82 337 88 q 363 76 346 76 l 481 76 q 499 72 494 76 q 503 53 503 68 l 503 35 q 498 6 503 11 q 469 0 492 0 l 80 0 q 57 5 63 0 q 52 28 52 10 l 52 47 q 57 71 52 66 q 81 76 63 76 l 176 76 q 199 80 193 76 q 205 100 205 83 l 205 938 q 199 960 205 955 q 178 965 194 965 l 76 965 q 56 972 59 965 q 52 997 52 979 l 52 1015 q 58 1037 52 1032 q 80 1042 65 1042 l 476 1042 q 497 1038 490 1042 q 503 1019 503 1035 l 503 992 q 499 970 503 975 q 478 965 494 965 l 364 965 q 342 960 347 965 q 337 935 337 954 "},"I":{"ha":576,"x_min":63,"x_max":514,"o":"m 347 940 l 347 107 q 353 83 347 90 q 374 76 358 76 l 499 76 q 511 70 508 76 q 514 54 514 64 l 514 22 q 507 5 514 10 q 486 0 501 0 l 90 0 q 69 5 76 0 q 63 22 63 9 l 63 57 q 69 72 63 68 q 94 76 75 76 l 168 76 q 201 82 186 76 q 215 111 215 88 l 215 942 q 213 960 215 956 q 194 965 210 965 l 86 965 q 68 970 73 965 q 63 986 63 975 l 63 1024 q 67 1040 63 1038 q 83 1042 72 1042 l 489 1042 q 509 1038 505 1042 q 514 1018 514 1034 l 514 994 q 506 971 514 976 q 485 965 498 965 l 374 965 q 352 961 357 965 q 347 940 347 958 "},"Ì":{"ha":576,"x_min":63,"x_max":514,"o":"m 299 1159 l 135 1255 q 109 1286 117 1265 q 116 1333 101 1308 q 142 1356 126 1349 q 177 1360 159 1363 q 208 1344 195 1358 l 342 1213 q 343 1188 355 1201 l 319 1163 q 310 1156 314 1157 q 299 1159 306 1154 m 347 940 l 347 107 q 353 83 347 90 q 374 76 358 76 l 499 76 q 511 70 508 76 q 514 54 514 64 l 514 22 q 507 5 514 10 q 486 0 501 0 l 90 0 q 69 5 76 0 q 63 22 63 9 l 63 57 q 69 72 63 68 q 94 76 75 76 l 168 76 q 201 82 186 76 q 215 111 215 88 l 215 942 q 213 960 215 956 q 194 965 210 965 l 86 965 q 68 970 73 965 q 63 986 63 975 l 63 1024 q 67 1040 63 1038 q 83 1042 72 1042 l 489 1042 q 509 1038 505 1042 q 514 1018 514 1034 l 514 994 q 506 971 514 976 q 485 965 498 965 l 374 965 q 352 961 357 965 q 347 940 347 958 "},"Í":{"ha":576,"x_min":63,"x_max":514,"o":"m 244 1165 l 220 1190 q 220 1212 209 1201 l 356 1344 q 387 1360 369 1358 q 422 1356 405 1363 q 448 1333 439 1349 q 455 1286 463 1308 q 429 1255 447 1265 l 271 1163 q 257 1157 262 1157 q 244 1165 251 1156 m 347 940 l 347 107 q 353 83 347 90 q 374 76 358 76 l 499 76 q 511 70 508 76 q 514 54 514 64 l 514 22 q 507 5 514 10 q 486 0 501 0 l 90 0 q 69 5 76 0 q 63 22 63 9 l 63 57 q 69 72 63 68 q 94 76 75 76 l 168 76 q 201 82 186 76 q 215 111 215 88 l 215 942 q 213 960 215 956 q 194 965 210 965 l 86 965 q 68 970 73 965 q 63 986 63 975 l 63 1024 q 67 1040 63 1038 q 83 1042 72 1042 l 489 1042 q 509 1038 505 1042 q 514 1018 514 1034 l 514 994 q 506 971 514 976 q 485 965 498 965 l 374 965 q 352 961 357 965 q 347 940 347 958 "},"Î":{"ha":576,"x_min":63,"x_max":514,"o":"m 103 1174 l 88 1190 q 81 1201 81 1198 q 88 1211 81 1203 l 219 1342 q 233 1351 226 1349 q 256 1353 240 1353 l 315 1353 q 334 1351 328 1353 q 347 1342 340 1348 l 480 1208 q 486 1201 485 1203 q 481 1194 486 1199 l 458 1171 q 447 1164 450 1163 q 435 1170 444 1164 l 300 1271 q 265 1272 282 1284 l 128 1169 q 103 1174 117 1160 m 347 940 l 347 107 q 353 83 347 90 q 374 76 358 76 l 499 76 q 511 70 508 76 q 514 54 514 64 l 514 22 q 507 5 514 10 q 486 0 501 0 l 90 0 q 69 5 76 0 q 63 22 63 9 l 63 57 q 69 72 63 68 q 94 76 75 76 l 168 76 q 201 82 186 76 q 215 111 215 88 l 215 942 q 213 960 215 956 q 194 965 210 965 l 86 965 q 68 970 73 965 q 63 986 63 975 l 63 1024 q 67 1040 63 1038 q 83 1042 72 1042 l 489 1042 q 509 1038 505 1042 q 514 1018 514 1034 l 514 994 q 506 971 514 976 q 485 965 498 965 l 374 965 q 352 961 357 965 q 347 940 347 958 "},"Ï":{"ha":576,"x_min":63,"x_max":514,"o":"m 392 1174 q 345 1193 365 1174 q 326 1240 326 1213 q 345 1288 326 1268 q 392 1308 365 1308 q 440 1288 420 1308 q 459 1240 459 1268 q 440 1193 459 1213 q 392 1174 420 1174 m 170 1174 q 123 1193 142 1174 q 103 1240 103 1213 q 123 1288 103 1268 q 170 1308 142 1308 q 217 1288 198 1308 q 237 1240 237 1268 q 217 1193 237 1213 q 170 1174 198 1174 m 347 940 l 347 107 q 353 83 347 90 q 374 76 358 76 l 499 76 q 511 70 508 76 q 514 54 514 64 l 514 22 q 507 5 514 10 q 486 0 501 0 l 90 0 q 69 5 76 0 q 63 22 63 9 l 63 57 q 69 72 63 68 q 94 76 75 76 l 168 76 q 201 82 186 76 q 215 111 215 88 l 215 942 q 213 960 215 956 q 194 965 210 965 l 86 965 q 68 970 73 965 q 63 986 63 975 l 63 1024 q 67 1040 63 1038 q 83 1042 72 1042 l 489 1042 q 509 1038 505 1042 q 514 1018 514 1034 l 514 994 q 506 971 514 976 q 485 965 498 965 l 374 965 q 352 961 357 965 q 347 940 347 958 "},"Ĩ":{"ha":576,"x_min":43,"x_max":527,"o":"m 386 1167 q 314 1183 342 1167 q 263 1222 285 1200 q 224 1258 245 1239 q 172 1276 203 1276 q 114 1254 133 1276 q 94 1190 96 1232 q 81 1181 94 1181 l 58 1181 q 45 1186 47 1181 q 44 1201 43 1191 q 68 1281 48 1246 q 121 1336 88 1316 q 197 1357 154 1357 q 270 1341 241 1357 q 319 1302 299 1324 q 352 1266 334 1285 q 398 1247 370 1247 q 475 1328 469 1247 q 478 1340 476 1336 q 490 1343 481 1343 l 513 1343 q 525 1340 523 1343 q 526 1328 527 1336 q 510 1240 525 1276 q 464 1185 494 1204 q 386 1167 434 1167 m 347 940 l 347 107 q 353 83 347 90 q 374 76 358 76 l 499 76 q 511 70 508 76 q 514 54 514 64 l 514 22 q 507 5 514 10 q 486 0 501 0 l 90 0 q 69 5 76 0 q 63 22 63 9 l 63 57 q 69 72 63 68 q 94 76 75 76 l 168 76 q 201 82 186 76 q 215 111 215 88 l 215 942 q 213 960 215 956 q 194 965 210 965 l 86 965 q 68 970 73 965 q 63 986 63 975 l 63 1024 q 67 1040 63 1038 q 83 1042 72 1042 l 489 1042 q 509 1038 505 1042 q 514 1018 514 1034 l 514 994 q 506 971 514 976 q 485 965 498 965 l 374 965 q 352 961 357 965 q 347 940 347 958 "},"Ī":{"ha":576,"x_min":63,"x_max":514,"o":"m 115 1189 l 115 1212 q 118 1226 115 1222 q 129 1231 120 1231 l 425 1231 q 443 1227 438 1231 q 449 1209 449 1223 l 449 1188 q 447 1172 449 1176 q 433 1167 444 1167 l 140 1167 q 121 1170 126 1167 q 115 1189 115 1174 m 347 940 l 347 107 q 353 83 347 90 q 374 76 358 76 l 499 76 q 511 70 508 76 q 514 54 514 64 l 514 22 q 507 5 514 10 q 486 0 501 0 l 90 0 q 69 5 76 0 q 63 22 63 9 l 63 57 q 69 72 63 68 q 94 76 75 76 l 168 76 q 201 82 186 76 q 215 111 215 88 l 215 942 q 213 960 215 956 q 194 965 210 965 l 86 965 q 68 970 73 965 q 63 986 63 975 l 63 1024 q 67 1040 63 1038 q 83 1042 72 1042 l 489 1042 q 509 1038 505 1042 q 514 1018 514 1034 l 514 994 q 506 971 514 976 q 485 965 498 965 l 374 965 q 352 961 357 965 q 347 940 347 958 "},"Ĭ":{"ha":576,"x_min":63,"x_max":514,"o":"m 282 1167 q 159 1212 192 1167 q 124 1333 125 1258 q 140 1346 124 1346 l 153 1346 q 165 1335 165 1346 q 200 1266 169 1288 q 282 1243 231 1243 q 361 1263 330 1243 q 399 1326 393 1283 q 401 1341 401 1335 q 413 1346 401 1346 l 428 1346 q 441 1343 440 1346 q 442 1329 443 1340 q 405 1211 440 1256 q 282 1167 370 1167 m 347 940 l 347 107 q 353 83 347 90 q 374 76 358 76 l 499 76 q 511 70 508 76 q 514 54 514 64 l 514 22 q 507 5 514 10 q 486 0 501 0 l 90 0 q 69 5 76 0 q 63 22 63 9 l 63 57 q 69 72 63 68 q 94 76 75 76 l 168 76 q 201 82 186 76 q 215 111 215 88 l 215 942 q 213 960 215 956 q 194 965 210 965 l 86 965 q 68 970 73 965 q 63 986 63 975 l 63 1024 q 67 1040 63 1038 q 83 1042 72 1042 l 489 1042 q 509 1038 505 1042 q 514 1018 514 1034 l 514 994 q 506 971 514 976 q 485 965 498 965 l 374 965 q 352 961 357 965 q 347 940 347 958 "},"Į":{"ha":576,"x_min":63,"x_max":514,"o":"m 267 -291 q 163 -268 208 -291 q 117 -185 117 -245 q 134 -128 117 -156 q 178 -74 151 -100 q 236 -26 205 -49 q 294 16 267 -3 q 315 26 306 24 q 328 23 324 28 q 328 10 333 17 q 315 -8 324 2 q 283 -48 299 -26 q 257 -97 267 -71 q 247 -151 247 -122 q 261 -200 247 -177 q 313 -224 276 -224 q 357 -211 338 -224 q 386 -181 375 -198 q 406 -176 395 -167 l 416 -183 q 423 -192 423 -188 q 419 -203 423 -195 q 363 -266 398 -241 q 267 -291 328 -291 m 347 940 l 347 107 q 353 83 347 90 q 374 76 358 76 l 499 76 q 511 70 508 76 q 514 54 514 64 l 514 22 q 507 5 514 10 q 486 0 501 0 l 90 0 q 69 5 76 0 q 63 22 63 9 l 63 57 q 69 72 63 68 q 94 76 75 76 l 168 76 q 201 82 186 76 q 215 111 215 88 l 215 942 q 213 960 215 956 q 194 965 210 965 l 86 965 q 68 970 73 965 q 63 986 63 975 l 63 1024 q 67 1040 63 1038 q 83 1042 72 1042 l 489 1042 q 509 1038 505 1042 q 514 1018 514 1034 l 514 994 q 506 971 514 976 q 485 965 498 965 l 374 965 q 352 961 357 965 q 347 940 347 958 "},"İ":{"ha":576,"x_min":63,"x_max":514,"o":"m 285 1201 q 226 1226 251 1201 q 201 1285 201 1251 q 226 1344 201 1319 q 285 1368 251 1368 q 344 1344 319 1368 q 368 1285 368 1319 q 344 1226 368 1251 q 285 1201 319 1201 m 347 940 l 347 107 q 353 83 347 90 q 374 76 358 76 l 499 76 q 511 70 508 76 q 514 54 514 64 l 514 22 q 507 5 514 10 q 486 0 501 0 l 90 0 q 69 5 76 0 q 63 22 63 9 l 63 57 q 69 72 63 68 q 94 76 75 76 l 168 76 q 201 82 186 76 q 215 111 215 88 l 215 942 q 213 960 215 956 q 194 965 210 965 l 86 965 q 68 970 73 965 q 63 986 63 975 l 63 1024 q 67 1040 63 1038 q 83 1042 72 1042 l 489 1042 q 509 1038 505 1042 q 514 1018 514 1034 l 514 994 q 506 971 514 976 q 485 965 498 965 l 374 965 q 352 961 357 965 q 347 940 347 958 "},"J":{"ha":817,"x_min":14,"x_max":786,"o":"m 14 201 q 48 300 14 266 q 124 333 82 333 q 186 311 160 333 q 213 251 213 289 q 203 201 213 217 q 182 176 194 185 q 161 157 170 167 q 151 125 151 147 q 161 99 151 113 q 200 73 172 84 q 286 63 229 63 q 394 90 349 63 q 464 176 440 117 q 488 333 488 236 l 488 924 q 483 957 488 948 q 455 965 478 965 l 324 965 q 298 972 303 965 q 293 1000 293 978 l 293 1014 q 301 1038 293 1034 q 328 1042 309 1042 l 758 1042 q 778 1039 770 1042 q 786 1022 786 1036 l 786 989 q 783 970 786 975 q 766 965 780 965 l 651 965 q 624 959 628 965 q 619 929 619 952 l 619 375 q 583 176 619 264 q 472 37 546 88 q 286 -14 398 -14 q 131 20 191 -14 q 42 103 71 53 q 14 201 14 153 "},"Ĵ":{"ha":817,"x_min":14,"x_max":786,"o":"m 333 1174 l 317 1190 q 310 1201 310 1198 q 317 1211 310 1203 l 448 1342 q 463 1351 456 1349 q 485 1353 469 1353 l 544 1353 q 564 1351 558 1353 q 576 1342 569 1348 l 709 1208 q 715 1201 715 1203 q 710 1194 715 1199 l 687 1171 q 676 1164 679 1163 q 665 1170 674 1164 l 529 1271 q 494 1272 511 1284 l 358 1169 q 333 1174 346 1160 m 14 201 q 48 300 14 266 q 124 333 82 333 q 186 311 160 333 q 213 251 213 289 q 203 201 213 217 q 182 176 194 185 q 161 157 170 167 q 151 125 151 147 q 161 99 151 113 q 200 73 172 84 q 286 63 229 63 q 394 90 349 63 q 464 176 440 117 q 488 333 488 236 l 488 924 q 483 957 488 948 q 455 965 478 965 l 324 965 q 298 972 303 965 q 293 1000 293 978 l 293 1014 q 301 1038 293 1034 q 328 1042 309 1042 l 758 1042 q 778 1039 770 1042 q 786 1022 786 1036 l 786 989 q 783 970 786 975 q 766 965 780 965 l 651 965 q 624 959 628 965 q 619 929 619 952 l 619 375 q 583 176 619 264 q 472 37 546 88 q 286 -14 398 -14 q 131 20 191 -14 q 42 103 71 53 q 14 201 14 153 "},"K":{"ha":1212,"x_min":52,"x_max":1212,"o":"m 52 26 l 52 54 q 57 72 52 68 q 74 76 61 76 l 176 76 q 200 83 196 76 q 205 108 205 90 l 205 943 q 202 963 205 960 q 183 965 199 965 l 74 965 q 56 967 59 965 q 52 985 52 969 l 52 1021 q 56 1038 52 1033 q 72 1042 60 1042 l 483 1042 q 499 1038 494 1042 q 503 1021 503 1034 l 503 994 q 497 970 503 974 q 472 965 490 965 l 370 965 q 342 958 347 965 q 337 926 337 951 l 337 474 q 341 440 337 444 q 364 455 346 436 l 834 942 q 842 959 846 953 q 815 965 838 965 l 733 965 q 709 971 714 965 q 705 994 705 977 l 705 1017 q 711 1038 705 1034 q 734 1042 718 1042 l 1097 1042 q 1117 1036 1113 1042 q 1122 1014 1122 1031 l 1122 996 q 1117 971 1122 976 q 1094 965 1113 965 l 998 965 q 961 959 972 965 q 938 942 950 953 l 648 643 q 637 624 638 632 q 646 604 637 616 l 1038 101 q 1058 83 1048 89 q 1091 76 1067 76 l 1184 76 q 1207 72 1201 76 q 1212 49 1212 67 l 1212 24 q 1209 3 1212 6 q 1188 0 1206 0 l 777 0 q 758 5 762 0 q 753 24 753 10 l 753 46 q 758 70 753 65 q 780 76 762 76 l 851 76 q 879 84 876 76 q 872 104 882 92 l 566 508 q 544 526 553 526 q 521 513 535 527 l 353 340 q 340 320 342 329 q 337 288 337 311 l 337 104 q 342 81 337 86 q 366 76 347 76 l 478 76 q 499 71 495 76 q 503 50 503 66 l 503 28 q 499 5 503 10 q 477 0 494 0 l 76 0 q 56 5 60 0 q 52 26 52 10 "},"Ķ":{"ha":1212,"x_min":52,"x_max":1212,"o":"m 547 -206 q 568 -159 547 -178 q 621 -140 590 -140 q 676 -167 653 -140 q 699 -256 699 -194 q 690 -313 699 -283 q 663 -368 681 -342 q 618 -412 644 -394 q 557 -433 592 -429 q 548 -432 551 -433 q 544 -424 544 -431 l 544 -400 q 558 -387 544 -390 q 605 -366 583 -383 q 638 -323 626 -349 q 646 -265 649 -297 q 642 -260 645 -258 q 634 -264 638 -261 q 621 -270 627 -269 q 606 -271 615 -271 q 562 -252 578 -271 q 547 -206 547 -233 m 52 26 l 52 54 q 57 72 52 68 q 74 76 61 76 l 176 76 q 200 83 196 76 q 205 108 205 90 l 205 943 q 202 963 205 960 q 183 965 199 965 l 74 965 q 56 967 59 965 q 52 985 52 969 l 52 1021 q 56 1038 52 1033 q 72 1042 60 1042 l 483 1042 q 499 1038 494 1042 q 503 1021 503 1034 l 503 994 q 497 970 503 974 q 472 965 490 965 l 370 965 q 342 958 347 965 q 337 926 337 951 l 337 474 q 341 440 337 444 q 364 455 346 436 l 834 942 q 842 959 846 953 q 815 965 838 965 l 733 965 q 709 971 714 965 q 705 994 705 977 l 705 1017 q 711 1038 705 1034 q 734 1042 718 1042 l 1097 1042 q 1117 1036 1113 1042 q 1122 1014 1122 1031 l 1122 996 q 1117 971 1122 976 q 1094 965 1113 965 l 998 965 q 961 959 972 965 q 938 942 950 953 l 648 643 q 637 624 638 632 q 646 604 637 616 l 1038 101 q 1058 83 1048 89 q 1091 76 1067 76 l 1184 76 q 1207 72 1201 76 q 1212 49 1212 67 l 1212 24 q 1209 3 1212 6 q 1188 0 1206 0 l 777 0 q 758 5 762 0 q 753 24 753 10 l 753 46 q 758 70 753 65 q 780 76 762 76 l 851 76 q 879 84 876 76 q 872 104 882 92 l 566 508 q 544 526 553 526 q 521 513 535 527 l 353 340 q 340 320 342 329 q 337 288 337 311 l 337 104 q 342 81 337 86 q 366 76 347 76 l 478 76 q 499 71 495 76 q 503 50 503 66 l 503 28 q 499 5 503 10 q 477 0 494 0 l 76 0 q 56 5 60 0 q 52 26 52 10 "},"L":{"ha":1010,"x_min":52,"x_max":955,"o":"m 176 965 l 74 965 q 56 970 60 965 q 52 989 52 974 l 52 1022 q 57 1038 52 1035 q 75 1042 62 1042 l 461 1042 q 484 1038 478 1042 q 490 1018 490 1035 l 490 989 q 484 969 490 974 q 465 965 479 965 l 365 965 q 343 960 350 965 q 337 938 337 956 l 337 99 q 344 80 337 83 q 366 76 351 76 l 649 76 q 793 105 742 76 q 864 190 844 133 q 885 335 885 247 q 888 349 885 344 q 900 354 890 354 l 929 354 q 949 351 943 354 q 955 335 955 349 l 955 32 q 951 6 955 13 q 928 0 947 0 l 82 0 q 59 4 66 0 q 52 25 52 8 l 52 54 q 55 72 52 67 q 69 76 58 76 l 172 76 q 199 81 192 76 q 205 104 205 85 l 205 939 q 199 961 205 956 q 176 965 194 965 "},"Ĺ":{"ha":1010,"x_min":52,"x_max":955,"o":"m 228 1165 l 205 1190 q 205 1212 194 1201 l 341 1344 q 372 1360 354 1358 q 407 1356 390 1363 q 433 1333 424 1349 q 440 1286 448 1308 q 414 1255 432 1265 l 256 1163 q 241 1157 247 1157 q 228 1165 236 1156 m 176 965 l 74 965 q 56 970 60 965 q 52 989 52 974 l 52 1022 q 57 1038 52 1035 q 75 1042 62 1042 l 461 1042 q 484 1038 478 1042 q 490 1018 490 1035 l 490 989 q 484 969 490 974 q 465 965 479 965 l 365 965 q 343 960 350 965 q 337 938 337 956 l 337 99 q 344 80 337 83 q 366 76 351 76 l 649 76 q 793 105 742 76 q 864 190 844 133 q 885 335 885 247 q 888 349 885 344 q 900 354 890 354 l 929 354 q 949 351 943 354 q 955 335 955 349 l 955 32 q 951 6 955 13 q 928 0 947 0 l 82 0 q 59 4 66 0 q 52 25 52 8 l 52 54 q 55 72 52 67 q 69 76 58 76 l 172 76 q 199 81 192 76 q 205 104 205 85 l 205 939 q 199 961 205 956 q 176 965 194 965 "},"Ļ":{"ha":1010,"x_min":52,"x_max":955,"o":"m 405 -206 q 426 -159 405 -178 q 479 -140 448 -140 q 534 -167 512 -140 q 557 -256 557 -194 q 548 -313 557 -283 q 521 -368 539 -342 q 476 -412 503 -394 q 415 -433 450 -429 q 406 -432 409 -433 q 403 -424 403 -431 l 403 -400 q 417 -387 403 -390 q 463 -366 442 -383 q 496 -323 484 -349 q 504 -265 508 -297 q 500 -260 503 -258 q 492 -264 497 -261 q 479 -270 485 -269 q 464 -271 473 -271 q 420 -252 436 -271 q 405 -206 405 -233 m 176 965 l 74 965 q 56 970 60 965 q 52 989 52 974 l 52 1022 q 57 1038 52 1035 q 75 1042 62 1042 l 461 1042 q 484 1038 478 1042 q 490 1018 490 1035 l 490 989 q 484 969 490 974 q 465 965 479 965 l 365 965 q 343 960 350 965 q 337 938 337 956 l 337 99 q 344 80 337 83 q 366 76 351 76 l 649 76 q 793 105 742 76 q 864 190 844 133 q 885 335 885 247 q 888 349 885 344 q 900 354 890 354 l 929 354 q 949 351 943 354 q 955 335 955 349 l 955 32 q 951 6 955 13 q 928 0 947 0 l 82 0 q 59 4 66 0 q 52 25 52 8 l 52 54 q 55 72 52 67 q 69 76 58 76 l 172 76 q 199 81 192 76 q 205 104 205 85 l 205 939 q 199 961 205 956 q 176 965 194 965 "},"Ľ":{"ha":1010,"x_min":52,"x_max":955,"o":"m 708 974 q 720 1015 708 997 q 753 1045 732 1034 q 801 1056 774 1056 q 870 1022 842 1056 q 898 911 898 988 q 886 839 898 876 q 852 769 875 802 q 797 715 830 737 q 721 690 764 694 q 709 690 713 689 q 705 700 705 691 l 705 730 q 710 742 705 740 q 722 746 715 745 q 781 772 754 751 q 822 826 807 793 q 832 899 836 860 q 827 906 831 908 q 817 900 822 903 q 800 893 808 894 q 781 892 792 892 q 727 916 747 892 q 708 974 708 940 m 176 965 l 74 965 q 56 970 60 965 q 52 989 52 974 l 52 1022 q 57 1038 52 1035 q 75 1042 62 1042 l 461 1042 q 484 1038 478 1042 q 490 1018 490 1035 l 490 989 q 484 969 490 974 q 465 965 479 965 l 365 965 q 343 960 350 965 q 337 938 337 956 l 337 99 q 344 80 337 83 q 366 76 351 76 l 649 76 q 793 105 742 76 q 864 190 844 133 q 885 335 885 247 q 888 349 885 344 q 900 354 890 354 l 929 354 q 949 351 943 354 q 955 335 955 349 l 955 32 q 951 6 955 13 q 928 0 947 0 l 82 0 q 59 4 66 0 q 52 25 52 8 l 52 54 q 55 72 52 67 q 69 76 58 76 l 172 76 q 199 81 192 76 q 205 104 205 85 l 205 939 q 199 961 205 956 q 176 965 194 965 "},"M":{"ha":1438,"x_min":49,"x_max":1389,"o":"m 221 965 l 114 965 q 95 969 100 965 q 90 986 90 973 l 90 1018 q 97 1038 90 1035 q 119 1042 104 1042 l 406 1042 q 427 1038 421 1042 q 434 1028 433 1035 q 440 1010 436 1021 l 701 221 q 710 188 708 201 q 718 174 713 174 q 725 182 723 174 q 733 207 728 190 l 1001 1018 q 1008 1037 1006 1032 q 1031 1042 1011 1042 l 1322 1042 q 1342 1037 1338 1042 q 1347 1017 1347 1033 l 1347 1000 q 1342 972 1347 978 q 1315 965 1338 965 l 1227 965 q 1203 956 1208 965 q 1199 928 1198 946 l 1232 106 q 1238 82 1233 88 q 1261 76 1242 76 l 1363 76 q 1386 73 1383 76 q 1389 50 1389 70 l 1389 29 q 1385 6 1389 12 q 1364 0 1381 0 l 971 0 q 946 5 955 0 q 938 26 938 9 l 938 43 q 941 70 938 63 q 965 76 945 76 l 1074 76 q 1097 83 1092 76 q 1101 106 1101 89 l 1076 812 q 1076 857 1076 830 q 1076 906 1076 885 q 1072 928 1076 928 q 1057 908 1065 928 q 1042 861 1049 888 q 1028 814 1035 834 l 758 11 q 749 -8 754 -1 q 725 -14 743 -14 l 693 -14 q 661 -4 668 -14 q 649 24 654 6 l 367 853 q 358 889 362 867 q 350 927 355 910 q 336 944 345 944 q 331 932 333 944 q 327 888 328 920 l 296 122 q 303 85 295 93 q 342 76 312 76 l 426 76 q 452 72 447 76 q 458 46 458 67 l 458 28 q 450 5 458 10 q 422 0 441 0 l 79 0 q 54 5 60 0 q 49 28 49 9 l 49 47 q 54 72 49 67 q 78 76 59 76 l 174 76 q 198 84 191 76 q 206 107 206 92 l 246 938 q 242 958 247 951 q 221 965 237 965 "},"N":{"ha":1215,"x_min":56,"x_max":1188,"o":"m 163 965 l 79 965 q 60 970 64 965 q 56 990 56 976 l 56 1010 q 59 1035 56 1028 q 81 1042 63 1042 l 292 1042 q 343 1033 332 1042 q 369 1003 353 1025 l 918 283 q 942 270 932 265 q 951 317 951 276 l 951 933 q 944 960 951 956 q 915 965 938 965 l 847 965 q 815 967 832 965 q 799 987 799 969 l 799 1002 q 805 1032 799 1023 q 832 1042 810 1042 l 1153 1042 q 1177 1039 1166 1042 q 1188 1022 1188 1037 l 1188 996 q 1184 972 1188 978 q 1163 965 1181 965 l 1075 965 q 1048 959 1053 965 q 1042 930 1042 953 l 1042 17 q 1039 -5 1042 5 q 1022 -14 1036 -14 l 1018 -14 q 994 -10 1002 -14 q 980 3 987 -6 l 328 851 q 302 866 313 871 q 292 810 292 862 l 292 106 q 297 82 292 87 q 322 76 302 76 l 428 76 q 448 70 444 76 q 451 48 451 63 l 451 27 q 445 5 451 9 q 422 0 440 0 l 85 0 q 61 4 67 0 q 56 26 56 8 l 56 51 q 64 73 56 69 q 88 76 72 76 l 163 76 q 194 82 188 76 q 201 112 201 88 l 201 931 q 194 960 201 956 q 163 965 187 965 "},"Ñ":{"ha":1215,"x_min":56,"x_max":1188,"o":"m 726 1167 q 654 1183 683 1167 q 603 1222 625 1200 q 564 1258 585 1239 q 512 1276 543 1276 q 455 1254 473 1276 q 435 1190 436 1232 q 421 1181 434 1181 l 399 1181 q 385 1186 387 1181 q 384 1201 383 1191 q 408 1281 388 1246 q 461 1336 428 1316 q 538 1357 494 1357 q 610 1341 581 1357 q 659 1302 639 1324 q 692 1266 674 1285 q 738 1247 710 1247 q 815 1328 810 1247 q 818 1340 816 1336 q 831 1343 821 1343 l 853 1343 q 865 1340 863 1343 q 867 1328 867 1336 q 850 1240 865 1276 q 805 1185 835 1204 q 726 1167 774 1167 m 163 965 l 79 965 q 60 970 64 965 q 56 990 56 976 l 56 1010 q 59 1035 56 1028 q 81 1042 63 1042 l 292 1042 q 343 1033 332 1042 q 369 1003 353 1025 l 918 283 q 942 270 932 265 q 951 317 951 276 l 951 933 q 944 960 951 956 q 915 965 938 965 l 847 965 q 815 967 832 965 q 799 987 799 969 l 799 1002 q 805 1032 799 1023 q 832 1042 810 1042 l 1153 1042 q 1177 1039 1166 1042 q 1188 1022 1188 1037 l 1188 996 q 1184 972 1188 978 q 1163 965 1181 965 l 1075 965 q 1048 959 1053 965 q 1042 930 1042 953 l 1042 17 q 1039 -5 1042 5 q 1022 -14 1036 -14 l 1018 -14 q 994 -10 1002 -14 q 980 3 987 -6 l 328 851 q 302 866 313 871 q 292 810 292 862 l 292 106 q 297 82 292 87 q 322 76 302 76 l 428 76 q 448 70 444 76 q 451 48 451 63 l 451 27 q 445 5 451 9 q 422 0 440 0 l 85 0 q 61 4 67 0 q 56 26 56 8 l 56 51 q 64 73 56 69 q 88 76 72 76 l 163 76 q 194 82 188 76 q 201 112 201 88 l 201 931 q 194 960 201 956 q 163 965 187 965 "},"Ń":{"ha":1215,"x_min":56,"x_max":1188,"o":"m 584 1165 l 560 1190 q 560 1212 549 1201 l 697 1344 q 727 1360 710 1358 q 762 1356 745 1363 q 788 1333 779 1349 q 795 1286 803 1308 q 769 1255 788 1265 l 611 1163 q 597 1157 602 1157 q 584 1165 592 1156 m 163 965 l 79 965 q 60 970 64 965 q 56 990 56 976 l 56 1010 q 59 1035 56 1028 q 81 1042 63 1042 l 292 1042 q 343 1033 332 1042 q 369 1003 353 1025 l 918 283 q 942 270 932 265 q 951 317 951 276 l 951 933 q 944 960 951 956 q 915 965 938 965 l 847 965 q 815 967 832 965 q 799 987 799 969 l 799 1002 q 805 1032 799 1023 q 832 1042 810 1042 l 1153 1042 q 1177 1039 1166 1042 q 1188 1022 1188 1037 l 1188 996 q 1184 972 1188 978 q 1163 965 1181 965 l 1075 965 q 1048 959 1053 965 q 1042 930 1042 953 l 1042 17 q 1039 -5 1042 5 q 1022 -14 1036 -14 l 1018 -14 q 994 -10 1002 -14 q 980 3 987 -6 l 328 851 q 302 866 313 871 q 292 810 292 862 l 292 106 q 297 82 292 87 q 322 76 302 76 l 428 76 q 448 70 444 76 q 451 48 451 63 l 451 27 q 445 5 451 9 q 422 0 440 0 l 85 0 q 61 4 67 0 q 56 26 56 8 l 56 51 q 64 73 56 69 q 88 76 72 76 l 163 76 q 194 82 188 76 q 201 112 201 88 l 201 931 q 194 960 201 956 q 163 965 187 965 "},"Ņ":{"ha":1215,"x_min":56,"x_max":1188,"o":"m 502 -206 q 524 -159 502 -178 q 576 -140 545 -140 q 632 -167 609 -140 q 654 -256 654 -194 q 645 -313 654 -283 q 618 -368 636 -342 q 574 -412 600 -394 q 513 -433 547 -429 q 503 -432 506 -433 q 500 -424 500 -431 l 500 -400 q 514 -387 500 -390 q 560 -366 539 -383 q 593 -323 581 -349 q 601 -265 605 -297 q 597 -260 601 -258 q 590 -264 594 -261 q 576 -270 583 -269 q 561 -271 570 -271 q 518 -252 533 -271 q 502 -206 502 -233 m 163 965 l 79 965 q 60 970 64 965 q 56 990 56 976 l 56 1010 q 59 1035 56 1028 q 81 1042 63 1042 l 292 1042 q 343 1033 332 1042 q 369 1003 353 1025 l 918 283 q 942 270 932 265 q 951 317 951 276 l 951 933 q 944 960 951 956 q 915 965 938 965 l 847 965 q 815 967 832 965 q 799 987 799 969 l 799 1002 q 805 1032 799 1023 q 832 1042 810 1042 l 1153 1042 q 1177 1039 1166 1042 q 1188 1022 1188 1037 l 1188 996 q 1184 972 1188 978 q 1163 965 1181 965 l 1075 965 q 1048 959 1053 965 q 1042 930 1042 953 l 1042 17 q 1039 -5 1042 5 q 1022 -14 1036 -14 l 1018 -14 q 994 -10 1002 -14 q 980 3 987 -6 l 328 851 q 302 866 313 871 q 292 810 292 862 l 292 106 q 297 82 292 87 q 322 76 302 76 l 428 76 q 448 70 444 76 q 451 48 451 63 l 451 27 q 445 5 451 9 q 422 0 440 0 l 85 0 q 61 4 67 0 q 56 26 56 8 l 56 51 q 64 73 56 69 q 88 76 72 76 l 163 76 q 194 82 188 76 q 201 112 201 88 l 201 931 q 194 960 201 956 q 163 965 187 965 "},"Ň":{"ha":1215,"x_min":56,"x_max":1188,"o":"m 547 1195 l 433 1310 q 423 1325 424 1319 q 431 1338 421 1330 l 443 1347 q 459 1355 454 1356 q 476 1346 465 1353 l 585 1275 q 622 1261 606 1262 q 658 1275 638 1261 l 774 1356 q 790 1361 785 1363 q 804 1349 795 1359 l 811 1344 q 823 1329 821 1335 q 815 1314 824 1324 l 692 1190 q 679 1178 684 1183 q 657 1174 674 1174 l 601 1174 q 568 1180 580 1174 q 547 1195 557 1185 m 163 965 l 79 965 q 60 970 64 965 q 56 990 56 976 l 56 1010 q 59 1035 56 1028 q 81 1042 63 1042 l 292 1042 q 343 1033 332 1042 q 369 1003 353 1025 l 918 283 q 942 270 932 265 q 951 317 951 276 l 951 933 q 944 960 951 956 q 915 965 938 965 l 847 965 q 815 967 832 965 q 799 987 799 969 l 799 1002 q 805 1032 799 1023 q 832 1042 810 1042 l 1153 1042 q 1177 1039 1166 1042 q 1188 1022 1188 1037 l 1188 996 q 1184 972 1188 978 q 1163 965 1181 965 l 1075 965 q 1048 959 1053 965 q 1042 930 1042 953 l 1042 17 q 1039 -5 1042 5 q 1022 -14 1036 -14 l 1018 -14 q 994 -10 1002 -14 q 980 3 987 -6 l 328 851 q 302 866 313 871 q 292 810 292 862 l 292 106 q 297 82 292 87 q 322 76 302 76 l 428 76 q 448 70 444 76 q 451 48 451 63 l 451 27 q 445 5 451 9 q 422 0 440 0 l 85 0 q 61 4 67 0 q 56 26 56 8 l 56 51 q 64 73 56 69 q 88 76 72 76 l 163 76 q 194 82 188 76 q 201 112 201 88 l 201 931 q 194 960 201 956 q 163 965 187 965 "},"O":{"ha":1153,"x_min":76,"x_max":1076,"o":"m 76 521 q 111 729 76 632 q 210 899 145 826 q 368 1014 275 973 q 576 1056 460 1056 q 785 1014 692 1056 q 943 899 878 973 q 1042 729 1008 826 q 1076 521 1076 632 q 1040 313 1076 410 q 938 142 1004 216 q 779 27 871 69 q 576 -14 688 -14 q 368 27 460 -14 q 210 142 275 69 q 111 313 145 216 q 76 521 76 410 m 236 521 q 256 342 236 426 q 316 193 275 258 q 421 92 356 129 q 576 56 486 56 q 738 92 672 56 q 842 193 803 129 q 899 342 882 258 q 917 521 917 426 q 897 700 917 616 q 837 848 878 784 q 732 949 797 913 q 576 986 667 986 q 421 949 486 986 q 316 848 356 913 q 256 700 275 784 q 236 521 236 616 "},"Ò":{"ha":1153,"x_min":76,"x_max":1076,"o":"m 590 1159 l 426 1255 q 401 1286 409 1265 q 408 1333 392 1308 q 434 1356 417 1349 q 469 1360 451 1363 q 499 1344 487 1358 l 634 1213 q 635 1188 647 1201 l 611 1163 q 602 1156 606 1157 q 590 1159 598 1154 m 76 521 q 111 729 76 632 q 210 899 145 826 q 368 1014 275 973 q 576 1056 460 1056 q 785 1014 692 1056 q 943 899 878 973 q 1042 729 1008 826 q 1076 521 1076 632 q 1040 313 1076 410 q 938 142 1004 216 q 779 27 871 69 q 576 -14 688 -14 q 368 27 460 -14 q 210 142 275 69 q 111 313 145 216 q 76 521 76 410 m 236 521 q 256 342 236 426 q 316 193 275 258 q 421 92 356 129 q 576 56 486 56 q 738 92 672 56 q 842 193 803 129 q 899 342 882 258 q 917 521 917 426 q 897 700 917 616 q 837 848 878 784 q 732 949 797 913 q 576 986 667 986 q 421 949 486 986 q 316 848 356 913 q 256 700 275 784 q 236 521 236 616 "},"Ó":{"ha":1153,"x_min":76,"x_max":1076,"o":"m 535 1165 l 512 1190 q 512 1212 501 1201 l 648 1344 q 679 1360 661 1358 q 714 1356 697 1363 q 740 1333 731 1349 q 747 1286 755 1308 q 721 1255 739 1265 l 563 1163 q 548 1157 553 1157 q 535 1165 543 1156 m 76 521 q 111 729 76 632 q 210 899 145 826 q 368 1014 275 973 q 576 1056 460 1056 q 785 1014 692 1056 q 943 899 878 973 q 1042 729 1008 826 q 1076 521 1076 632 q 1040 313 1076 410 q 938 142 1004 216 q 779 27 871 69 q 576 -14 688 -14 q 368 27 460 -14 q 210 142 275 69 q 111 313 145 216 q 76 521 76 410 m 236 521 q 256 342 236 426 q 316 193 275 258 q 421 92 356 129 q 576 56 486 56 q 738 92 672 56 q 842 193 803 129 q 899 342 882 258 q 917 521 917 426 q 897 700 917 616 q 837 848 878 784 q 732 949 797 913 q 576 986 667 986 q 421 949 486 986 q 316 848 356 913 q 256 700 275 784 q 236 521 236 616 "},"Ô":{"ha":1153,"x_min":76,"x_max":1076,"o":"m 395 1174 l 380 1190 q 372 1201 372 1198 q 380 1211 372 1203 l 510 1342 q 525 1351 518 1349 q 547 1353 532 1353 l 606 1353 q 626 1351 620 1353 q 638 1342 632 1348 l 772 1208 q 777 1201 777 1203 q 772 1194 778 1199 l 749 1171 q 739 1164 742 1163 q 727 1170 736 1164 l 592 1271 q 557 1272 574 1284 l 420 1169 q 395 1174 408 1160 m 76 521 q 111 729 76 632 q 210 899 145 826 q 368 1014 275 973 q 576 1056 460 1056 q 785 1014 692 1056 q 943 899 878 973 q 1042 729 1008 826 q 1076 521 1076 632 q 1040 313 1076 410 q 938 142 1004 216 q 779 27 871 69 q 576 -14 688 -14 q 368 27 460 -14 q 210 142 275 69 q 111 313 145 216 q 76 521 76 410 m 236 521 q 256 342 236 426 q 316 193 275 258 q 421 92 356 129 q 576 56 486 56 q 738 92 672 56 q 842 193 803 129 q 899 342 882 258 q 917 521 917 426 q 897 700 917 616 q 837 848 878 784 q 732 949 797 913 q 576 986 667 986 q 421 949 486 986 q 316 848 356 913 q 256 700 275 784 q 236 521 236 616 "},"Õ":{"ha":1153,"x_min":76,"x_max":1076,"o":"m 678 1167 q 605 1183 634 1167 q 554 1222 576 1200 q 516 1258 537 1239 q 463 1276 494 1276 q 406 1254 424 1276 q 386 1190 388 1232 q 372 1181 385 1181 l 350 1181 q 336 1186 338 1181 q 335 1201 335 1191 q 360 1281 340 1246 q 413 1336 380 1316 q 489 1357 446 1357 q 561 1341 533 1357 q 610 1302 590 1324 q 644 1266 626 1285 q 690 1247 662 1247 q 767 1328 761 1247 q 770 1340 767 1336 q 782 1343 772 1343 l 805 1343 q 817 1340 815 1343 q 818 1328 819 1336 q 801 1240 817 1276 q 756 1185 786 1204 q 678 1167 726 1167 m 76 521 q 111 729 76 632 q 210 899 145 826 q 368 1014 275 973 q 576 1056 460 1056 q 785 1014 692 1056 q 943 899 878 973 q 1042 729 1008 826 q 1076 521 1076 632 q 1040 313 1076 410 q 938 142 1004 216 q 779 27 871 69 q 576 -14 688 -14 q 368 27 460 -14 q 210 142 275 69 q 111 313 145 216 q 76 521 76 410 m 236 521 q 256 342 236 426 q 316 193 275 258 q 421 92 356 129 q 576 56 486 56 q 738 92 672 56 q 842 193 803 129 q 899 342 882 258 q 917 521 917 426 q 897 700 917 616 q 837 848 878 784 q 732 949 797 913 q 576 986 667 986 q 421 949 486 986 q 316 848 356 913 q 256 700 275 784 q 236 521 236 616 "},"Ö":{"ha":1153,"x_min":76,"x_max":1076,"o":"m 688 1139 q 640 1158 660 1139 q 621 1206 621 1178 q 640 1253 621 1233 q 688 1273 660 1273 q 735 1253 715 1273 q 754 1206 754 1233 q 735 1158 754 1178 q 688 1139 715 1139 m 465 1139 q 418 1158 438 1139 q 399 1206 399 1178 q 418 1253 399 1233 q 465 1273 438 1273 q 513 1253 493 1273 q 532 1206 532 1233 q 513 1158 532 1178 q 465 1139 493 1139 m 76 521 q 111 729 76 632 q 210 899 145 826 q 368 1014 275 973 q 576 1056 460 1056 q 785 1014 692 1056 q 943 899 878 973 q 1042 729 1008 826 q 1076 521 1076 632 q 1040 313 1076 410 q 938 142 1004 216 q 779 27 871 69 q 576 -14 688 -14 q 368 27 460 -14 q 210 142 275 69 q 111 313 145 216 q 76 521 76 410 m 236 521 q 256 342 236 426 q 316 193 275 258 q 421 92 356 129 q 576 56 486 56 q 738 92 672 56 q 842 193 803 129 q 899 342 882 258 q 917 521 917 426 q 897 700 917 616 q 837 848 878 784 q 732 949 797 913 q 576 986 667 986 q 421 949 486 986 q 316 848 356 913 q 256 700 275 784 q 236 521 236 616 "},"Ō":{"ha":1153,"x_min":76,"x_max":1076,"o":"m 407 1189 l 407 1212 q 409 1226 407 1222 q 421 1231 412 1231 l 717 1231 q 735 1227 730 1231 q 740 1209 740 1223 l 740 1188 q 738 1172 740 1176 q 725 1167 736 1167 l 431 1167 q 413 1170 418 1167 q 407 1189 407 1174 m 76 521 q 111 729 76 632 q 210 899 145 826 q 368 1014 275 973 q 576 1056 460 1056 q 785 1014 692 1056 q 943 899 878 973 q 1042 729 1008 826 q 1076 521 1076 632 q 1040 313 1076 410 q 938 142 1004 216 q 779 27 871 69 q 576 -14 688 -14 q 368 27 460 -14 q 210 142 275 69 q 111 313 145 216 q 76 521 76 410 m 236 521 q 256 342 236 426 q 316 193 275 258 q 421 92 356 129 q 576 56 486 56 q 738 92 672 56 q 842 193 803 129 q 899 342 882 258 q 917 521 917 426 q 897 700 917 616 q 837 848 878 784 q 732 949 797 913 q 576 986 667 986 q 421 949 486 986 q 316 848 356 913 q 256 700 275 784 q 236 521 236 616 "},"Ŏ":{"ha":1153,"x_min":76,"x_max":1076,"o":"m 574 1167 q 450 1212 484 1167 q 415 1333 417 1258 q 431 1346 415 1346 l 444 1346 q 457 1335 456 1346 q 492 1266 460 1288 q 574 1243 523 1243 q 653 1263 622 1243 q 691 1326 685 1283 q 692 1341 692 1335 q 705 1346 692 1346 l 720 1346 q 733 1343 731 1346 q 734 1329 735 1340 q 697 1211 731 1256 q 574 1167 662 1167 m 76 521 q 111 729 76 632 q 210 899 145 826 q 368 1014 275 973 q 576 1056 460 1056 q 785 1014 692 1056 q 943 899 878 973 q 1042 729 1008 826 q 1076 521 1076 632 q 1040 313 1076 410 q 938 142 1004 216 q 779 27 871 69 q 576 -14 688 -14 q 368 27 460 -14 q 210 142 275 69 q 111 313 145 216 q 76 521 76 410 m 236 521 q 256 342 236 426 q 316 193 275 258 q 421 92 356 129 q 576 56 486 56 q 738 92 672 56 q 842 193 803 129 q 899 342 882 258 q 917 521 917 426 q 897 700 917 616 q 837 848 878 784 q 732 949 797 913 q 576 986 667 986 q 421 949 486 986 q 316 848 356 913 q 256 700 275 784 q 236 521 236 616 "},"Ő":{"ha":1153,"x_min":76,"x_max":1076,"o":"m 680 1167 l 664 1184 q 652 1200 653 1196 q 663 1215 651 1204 l 794 1344 q 827 1362 810 1360 q 861 1357 845 1364 q 887 1336 877 1349 q 895 1292 901 1317 q 867 1255 890 1268 l 706 1160 q 692 1157 696 1155 q 680 1167 688 1158 m 390 1170 l 376 1185 q 367 1203 365 1197 q 381 1219 370 1209 l 509 1344 q 541 1362 524 1360 q 574 1358 558 1365 q 599 1338 589 1351 q 610 1294 613 1319 q 582 1255 606 1269 l 436 1172 q 411 1159 419 1162 q 390 1170 403 1156 m 76 521 q 111 729 76 632 q 210 899 145 826 q 368 1014 275 973 q 576 1056 460 1056 q 785 1014 692 1056 q 943 899 878 973 q 1042 729 1008 826 q 1076 521 1076 632 q 1040 313 1076 410 q 938 142 1004 216 q 779 27 871 69 q 576 -14 688 -14 q 368 27 460 -14 q 210 142 275 69 q 111 313 145 216 q 76 521 76 410 m 236 521 q 256 342 236 426 q 316 193 275 258 q 421 92 356 129 q 576 56 486 56 q 738 92 672 56 q 842 193 803 129 q 899 342 882 258 q 917 521 917 426 q 897 700 917 616 q 837 848 878 784 q 732 949 797 913 q 576 986 667 986 q 421 949 486 986 q 316 848 356 913 q 256 700 275 784 q 236 521 236 616 "},"P":{"ha":958,"x_min":52,"x_max":906,"o":"m 183 965 l 69 965 q 55 970 57 965 q 52 988 52 976 l 52 1017 q 57 1037 52 1033 q 78 1042 63 1042 l 545 1042 q 708 1022 640 1042 q 820 964 776 1001 q 885 872 864 926 q 906 750 906 818 q 885 628 906 683 q 820 536 864 574 q 708 478 776 499 q 545 458 640 458 l 381 458 q 345 453 353 458 q 337 419 337 448 l 337 120 q 343 84 337 92 q 377 76 349 76 l 467 76 q 486 70 483 76 q 490 49 490 65 l 490 33 q 485 6 490 13 q 460 0 481 0 l 90 0 q 60 5 68 0 q 52 32 52 9 l 52 57 q 57 73 52 69 q 74 76 61 76 l 173 76 q 200 83 194 76 q 205 110 205 90 l 205 947 q 200 962 205 959 q 183 965 195 965 m 372 535 l 545 535 q 699 596 645 535 q 753 750 753 658 q 699 904 753 843 q 545 965 645 965 l 357 965 q 340 959 344 965 q 337 938 337 952 l 337 565 q 343 539 337 544 q 372 535 350 535 "},"Q":{"ha":1153,"x_min":76,"x_max":1117,"o":"m 76 521 q 111 729 76 632 q 210 899 145 826 q 368 1014 275 973 q 576 1056 460 1056 q 785 1014 692 1056 q 943 899 878 973 q 1042 729 1008 826 q 1076 521 1076 632 q 1017 259 1076 378 q 853 69 958 140 q 833 52 836 58 q 841 28 830 47 q 883 -30 862 -8 q 928 -51 904 -51 q 994 -30 968 -51 q 1033 26 1019 -8 q 1048 97 1046 60 q 1052 110 1049 106 q 1067 114 1056 114 l 1092 114 q 1113 110 1108 114 q 1117 91 1117 106 q 1103 -12 1117 35 q 1064 -97 1090 -60 q 1000 -153 1038 -133 q 917 -174 963 -174 q 839 -152 871 -174 q 784 -93 807 -130 q 741 -14 761 -57 q 725 3 734 2 q 694 -1 717 5 q 576 -14 640 -14 q 368 27 460 -14 q 210 142 275 69 q 111 313 145 216 q 76 521 76 410 m 438 84 q 502 63 467 70 q 576 56 537 56 q 625 59 602 56 q 670 67 649 62 q 699 80 694 73 q 695 105 703 88 q 650 196 674 153 q 592 265 626 239 q 506 292 558 292 q 425 261 455 292 q 390 188 395 230 q 406 110 384 145 q 438 84 417 94 m 819 161 q 894 320 872 226 q 917 521 917 414 q 897 700 917 616 q 837 848 878 784 q 732 949 797 913 q 576 986 667 986 q 421 949 486 986 q 316 848 356 913 q 256 700 275 784 q 236 521 236 616 q 251 361 236 437 q 298 225 266 286 q 314 202 310 203 q 319 224 318 202 q 341 311 322 265 q 399 389 360 357 q 503 421 438 421 q 617 382 568 421 q 704 284 666 344 q 773 162 742 224 q 794 136 787 134 q 819 161 801 139 "},"R":{"ha":1073,"x_min":52,"x_max":1107,"o":"m 1104 132 q 1039 27 1085 69 q 906 -14 992 -14 q 802 13 837 -14 q 755 84 767 40 q 740 180 742 128 q 735 285 738 233 q 716 382 732 338 q 661 452 701 426 q 545 479 622 479 l 369 479 q 341 473 346 479 q 337 443 337 466 l 337 100 q 342 80 337 84 q 365 76 348 76 l 468 76 q 486 72 483 76 q 490 51 490 67 l 490 20 q 485 3 490 7 q 467 0 481 0 l 74 0 q 56 5 60 0 q 52 22 52 9 l 52 52 q 57 72 52 68 q 77 76 63 76 l 172 76 q 199 81 193 76 q 205 106 205 85 l 205 932 q 199 960 205 954 q 171 965 193 965 l 77 965 q 56 972 59 965 q 52 997 52 978 l 52 1018 q 55 1037 52 1032 q 72 1042 58 1042 l 601 1042 q 803 1004 726 1042 q 914 903 879 967 q 948 764 948 840 q 908 617 948 678 q 769 525 869 556 q 750 512 750 519 q 772 493 749 505 q 847 425 824 466 q 877 337 870 384 q 884 244 884 290 q 886 160 883 198 q 903 99 888 122 q 956 76 918 76 q 995 94 976 76 q 1031 147 1015 111 q 1038 161 1034 156 q 1052 163 1042 166 l 1087 151 q 1102 144 1097 148 q 1104 132 1107 141 m 369 563 l 601 563 q 701 584 653 563 q 779 651 749 606 q 809 764 809 695 q 779 877 809 833 q 701 944 749 922 q 601 965 653 965 l 369 965 q 341 961 345 965 q 337 933 337 957 l 337 596 q 342 568 337 574 q 369 563 347 563 "},"Ŕ":{"ha":1073,"x_min":52,"x_max":1107,"o":"m 508 1165 l 484 1190 q 484 1212 473 1201 l 620 1344 q 651 1360 633 1358 q 686 1356 669 1363 q 712 1333 703 1349 q 719 1286 727 1308 q 693 1255 711 1265 l 535 1163 q 520 1157 526 1157 q 508 1165 515 1156 m 1104 132 q 1039 27 1085 69 q 906 -14 992 -14 q 802 13 837 -14 q 755 84 767 40 q 740 180 742 128 q 735 285 738 233 q 716 382 732 338 q 661 452 701 426 q 545 479 622 479 l 369 479 q 341 473 346 479 q 337 443 337 466 l 337 100 q 342 80 337 84 q 365 76 348 76 l 468 76 q 486 72 483 76 q 490 51 490 67 l 490 20 q 485 3 490 7 q 467 0 481 0 l 74 0 q 56 5 60 0 q 52 22 52 9 l 52 52 q 57 72 52 68 q 77 76 63 76 l 172 76 q 199 81 193 76 q 205 106 205 85 l 205 932 q 199 960 205 954 q 171 965 193 965 l 77 965 q 56 972 59 965 q 52 997 52 978 l 52 1018 q 55 1037 52 1032 q 72 1042 58 1042 l 601 1042 q 803 1004 726 1042 q 914 903 879 967 q 948 764 948 840 q 908 617 948 678 q 769 525 869 556 q 750 512 750 519 q 772 493 749 505 q 847 425 824 466 q 877 337 870 384 q 884 244 884 290 q 886 160 883 198 q 903 99 888 122 q 956 76 918 76 q 995 94 976 76 q 1031 147 1015 111 q 1038 161 1034 156 q 1052 163 1042 166 l 1087 151 q 1102 144 1097 148 q 1104 132 1107 141 m 369 563 l 601 563 q 701 584 653 563 q 779 651 749 606 q 809 764 809 695 q 779 877 809 833 q 701 944 749 922 q 601 965 653 965 l 369 965 q 341 961 345 965 q 337 933 337 957 l 337 596 q 342 568 337 574 q 369 563 347 563 "},"Ŗ":{"ha":1073,"x_min":52,"x_max":1107,"o":"m 495 -206 q 517 -159 495 -178 q 569 -140 538 -140 q 625 -167 602 -140 q 647 -256 647 -194 q 638 -313 647 -283 q 611 -368 629 -342 q 567 -412 593 -394 q 506 -433 540 -429 q 496 -432 499 -433 q 493 -424 493 -431 l 493 -400 q 507 -387 493 -390 q 553 -366 532 -383 q 586 -323 574 -349 q 594 -265 598 -297 q 590 -260 594 -258 q 583 -264 587 -261 q 569 -270 576 -269 q 554 -271 563 -271 q 511 -252 526 -271 q 495 -206 495 -233 m 1104 132 q 1039 27 1085 69 q 906 -14 992 -14 q 802 13 837 -14 q 755 84 767 40 q 740 180 742 128 q 735 285 738 233 q 716 382 732 338 q 661 452 701 426 q 545 479 622 479 l 369 479 q 341 473 346 479 q 337 443 337 466 l 337 100 q 342 80 337 84 q 365 76 348 76 l 468 76 q 486 72 483 76 q 490 51 490 67 l 490 20 q 485 3 490 7 q 467 0 481 0 l 74 0 q 56 5 60 0 q 52 22 52 9 l 52 52 q 57 72 52 68 q 77 76 63 76 l 172 76 q 199 81 193 76 q 205 106 205 85 l 205 932 q 199 960 205 954 q 171 965 193 965 l 77 965 q 56 972 59 965 q 52 997 52 978 l 52 1018 q 55 1037 52 1032 q 72 1042 58 1042 l 601 1042 q 803 1004 726 1042 q 914 903 879 967 q 948 764 948 840 q 908 617 948 678 q 769 525 869 556 q 750 512 750 519 q 772 493 749 505 q 847 425 824 466 q 877 337 870 384 q 884 244 884 290 q 886 160 883 198 q 903 99 888 122 q 956 76 918 76 q 995 94 976 76 q 1031 147 1015 111 q 1038 161 1034 156 q 1052 163 1042 166 l 1087 151 q 1102 144 1097 148 q 1104 132 1107 141 m 369 563 l 601 563 q 701 584 653 563 q 779 651 749 606 q 809 764 809 695 q 779 877 809 833 q 701 944 749 922 q 601 965 653 965 l 369 965 q 341 961 345 965 q 337 933 337 957 l 337 596 q 342 568 337 574 q 369 563 347 563 "},"Ř":{"ha":1073,"x_min":52,"x_max":1107,"o":"m 471 1195 l 357 1310 q 346 1325 348 1319 q 354 1338 344 1330 l 367 1347 q 383 1355 378 1356 q 400 1346 388 1353 l 508 1275 q 545 1261 529 1262 q 582 1275 562 1261 l 697 1356 q 714 1361 708 1363 q 728 1349 719 1359 l 735 1344 q 746 1329 744 1335 q 738 1314 748 1324 l 615 1190 q 602 1178 608 1183 q 581 1174 597 1174 l 525 1174 q 492 1180 503 1174 q 471 1195 481 1185 m 1104 132 q 1039 27 1085 69 q 906 -14 992 -14 q 802 13 837 -14 q 755 84 767 40 q 740 180 742 128 q 735 285 738 233 q 716 382 732 338 q 661 452 701 426 q 545 479 622 479 l 369 479 q 341 473 346 479 q 337 443 337 466 l 337 100 q 342 80 337 84 q 365 76 348 76 l 468 76 q 486 72 483 76 q 490 51 490 67 l 490 20 q 485 3 490 7 q 467 0 481 0 l 74 0 q 56 5 60 0 q 52 22 52 9 l 52 52 q 57 72 52 68 q 77 76 63 76 l 172 76 q 199 81 193 76 q 205 106 205 85 l 205 932 q 199 960 205 954 q 171 965 193 965 l 77 965 q 56 972 59 965 q 52 997 52 978 l 52 1018 q 55 1037 52 1032 q 72 1042 58 1042 l 601 1042 q 803 1004 726 1042 q 914 903 879 967 q 948 764 948 840 q 908 617 948 678 q 769 525 869 556 q 750 512 750 519 q 772 493 749 505 q 847 425 824 466 q 877 337 870 384 q 884 244 884 290 q 886 160 883 198 q 903 99 888 122 q 956 76 918 76 q 995 94 976 76 q 1031 147 1015 111 q 1038 161 1034 156 q 1052 163 1042 166 l 1087 151 q 1102 144 1097 148 q 1104 132 1107 141 m 369 563 l 601 563 q 701 584 653 563 q 779 651 749 606 q 809 764 809 695 q 779 877 809 833 q 701 944 749 922 q 601 965 653 965 l 369 965 q 341 961 345 965 q 337 933 337 957 l 337 596 q 342 568 337 574 q 369 563 347 563 "},"Ȓ":{"ha":1073,"x_min":52,"x_max":1107,"o":"m 548 1346 q 671 1300 638 1346 q 706 1180 705 1255 q 690 1167 706 1167 l 677 1167 q 665 1178 665 1167 q 630 1247 661 1225 q 548 1269 599 1269 q 468 1249 500 1269 q 431 1187 437 1229 q 429 1172 429 1177 q 417 1167 429 1167 l 401 1167 q 389 1170 390 1167 q 388 1183 387 1173 q 425 1301 390 1256 q 548 1346 460 1346 m 1104 132 q 1039 27 1085 69 q 906 -14 992 -14 q 802 13 837 -14 q 755 84 767 40 q 740 180 742 128 q 735 285 738 233 q 716 382 732 338 q 661 452 701 426 q 545 479 622 479 l 369 479 q 341 473 346 479 q 337 443 337 466 l 337 100 q 342 80 337 84 q 365 76 348 76 l 468 76 q 486 72 483 76 q 490 51 490 67 l 490 20 q 485 3 490 7 q 467 0 481 0 l 74 0 q 56 5 60 0 q 52 22 52 9 l 52 52 q 57 72 52 68 q 77 76 63 76 l 172 76 q 199 81 193 76 q 205 106 205 85 l 205 932 q 199 960 205 954 q 171 965 193 965 l 77 965 q 56 972 59 965 q 52 997 52 978 l 52 1018 q 55 1037 52 1032 q 72 1042 58 1042 l 601 1042 q 803 1004 726 1042 q 914 903 879 967 q 948 764 948 840 q 908 617 948 678 q 769 525 869 556 q 750 512 750 519 q 772 493 749 505 q 847 425 824 466 q 877 337 870 384 q 884 244 884 290 q 886 160 883 198 q 903 99 888 122 q 956 76 918 76 q 995 94 976 76 q 1031 147 1015 111 q 1038 161 1034 156 q 1052 163 1042 166 l 1087 151 q 1102 144 1097 148 q 1104 132 1107 141 m 369 563 l 601 563 q 701 584 653 563 q 779 651 749 606 q 809 764 809 695 q 779 877 809 833 q 701 944 749 922 q 601 965 653 965 l 369 965 q 341 961 345 965 q 337 933 337 957 l 337 596 q 342 568 337 574 q 369 563 347 563 "},"S":{"ha":934,"x_min":90,"x_max":868,"o":"m 749 727 q 708 861 744 803 q 613 952 672 919 q 479 985 554 985 q 308 935 358 985 q 257 813 257 885 q 290 713 257 750 q 377 654 323 676 q 497 616 432 633 q 628 580 563 600 q 748 526 693 560 q 835 437 802 493 q 868 292 868 381 q 824 124 868 194 q 696 17 780 54 q 493 -21 612 -21 q 347 7 415 -21 q 232 76 279 34 q 210 88 217 90 q 196 66 204 87 l 174 13 q 164 -4 169 -1 q 138 -7 158 -7 l 117 -7 q 95 -3 101 -7 q 90 17 90 1 l 90 335 q 96 352 90 349 q 117 354 102 354 l 146 354 q 164 348 160 354 q 168 331 167 342 q 212 200 174 265 q 317 93 250 135 q 479 50 385 50 q 632 82 574 50 q 716 161 690 113 q 743 257 743 209 q 710 366 743 326 q 623 431 677 407 q 503 471 568 455 q 372 506 438 488 q 252 555 307 524 q 165 636 198 585 q 132 771 132 688 q 158 897 132 844 q 230 986 184 951 q 337 1039 276 1022 q 465 1056 397 1056 q 589 1034 531 1056 q 689 977 647 1013 q 709 966 701 967 q 725 984 717 965 l 747 1033 q 752 1040 749 1039 q 763 1042 754 1042 l 807 1042 q 823 1037 820 1042 q 826 1019 826 1033 l 826 719 q 821 704 826 706 q 803 701 816 701 l 772 701 q 752 706 753 701 q 749 727 751 710 "},"Ś":{"ha":934,"x_min":90,"x_max":868,"o":"m 431 1165 l 408 1190 q 408 1212 397 1201 l 544 1344 q 575 1360 557 1358 q 609 1356 592 1363 q 635 1333 626 1349 q 643 1286 651 1308 q 617 1255 635 1265 l 458 1163 q 444 1157 449 1157 q 431 1165 439 1156 m 749 727 q 708 861 744 803 q 613 952 672 919 q 479 985 554 985 q 308 935 358 985 q 257 813 257 885 q 290 713 257 750 q 377 654 323 676 q 497 616 432 633 q 628 580 563 600 q 748 526 693 560 q 835 437 802 493 q 868 292 868 381 q 824 124 868 194 q 696 17 780 54 q 493 -21 612 -21 q 347 7 415 -21 q 232 76 279 34 q 210 88 217 90 q 196 66 204 87 l 174 13 q 164 -4 169 -1 q 138 -7 158 -7 l 117 -7 q 95 -3 101 -7 q 90 17 90 1 l 90 335 q 96 352 90 349 q 117 354 102 354 l 146 354 q 164 348 160 354 q 168 331 167 342 q 212 200 174 265 q 317 93 250 135 q 479 50 385 50 q 632 82 574 50 q 716 161 690 113 q 743 257 743 209 q 710 366 743 326 q 623 431 677 407 q 503 471 568 455 q 372 506 438 488 q 252 555 307 524 q 165 636 198 585 q 132 771 132 688 q 158 897 132 844 q 230 986 184 951 q 337 1039 276 1022 q 465 1056 397 1056 q 589 1034 531 1056 q 689 977 647 1013 q 709 966 701 967 q 725 984 717 965 l 747 1033 q 752 1040 749 1039 q 763 1042 754 1042 l 807 1042 q 823 1037 820 1042 q 826 1019 826 1033 l 826 719 q 821 704 826 706 q 803 701 816 701 l 772 701 q 752 706 753 701 q 749 727 751 710 "},"Ŝ":{"ha":934,"x_min":90,"x_max":868,"o":"m 291 1174 l 276 1190 q 268 1201 268 1198 q 276 1211 268 1203 l 406 1342 q 421 1351 414 1349 q 443 1353 428 1353 l 502 1353 q 522 1351 516 1353 q 534 1342 528 1348 l 667 1208 q 673 1201 673 1203 q 668 1194 674 1199 l 645 1171 q 635 1164 638 1163 q 623 1170 632 1164 l 488 1271 q 453 1272 469 1284 l 316 1169 q 291 1174 304 1160 m 749 727 q 708 861 744 803 q 613 952 672 919 q 479 985 554 985 q 308 935 358 985 q 257 813 257 885 q 290 713 257 750 q 377 654 323 676 q 497 616 432 633 q 628 580 563 600 q 748 526 693 560 q 835 437 802 493 q 868 292 868 381 q 824 124 868 194 q 696 17 780 54 q 493 -21 612 -21 q 347 7 415 -21 q 232 76 279 34 q 210 88 217 90 q 196 66 204 87 l 174 13 q 164 -4 169 -1 q 138 -7 158 -7 l 117 -7 q 95 -3 101 -7 q 90 17 90 1 l 90 335 q 96 352 90 349 q 117 354 102 354 l 146 354 q 164 348 160 354 q 168 331 167 342 q 212 200 174 265 q 317 93 250 135 q 479 50 385 50 q 632 82 574 50 q 716 161 690 113 q 743 257 743 209 q 710 366 743 326 q 623 431 677 407 q 503 471 568 455 q 372 506 438 488 q 252 555 307 524 q 165 636 198 585 q 132 771 132 688 q 158 897 132 844 q 230 986 184 951 q 337 1039 276 1022 q 465 1056 397 1056 q 589 1034 531 1056 q 689 977 647 1013 q 709 966 701 967 q 725 984 717 965 l 747 1033 q 752 1040 749 1039 q 763 1042 754 1042 l 807 1042 q 823 1037 820 1042 q 826 1019 826 1033 l 826 719 q 821 704 826 706 q 803 701 816 701 l 772 701 q 752 706 753 701 q 749 727 751 710 "},"Ş":{"ha":934,"x_min":90,"x_max":868,"o":"m 365 -351 l 365 -339 q 370 -324 365 -327 q 386 -320 376 -321 q 465 -301 428 -317 q 501 -251 501 -285 q 483 -208 501 -223 q 438 -186 466 -192 q 378 -176 410 -179 q 356 -170 358 -174 q 360 -156 353 -165 l 465 -16 q 470 -10 468 -11 q 481 -9 472 -9 l 516 -9 q 530 -12 532 -9 q 522 -23 527 -15 l 460 -105 q 452 -118 451 -117 q 473 -122 454 -120 q 565 -150 530 -126 q 599 -233 599 -174 q 581 -296 599 -270 q 531 -338 563 -322 q 461 -362 500 -354 q 382 -371 423 -369 q 365 -351 365 -372 m 749 727 q 708 861 744 803 q 613 952 672 919 q 479 985 554 985 q 308 935 358 985 q 257 813 257 885 q 290 713 257 750 q 377 654 323 676 q 497 616 432 633 q 628 580 563 600 q 748 526 693 560 q 835 437 802 493 q 868 292 868 381 q 824 124 868 194 q 696 17 780 54 q 493 -21 612 -21 q 347 7 415 -21 q 232 76 279 34 q 210 88 217 90 q 196 66 204 87 l 174 13 q 164 -4 169 -1 q 138 -7 158 -7 l 117 -7 q 95 -3 101 -7 q 90 17 90 1 l 90 335 q 96 352 90 349 q 117 354 102 354 l 146 354 q 164 348 160 354 q 168 331 167 342 q 212 200 174 265 q 317 93 250 135 q 479 50 385 50 q 632 82 574 50 q 716 161 690 113 q 743 257 743 209 q 710 366 743 326 q 623 431 677 407 q 503 471 568 455 q 372 506 438 488 q 252 555 307 524 q 165 636 198 585 q 132 771 132 688 q 158 897 132 844 q 230 986 184 951 q 337 1039 276 1022 q 465 1056 397 1056 q 589 1034 531 1056 q 689 977 647 1013 q 709 966 701 967 q 725 984 717 965 l 747 1033 q 752 1040 749 1039 q 763 1042 754 1042 l 807 1042 q 823 1037 820 1042 q 826 1019 826 1033 l 826 719 q 821 704 826 706 q 803 701 816 701 l 772 701 q 752 706 753 701 q 749 727 751 710 "},"Š":{"ha":934,"x_min":90,"x_max":868,"o":"m 394 1195 l 281 1310 q 270 1325 272 1319 q 278 1338 268 1330 l 290 1347 q 307 1355 301 1356 q 324 1346 312 1353 l 432 1275 q 469 1261 453 1262 q 506 1275 485 1261 l 621 1356 q 637 1361 632 1363 q 651 1349 642 1359 l 658 1344 q 670 1329 668 1335 q 662 1314 672 1324 l 539 1190 q 526 1178 531 1183 q 504 1174 521 1174 l 449 1174 q 416 1180 427 1174 q 394 1195 404 1185 m 749 727 q 708 861 744 803 q 613 952 672 919 q 479 985 554 985 q 308 935 358 985 q 257 813 257 885 q 290 713 257 750 q 377 654 323 676 q 497 616 432 633 q 628 580 563 600 q 748 526 693 560 q 835 437 802 493 q 868 292 868 381 q 824 124 868 194 q 696 17 780 54 q 493 -21 612 -21 q 347 7 415 -21 q 232 76 279 34 q 210 88 217 90 q 196 66 204 87 l 174 13 q 164 -4 169 -1 q 138 -7 158 -7 l 117 -7 q 95 -3 101 -7 q 90 17 90 1 l 90 335 q 96 352 90 349 q 117 354 102 354 l 146 354 q 164 348 160 354 q 168 331 167 342 q 212 200 174 265 q 317 93 250 135 q 479 50 385 50 q 632 82 574 50 q 716 161 690 113 q 743 257 743 209 q 710 366 743 326 q 623 431 677 407 q 503 471 568 455 q 372 506 438 488 q 252 555 307 524 q 165 636 198 585 q 132 771 132 688 q 158 897 132 844 q 230 986 184 951 q 337 1039 276 1022 q 465 1056 397 1056 q 589 1034 531 1056 q 689 977 647 1013 q 709 966 701 967 q 725 984 717 965 l 747 1033 q 752 1040 749 1039 q 763 1042 754 1042 l 807 1042 q 823 1037 820 1042 q 826 1019 826 1033 l 826 719 q 821 704 826 706 q 803 701 816 701 l 772 701 q 752 706 753 701 q 749 727 751 710 "},"Ș":{"ha":934,"x_min":90,"x_max":868,"o":"m 418 -206 q 440 -159 418 -178 q 492 -140 461 -140 q 548 -167 525 -140 q 570 -256 570 -194 q 561 -313 570 -283 q 534 -368 552 -342 q 490 -412 516 -394 q 428 -433 463 -429 q 419 -432 422 -433 q 416 -424 416 -431 l 416 -400 q 430 -387 416 -390 q 476 -366 455 -383 q 509 -323 497 -349 q 517 -265 521 -297 q 513 -260 517 -258 q 506 -264 510 -261 q 492 -270 499 -269 q 477 -271 486 -271 q 434 -252 449 -271 q 418 -206 418 -233 m 749 727 q 708 861 744 803 q 613 952 672 919 q 479 985 554 985 q 308 935 358 985 q 257 813 257 885 q 290 713 257 750 q 377 654 323 676 q 497 616 432 633 q 628 580 563 600 q 748 526 693 560 q 835 437 802 493 q 868 292 868 381 q 824 124 868 194 q 696 17 780 54 q 493 -21 612 -21 q 347 7 415 -21 q 232 76 279 34 q 210 88 217 90 q 196 66 204 87 l 174 13 q 164 -4 169 -1 q 138 -7 158 -7 l 117 -7 q 95 -3 101 -7 q 90 17 90 1 l 90 335 q 96 352 90 349 q 117 354 102 354 l 146 354 q 164 348 160 354 q 168 331 167 342 q 212 200 174 265 q 317 93 250 135 q 479 50 385 50 q 632 82 574 50 q 716 161 690 113 q 743 257 743 209 q 710 366 743 326 q 623 431 677 407 q 503 471 568 455 q 372 506 438 488 q 252 555 307 524 q 165 636 198 585 q 132 771 132 688 q 158 897 132 844 q 230 986 184 951 q 337 1039 276 1022 q 465 1056 397 1056 q 589 1034 531 1056 q 689 977 647 1013 q 709 966 701 967 q 725 984 717 965 l 747 1033 q 752 1040 749 1039 q 763 1042 754 1042 l 807 1042 q 823 1037 820 1042 q 826 1019 826 1033 l 826 719 q 821 704 826 706 q 803 701 816 701 l 772 701 q 752 706 753 701 q 749 727 751 710 "},"T":{"ha":1076,"x_min":69,"x_max":1007,"o":"m 292 28 l 292 52 q 299 73 292 69 q 321 76 306 76 l 435 76 q 466 83 460 76 q 472 115 472 89 l 472 941 q 467 967 472 961 q 442 972 461 972 l 375 972 q 233 949 284 972 q 162 870 183 926 q 139 716 141 814 q 134 694 138 700 q 113 688 131 688 l 93 688 q 73 698 76 688 q 69 723 69 708 l 69 1005 q 74 1035 69 1029 q 103 1042 79 1042 l 978 1042 q 1002 1036 998 1042 q 1007 1009 1007 1030 l 1007 709 q 1002 691 1007 694 q 981 688 997 688 l 964 688 q 941 695 944 688 q 937 720 938 703 q 914 872 935 817 q 842 949 892 926 q 701 972 792 972 l 631 972 q 608 967 613 972 q 604 942 604 961 l 604 116 q 610 83 604 90 q 642 76 616 76 l 756 76 q 781 70 776 76 q 785 42 785 64 l 785 29 q 774 4 785 8 q 744 0 763 0 l 324 0 q 298 5 303 0 q 292 28 292 9 "},"Ţ":{"ha":1076,"x_min":69,"x_max":1007,"o":"m 406 -330 l 406 -318 q 411 -303 406 -306 q 427 -299 417 -300 q 506 -280 469 -296 q 542 -230 542 -264 q 524 -187 542 -202 q 479 -165 507 -172 q 419 -156 451 -158 q 397 -149 399 -153 q 401 -135 394 -144 l 506 5 q 511 11 509 10 q 522 12 513 12 l 557 12 q 570 9 573 12 q 563 -2 568 6 l 501 -84 q 493 -98 492 -96 q 514 -101 495 -99 q 606 -130 571 -106 q 640 -212 640 -153 q 622 -275 640 -249 q 572 -317 603 -301 q 502 -341 541 -333 q 423 -350 464 -349 q 406 -330 406 -351 m 292 28 l 292 52 q 299 73 292 69 q 321 76 306 76 l 435 76 q 466 83 460 76 q 472 115 472 89 l 472 941 q 467 967 472 961 q 442 972 461 972 l 375 972 q 233 949 284 972 q 162 870 183 926 q 139 716 141 814 q 134 694 138 700 q 113 688 131 688 l 93 688 q 73 698 76 688 q 69 723 69 708 l 69 1005 q 74 1035 69 1029 q 103 1042 79 1042 l 978 1042 q 1002 1036 998 1042 q 1007 1009 1007 1030 l 1007 709 q 1002 691 1007 694 q 981 688 997 688 l 964 688 q 941 695 944 688 q 937 720 938 703 q 914 872 935 817 q 842 949 892 926 q 701 972 792 972 l 631 972 q 608 967 613 972 q 604 942 604 961 l 604 116 q 610 83 604 90 q 642 76 616 76 l 756 76 q 781 70 776 76 q 785 42 785 64 l 785 29 q 774 4 785 8 q 744 0 763 0 l 324 0 q 298 5 303 0 q 292 28 292 9 "},"Ť":{"ha":1076,"x_min":69,"x_max":1007,"o":"m 456 1195 l 342 1310 q 332 1325 333 1319 q 340 1338 330 1330 l 352 1347 q 368 1355 363 1356 q 385 1346 374 1353 l 494 1275 q 531 1261 515 1262 q 567 1275 547 1261 l 683 1356 q 699 1361 694 1363 q 713 1349 704 1359 l 720 1344 q 732 1329 730 1335 q 724 1314 733 1324 l 601 1190 q 588 1178 593 1183 q 566 1174 583 1174 l 510 1174 q 477 1180 489 1174 q 456 1195 466 1185 m 292 28 l 292 52 q 299 73 292 69 q 321 76 306 76 l 435 76 q 466 83 460 76 q 472 115 472 89 l 472 941 q 467 967 472 961 q 442 972 461 972 l 375 972 q 233 949 284 972 q 162 870 183 926 q 139 716 141 814 q 134 694 138 700 q 113 688 131 688 l 93 688 q 73 698 76 688 q 69 723 69 708 l 69 1005 q 74 1035 69 1029 q 103 1042 79 1042 l 978 1042 q 1002 1036 998 1042 q 1007 1009 1007 1030 l 1007 709 q 1002 691 1007 694 q 981 688 997 688 l 964 688 q 941 695 944 688 q 937 720 938 703 q 914 872 935 817 q 842 949 892 926 q 701 972 792 972 l 631 972 q 608 967 613 972 q 604 942 604 961 l 604 116 q 610 83 604 90 q 642 76 616 76 l 756 76 q 781 70 776 76 q 785 42 785 64 l 785 29 q 774 4 785 8 q 744 0 763 0 l 324 0 q 298 5 303 0 q 292 28 292 9 "},"Ț":{"ha":1076,"x_min":69,"x_max":1007,"o":"m 460 -206 q 482 -159 460 -178 q 535 -140 503 -140 q 590 -167 567 -140 q 613 -256 613 -194 q 603 -313 613 -283 q 576 -368 594 -342 q 532 -412 558 -394 q 471 -433 506 -429 q 461 -432 465 -433 q 458 -424 458 -431 l 458 -400 q 472 -387 458 -390 q 518 -366 497 -383 q 551 -323 540 -349 q 560 -265 563 -297 q 556 -260 559 -258 q 548 -264 552 -261 q 535 -270 541 -269 q 519 -271 528 -271 q 476 -252 492 -271 q 460 -206 460 -233 m 292 28 l 292 52 q 299 73 292 69 q 321 76 306 76 l 435 76 q 466 83 460 76 q 472 115 472 89 l 472 941 q 467 967 472 961 q 442 972 461 972 l 375 972 q 233 949 284 972 q 162 870 183 926 q 139 716 141 814 q 134 694 138 700 q 113 688 131 688 l 93 688 q 73 698 76 688 q 69 723 69 708 l 69 1005 q 74 1035 69 1029 q 103 1042 79 1042 l 978 1042 q 1002 1036 998 1042 q 1007 1009 1007 1030 l 1007 709 q 1002 691 1007 694 q 981 688 997 688 l 964 688 q 941 695 944 688 q 937 720 938 703 q 914 872 935 817 q 842 949 892 926 q 701 972 792 972 l 631 972 q 608 967 613 972 q 604 942 604 961 l 604 116 q 610 83 604 90 q 642 76 616 76 l 756 76 q 781 70 776 76 q 785 42 785 64 l 785 29 q 774 4 785 8 q 744 0 763 0 l 324 0 q 298 5 303 0 q 292 28 292 9 "},"U":{"ha":1167,"x_min":35,"x_max":1132,"o":"m 867 965 l 743 965 q 726 970 730 965 q 722 988 722 974 l 722 1015 q 728 1037 722 1033 q 750 1042 733 1042 l 1101 1042 q 1126 1038 1119 1042 q 1132 1015 1132 1033 l 1132 991 q 1126 969 1132 974 q 1103 965 1119 965 l 1010 965 q 985 961 990 965 q 979 938 979 957 l 979 417 q 888 86 979 193 q 590 -21 797 -21 q 402 11 479 -21 q 278 102 325 44 q 209 241 231 161 q 188 417 188 322 l 188 937 q 179 961 188 957 q 153 965 171 965 l 58 965 q 38 972 41 965 q 35 995 35 978 l 35 1017 q 42 1038 35 1034 q 64 1042 49 1042 l 454 1042 q 478 1038 471 1042 q 486 1016 486 1034 l 486 997 q 480 970 486 975 q 453 965 473 965 l 354 965 q 326 961 332 965 q 319 934 319 956 l 319 431 q 345 242 319 325 q 434 110 370 158 q 611 63 497 63 q 780 98 718 63 q 869 212 842 134 q 896 417 896 290 l 896 934 q 891 960 896 954 q 867 965 887 965 "},"Ù":{"ha":1167,"x_min":35,"x_max":1132,"o":"m 625 1159 l 461 1255 q 435 1286 444 1265 q 442 1333 427 1308 q 469 1356 452 1349 q 503 1360 485 1363 q 534 1344 522 1358 l 669 1213 q 669 1188 681 1201 l 646 1163 q 636 1156 640 1157 q 625 1159 633 1154 m 867 965 l 743 965 q 726 970 730 965 q 722 988 722 974 l 722 1015 q 728 1037 722 1033 q 750 1042 733 1042 l 1101 1042 q 1126 1038 1119 1042 q 1132 1015 1132 1033 l 1132 991 q 1126 969 1132 974 q 1103 965 1119 965 l 1010 965 q 985 961 990 965 q 979 938 979 957 l 979 417 q 888 86 979 193 q 590 -21 797 -21 q 402 11 479 -21 q 278 102 325 44 q 209 241 231 161 q 188 417 188 322 l 188 937 q 179 961 188 957 q 153 965 171 965 l 58 965 q 38 972 41 965 q 35 995 35 978 l 35 1017 q 42 1038 35 1034 q 64 1042 49 1042 l 454 1042 q 478 1038 471 1042 q 486 1016 486 1034 l 486 997 q 480 970 486 975 q 453 965 473 965 l 354 965 q 326 961 332 965 q 319 934 319 956 l 319 431 q 345 242 319 325 q 434 110 370 158 q 611 63 497 63 q 780 98 718 63 q 869 212 842 134 q 896 417 896 290 l 896 934 q 891 960 896 954 q 867 965 887 965 "},"Ú":{"ha":1167,"x_min":35,"x_max":1132,"o":"m 570 1165 l 547 1190 q 547 1212 535 1201 l 683 1344 q 714 1360 696 1358 q 748 1356 731 1363 q 774 1333 765 1349 q 782 1286 790 1308 q 756 1255 774 1265 l 597 1163 q 583 1157 588 1157 q 570 1165 578 1156 m 867 965 l 743 965 q 726 970 730 965 q 722 988 722 974 l 722 1015 q 728 1037 722 1033 q 750 1042 733 1042 l 1101 1042 q 1126 1038 1119 1042 q 1132 1015 1132 1033 l 1132 991 q 1126 969 1132 974 q 1103 965 1119 965 l 1010 965 q 985 961 990 965 q 979 938 979 957 l 979 417 q 888 86 979 193 q 590 -21 797 -21 q 402 11 479 -21 q 278 102 325 44 q 209 241 231 161 q 188 417 188 322 l 188 937 q 179 961 188 957 q 153 965 171 965 l 58 965 q 38 972 41 965 q 35 995 35 978 l 35 1017 q 42 1038 35 1034 q 64 1042 49 1042 l 454 1042 q 478 1038 471 1042 q 486 1016 486 1034 l 486 997 q 480 970 486 975 q 453 965 473 965 l 354 965 q 326 961 332 965 q 319 934 319 956 l 319 431 q 345 242 319 325 q 434 110 370 158 q 611 63 497 63 q 780 98 718 63 q 869 212 842 134 q 896 417 896 290 l 896 934 q 891 960 896 954 q 867 965 887 965 "},"Û":{"ha":1167,"x_min":35,"x_max":1132,"o":"m 430 1174 l 415 1190 q 407 1201 407 1198 q 415 1211 407 1203 l 545 1342 q 560 1351 553 1349 q 582 1353 567 1353 l 641 1353 q 661 1351 655 1353 q 673 1342 667 1348 l 806 1208 q 812 1201 812 1203 q 807 1194 813 1199 l 784 1171 q 774 1164 776 1163 q 762 1170 771 1164 l 626 1271 q 592 1272 608 1284 l 455 1169 q 430 1174 443 1160 m 867 965 l 743 965 q 726 970 730 965 q 722 988 722 974 l 722 1015 q 728 1037 722 1033 q 750 1042 733 1042 l 1101 1042 q 1126 1038 1119 1042 q 1132 1015 1132 1033 l 1132 991 q 1126 969 1132 974 q 1103 965 1119 965 l 1010 965 q 985 961 990 965 q 979 938 979 957 l 979 417 q 888 86 979 193 q 590 -21 797 -21 q 402 11 479 -21 q 278 102 325 44 q 209 241 231 161 q 188 417 188 322 l 188 937 q 179 961 188 957 q 153 965 171 965 l 58 965 q 38 972 41 965 q 35 995 35 978 l 35 1017 q 42 1038 35 1034 q 64 1042 49 1042 l 454 1042 q 478 1038 471 1042 q 486 1016 486 1034 l 486 997 q 480 970 486 975 q 453 965 473 965 l 354 965 q 326 961 332 965 q 319 934 319 956 l 319 431 q 345 242 319 325 q 434 110 370 158 q 611 63 497 63 q 780 98 718 63 q 869 212 842 134 q 896 417 896 290 l 896 934 q 891 960 896 954 q 867 965 887 965 "},"Ü":{"ha":1167,"x_min":35,"x_max":1132,"o":"m 694 1139 q 647 1158 666 1139 q 627 1206 627 1178 q 647 1253 627 1233 q 694 1273 666 1273 q 741 1253 722 1273 q 760 1206 760 1233 q 741 1158 760 1178 q 694 1139 722 1139 m 472 1139 q 424 1158 444 1139 q 405 1206 405 1178 q 424 1253 405 1233 q 472 1273 444 1273 q 519 1253 499 1273 q 538 1206 538 1233 q 519 1158 538 1178 q 472 1139 499 1139 m 867 965 l 743 965 q 726 970 730 965 q 722 988 722 974 l 722 1015 q 728 1037 722 1033 q 750 1042 733 1042 l 1101 1042 q 1126 1038 1119 1042 q 1132 1015 1132 1033 l 1132 991 q 1126 969 1132 974 q 1103 965 1119 965 l 1010 965 q 985 961 990 965 q 979 938 979 957 l 979 417 q 888 86 979 193 q 590 -21 797 -21 q 402 11 479 -21 q 278 102 325 44 q 209 241 231 161 q 188 417 188 322 l 188 937 q 179 961 188 957 q 153 965 171 965 l 58 965 q 38 972 41 965 q 35 995 35 978 l 35 1017 q 42 1038 35 1034 q 64 1042 49 1042 l 454 1042 q 478 1038 471 1042 q 486 1016 486 1034 l 486 997 q 480 970 486 975 q 453 965 473 965 l 354 965 q 326 961 332 965 q 319 934 319 956 l 319 431 q 345 242 319 325 q 434 110 370 158 q 611 63 497 63 q 780 98 718 63 q 869 212 842 134 q 896 417 896 290 l 896 934 q 891 960 896 954 q 867 965 887 965 "},"Ũ":{"ha":1167,"x_min":35,"x_max":1132,"o":"m 713 1167 q 640 1183 669 1167 q 589 1222 611 1200 q 550 1258 572 1239 q 498 1276 529 1276 q 441 1254 459 1276 q 421 1190 422 1232 q 407 1181 420 1181 l 385 1181 q 371 1186 373 1181 q 370 1201 369 1191 q 394 1281 374 1246 q 448 1336 415 1316 q 524 1357 481 1357 q 596 1341 567 1357 q 645 1302 625 1324 q 678 1266 660 1285 q 724 1247 697 1247 q 801 1328 796 1247 q 805 1340 802 1336 q 817 1343 807 1343 l 840 1343 q 851 1340 849 1343 q 853 1328 853 1336 q 836 1240 851 1276 q 791 1185 821 1204 q 713 1167 760 1167 m 867 965 l 743 965 q 726 970 730 965 q 722 988 722 974 l 722 1015 q 728 1037 722 1033 q 750 1042 733 1042 l 1101 1042 q 1126 1038 1119 1042 q 1132 1015 1132 1033 l 1132 991 q 1126 969 1132 974 q 1103 965 1119 965 l 1010 965 q 985 961 990 965 q 979 938 979 957 l 979 417 q 888 86 979 193 q 590 -21 797 -21 q 402 11 479 -21 q 278 102 325 44 q 209 241 231 161 q 188 417 188 322 l 188 937 q 179 961 188 957 q 153 965 171 965 l 58 965 q 38 972 41 965 q 35 995 35 978 l 35 1017 q 42 1038 35 1034 q 64 1042 49 1042 l 454 1042 q 478 1038 471 1042 q 486 1016 486 1034 l 486 997 q 480 970 486 975 q 453 965 473 965 l 354 965 q 326 961 332 965 q 319 934 319 956 l 319 431 q 345 242 319 325 q 434 110 370 158 q 611 63 497 63 q 780 98 718 63 q 869 212 842 134 q 896 417 896 290 l 896 934 q 891 960 896 954 q 867 965 887 965 "},"Ū":{"ha":1167,"x_min":35,"x_max":1132,"o":"m 442 1189 l 442 1212 q 444 1226 442 1222 q 456 1231 447 1231 l 751 1231 q 770 1227 765 1231 q 775 1209 775 1223 l 775 1188 q 773 1172 775 1176 q 760 1167 771 1167 l 466 1167 q 447 1170 453 1167 q 442 1189 442 1174 m 867 965 l 743 965 q 726 970 730 965 q 722 988 722 974 l 722 1015 q 728 1037 722 1033 q 750 1042 733 1042 l 1101 1042 q 1126 1038 1119 1042 q 1132 1015 1132 1033 l 1132 991 q 1126 969 1132 974 q 1103 965 1119 965 l 1010 965 q 985 961 990 965 q 979 938 979 957 l 979 417 q 888 86 979 193 q 590 -21 797 -21 q 402 11 479 -21 q 278 102 325 44 q 209 241 231 161 q 188 417 188 322 l 188 937 q 179 961 188 957 q 153 965 171 965 l 58 965 q 38 972 41 965 q 35 995 35 978 l 35 1017 q 42 1038 35 1034 q 64 1042 49 1042 l 454 1042 q 478 1038 471 1042 q 486 1016 486 1034 l 486 997 q 480 970 486 975 q 453 965 473 965 l 354 965 q 326 961 332 965 q 319 934 319 956 l 319 431 q 345 242 319 325 q 434 110 370 158 q 611 63 497 63 q 780 98 718 63 q 869 212 842 134 q 896 417 896 290 l 896 934 q 891 960 896 954 q 867 965 887 965 "},"Ŭ":{"ha":1167,"x_min":35,"x_max":1132,"o":"m 608 1167 q 485 1212 519 1167 q 450 1333 451 1258 q 466 1346 450 1346 l 479 1346 q 492 1335 491 1346 q 526 1266 495 1288 q 608 1243 558 1243 q 688 1263 656 1243 q 726 1326 719 1283 q 727 1341 727 1335 q 740 1346 727 1346 l 755 1346 q 768 1343 766 1346 q 769 1329 769 1340 q 731 1211 766 1256 q 608 1167 697 1167 m 867 965 l 743 965 q 726 970 730 965 q 722 988 722 974 l 722 1015 q 728 1037 722 1033 q 750 1042 733 1042 l 1101 1042 q 1126 1038 1119 1042 q 1132 1015 1132 1033 l 1132 991 q 1126 969 1132 974 q 1103 965 1119 965 l 1010 965 q 985 961 990 965 q 979 938 979 957 l 979 417 q 888 86 979 193 q 590 -21 797 -21 q 402 11 479 -21 q 278 102 325 44 q 209 241 231 161 q 188 417 188 322 l 188 937 q 179 961 188 957 q 153 965 171 965 l 58 965 q 38 972 41 965 q 35 995 35 978 l 35 1017 q 42 1038 35 1034 q 64 1042 49 1042 l 454 1042 q 478 1038 471 1042 q 486 1016 486 1034 l 486 997 q 480 970 486 975 q 453 965 473 965 l 354 965 q 326 961 332 965 q 319 934 319 956 l 319 431 q 345 242 319 325 q 434 110 370 158 q 611 63 497 63 q 780 98 718 63 q 869 212 842 134 q 896 417 896 290 l 896 934 q 891 960 896 954 q 867 965 887 965 "},"Ů":{"ha":1167,"x_min":35,"x_max":1132,"o":"m 608 1167 q 545 1183 574 1167 q 500 1228 517 1199 q 484 1291 484 1256 q 500 1355 484 1326 q 545 1400 517 1383 q 608 1417 574 1417 q 672 1400 644 1417 q 717 1355 701 1383 q 733 1291 733 1326 q 717 1228 733 1256 q 672 1183 700 1199 q 608 1167 644 1167 m 608 1218 q 659 1238 640 1218 q 679 1291 679 1258 q 659 1345 679 1324 q 608 1366 640 1366 q 558 1345 577 1366 q 538 1291 538 1324 q 558 1238 538 1258 q 608 1218 577 1218 m 867 965 l 743 965 q 726 970 730 965 q 722 988 722 974 l 722 1015 q 728 1037 722 1033 q 750 1042 733 1042 l 1101 1042 q 1126 1038 1119 1042 q 1132 1015 1132 1033 l 1132 991 q 1126 969 1132 974 q 1103 965 1119 965 l 1010 965 q 985 961 990 965 q 979 938 979 957 l 979 417 q 888 86 979 193 q 590 -21 797 -21 q 402 11 479 -21 q 278 102 325 44 q 209 241 231 161 q 188 417 188 322 l 188 937 q 179 961 188 957 q 153 965 171 965 l 58 965 q 38 972 41 965 q 35 995 35 978 l 35 1017 q 42 1038 35 1034 q 64 1042 49 1042 l 454 1042 q 478 1038 471 1042 q 486 1016 486 1034 l 486 997 q 480 970 486 975 q 453 965 473 965 l 354 965 q 326 961 332 965 q 319 934 319 956 l 319 431 q 345 242 319 325 q 434 110 370 158 q 611 63 497 63 q 780 98 718 63 q 869 212 842 134 q 896 417 896 290 l 896 934 q 891 960 896 954 q 867 965 887 965 "},"Ű":{"ha":1167,"x_min":35,"x_max":1132,"o":"m 715 1167 l 699 1184 q 687 1200 688 1196 q 697 1215 686 1204 l 829 1344 q 862 1362 844 1360 q 896 1357 880 1364 q 922 1336 912 1349 q 930 1292 936 1317 q 902 1255 924 1268 l 740 1160 q 726 1157 731 1155 q 715 1167 722 1158 m 425 1170 l 410 1185 q 402 1203 399 1197 q 416 1219 405 1209 l 544 1344 q 576 1362 559 1360 q 608 1358 593 1365 q 633 1338 624 1351 q 644 1294 648 1319 q 617 1255 641 1269 l 471 1172 q 446 1159 454 1162 q 425 1170 438 1156 m 867 965 l 743 965 q 726 970 730 965 q 722 988 722 974 l 722 1015 q 728 1037 722 1033 q 750 1042 733 1042 l 1101 1042 q 1126 1038 1119 1042 q 1132 1015 1132 1033 l 1132 991 q 1126 969 1132 974 q 1103 965 1119 965 l 1010 965 q 985 961 990 965 q 979 938 979 957 l 979 417 q 888 86 979 193 q 590 -21 797 -21 q 402 11 479 -21 q 278 102 325 44 q 209 241 231 161 q 188 417 188 322 l 188 937 q 179 961 188 957 q 153 965 171 965 l 58 965 q 38 972 41 965 q 35 995 35 978 l 35 1017 q 42 1038 35 1034 q 64 1042 49 1042 l 454 1042 q 478 1038 471 1042 q 486 1016 486 1034 l 486 997 q 480 970 486 975 q 453 965 473 965 l 354 965 q 326 961 332 965 q 319 934 319 956 l 319 431 q 345 242 319 325 q 434 110 370 158 q 611 63 497 63 q 780 98 718 63 q 869 212 842 134 q 896 417 896 290 l 896 934 q 891 960 896 954 q 867 965 887 965 "},"Ų":{"ha":1167,"x_min":35,"x_max":1132,"o":"m 669 -291 q 565 -268 610 -291 q 519 -185 519 -245 q 536 -128 519 -156 q 580 -74 553 -100 q 638 -26 607 -49 q 697 16 669 -3 q 717 26 708 24 q 730 23 726 28 q 730 10 735 17 q 717 -8 726 2 q 685 -48 701 -26 q 659 -97 669 -71 q 649 -151 649 -122 q 664 -200 649 -177 q 715 -224 678 -224 q 759 -211 740 -224 q 788 -181 777 -198 q 808 -176 797 -167 l 818 -183 q 825 -192 825 -188 q 821 -203 825 -195 q 765 -266 800 -241 q 669 -291 731 -291 m 867 965 l 743 965 q 726 970 730 965 q 722 988 722 974 l 722 1015 q 728 1037 722 1033 q 750 1042 733 1042 l 1101 1042 q 1126 1038 1119 1042 q 1132 1015 1132 1033 l 1132 991 q 1126 969 1132 974 q 1103 965 1119 965 l 1010 965 q 985 961 990 965 q 979 938 979 957 l 979 417 q 888 86 979 193 q 590 -21 797 -21 q 402 11 479 -21 q 278 102 325 44 q 209 241 231 161 q 188 417 188 322 l 188 937 q 179 961 188 957 q 153 965 171 965 l 58 965 q 38 972 41 965 q 35 995 35 978 l 35 1017 q 42 1038 35 1034 q 64 1042 49 1042 l 454 1042 q 478 1038 471 1042 q 486 1016 486 1034 l 486 997 q 480 970 486 975 q 453 965 473 965 l 354 965 q 326 961 332 965 q 319 934 319 956 l 319 431 q 345 242 319 325 q 434 110 370 158 q 611 63 497 63 q 780 98 718 63 q 869 212 842 134 q 896 417 896 290 l 896 934 q 891 960 896 954 q 867 965 887 965 "},"V":{"ha":1194,"x_min":0,"x_max":1194,"o":"m 674 233 l 963 935 q 964 960 971 955 q 928 965 958 965 l 830 965 q 810 969 815 965 q 806 986 806 972 l 806 1020 q 809 1038 806 1033 q 826 1042 813 1042 l 1174 1042 q 1192 1036 1189 1042 q 1194 1016 1194 1031 l 1194 990 q 1192 971 1194 977 q 1176 965 1190 965 l 1083 965 q 1053 958 1060 965 q 1040 935 1046 951 l 657 7 q 650 -7 654 -1 q 640 -17 647 -14 q 622 -21 634 -21 l 601 -21 q 572 -15 580 -21 q 558 6 564 -8 l 166 944 q 156 961 160 958 q 131 965 151 965 l 22 965 q 3 971 7 965 q 0 992 0 976 l 0 1015 q 5 1037 0 1032 q 26 1042 10 1042 l 432 1042 q 455 1035 451 1042 q 458 1009 458 1029 l 458 999 q 453 971 458 977 q 426 965 448 965 l 353 965 q 319 957 323 965 q 323 930 315 949 l 599 244 q 623 194 613 210 q 640 178 632 178 q 655 192 647 178 q 674 233 663 206 "},"W":{"ha":1639,"x_min":0,"x_max":1639,"o":"m 581 224 l 792 803 q 804 840 800 825 q 801 878 808 854 l 781 939 q 768 960 776 955 q 740 965 760 965 l 678 965 q 657 971 660 965 q 653 996 653 977 l 653 1008 q 658 1036 653 1031 q 685 1042 664 1042 l 1016 1042 q 1037 1037 1032 1042 q 1042 1015 1042 1032 l 1042 997 q 1031 969 1042 974 q 999 965 1021 965 l 959 965 q 922 959 931 965 q 920 931 913 953 l 1115 282 q 1123 245 1119 265 q 1130 211 1126 226 q 1138 197 1134 197 q 1148 203 1143 197 q 1160 232 1153 210 l 1397 943 q 1402 962 1403 959 q 1378 965 1401 965 l 1276 965 q 1254 971 1258 965 q 1250 996 1250 977 l 1250 1007 q 1254 1035 1250 1028 q 1280 1042 1258 1042 l 1605 1042 q 1632 1038 1626 1042 q 1639 1013 1639 1033 l 1639 996 q 1633 970 1639 976 q 1608 965 1628 965 l 1512 965 q 1486 960 1490 965 q 1476 939 1482 955 l 1166 6 q 1157 -11 1161 -8 q 1135 -14 1153 -14 l 1106 -14 q 1082 -9 1088 -14 q 1072 11 1076 -3 l 887 601 q 875 649 880 624 q 864 693 869 675 q 851 712 859 712 q 826 671 841 712 l 587 14 q 577 -8 581 -2 q 549 -14 573 -14 l 520 -14 q 494 -7 501 -14 q 483 14 488 1 l 159 938 q 144 960 153 955 q 113 965 136 965 l 28 965 q 5 970 10 965 q 0 992 0 974 l 0 1010 q 5 1036 0 1031 q 30 1042 10 1042 l 420 1042 q 449 1035 440 1042 q 458 1007 458 1028 l 458 990 q 451 969 458 973 q 427 965 443 965 l 334 965 q 300 957 304 965 q 302 929 295 949 l 516 297 q 529 249 524 276 q 541 204 535 223 q 556 185 547 185 q 567 194 561 185 q 581 224 573 203 "},"Ŵ":{"ha":1639,"x_min":0,"x_max":1639,"o":"m 673 1174 l 658 1190 q 650 1201 650 1198 q 658 1211 650 1203 l 788 1342 q 803 1351 796 1349 q 825 1353 810 1353 l 884 1353 q 904 1351 898 1353 q 916 1342 910 1348 l 1049 1208 q 1055 1201 1055 1203 q 1050 1194 1056 1199 l 1027 1171 q 1017 1164 1019 1163 q 1005 1170 1014 1164 l 869 1271 q 835 1272 851 1284 l 698 1169 q 673 1174 686 1160 m 581 224 l 792 803 q 804 840 800 825 q 801 878 808 854 l 781 939 q 768 960 776 955 q 740 965 760 965 l 678 965 q 657 971 660 965 q 653 996 653 977 l 653 1008 q 658 1036 653 1031 q 685 1042 664 1042 l 1016 1042 q 1037 1037 1032 1042 q 1042 1015 1042 1032 l 1042 997 q 1031 969 1042 974 q 999 965 1021 965 l 959 965 q 922 959 931 965 q 920 931 913 953 l 1115 282 q 1123 245 1119 265 q 1130 211 1126 226 q 1138 197 1134 197 q 1148 203 1143 197 q 1160 232 1153 210 l 1397 943 q 1402 962 1403 959 q 1378 965 1401 965 l 1276 965 q 1254 971 1258 965 q 1250 996 1250 977 l 1250 1007 q 1254 1035 1250 1028 q 1280 1042 1258 1042 l 1605 1042 q 1632 1038 1626 1042 q 1639 1013 1639 1033 l 1639 996 q 1633 970 1639 976 q 1608 965 1628 965 l 1512 965 q 1486 960 1490 965 q 1476 939 1482 955 l 1166 6 q 1157 -11 1161 -8 q 1135 -14 1153 -14 l 1106 -14 q 1082 -9 1088 -14 q 1072 11 1076 -3 l 887 601 q 875 649 880 624 q 864 693 869 675 q 851 712 859 712 q 826 671 841 712 l 587 14 q 577 -8 581 -2 q 549 -14 573 -14 l 520 -14 q 494 -7 501 -14 q 483 14 488 1 l 159 938 q 144 960 153 955 q 113 965 136 965 l 28 965 q 5 970 10 965 q 0 992 0 974 l 0 1010 q 5 1036 0 1031 q 30 1042 10 1042 l 420 1042 q 449 1035 440 1042 q 458 1007 458 1028 l 458 990 q 451 969 458 973 q 427 965 443 965 l 334 965 q 300 957 304 965 q 302 929 295 949 l 516 297 q 529 249 524 276 q 541 204 535 223 q 556 185 547 185 q 567 194 561 185 q 581 224 573 203 "},"Ẁ":{"ha":1639,"x_min":0,"x_max":1639,"o":"m 868 1159 l 704 1255 q 678 1286 687 1265 q 685 1333 670 1308 q 712 1356 695 1349 q 747 1360 728 1363 q 777 1344 765 1358 l 912 1213 q 913 1188 924 1201 l 889 1163 q 880 1156 883 1157 q 868 1159 876 1154 m 581 224 l 792 803 q 804 840 800 825 q 801 878 808 854 l 781 939 q 768 960 776 955 q 740 965 760 965 l 678 965 q 657 971 660 965 q 653 996 653 977 l 653 1008 q 658 1036 653 1031 q 685 1042 664 1042 l 1016 1042 q 1037 1037 1032 1042 q 1042 1015 1042 1032 l 1042 997 q 1031 969 1042 974 q 999 965 1021 965 l 959 965 q 922 959 931 965 q 920 931 913 953 l 1115 282 q 1123 245 1119 265 q 1130 211 1126 226 q 1138 197 1134 197 q 1148 203 1143 197 q 1160 232 1153 210 l 1397 943 q 1402 962 1403 959 q 1378 965 1401 965 l 1276 965 q 1254 971 1258 965 q 1250 996 1250 977 l 1250 1007 q 1254 1035 1250 1028 q 1280 1042 1258 1042 l 1605 1042 q 1632 1038 1626 1042 q 1639 1013 1639 1033 l 1639 996 q 1633 970 1639 976 q 1608 965 1628 965 l 1512 965 q 1486 960 1490 965 q 1476 939 1482 955 l 1166 6 q 1157 -11 1161 -8 q 1135 -14 1153 -14 l 1106 -14 q 1082 -9 1088 -14 q 1072 11 1076 -3 l 887 601 q 875 649 880 624 q 864 693 869 675 q 851 712 859 712 q 826 671 841 712 l 587 14 q 577 -8 581 -2 q 549 -14 573 -14 l 520 -14 q 494 -7 501 -14 q 483 14 488 1 l 159 938 q 144 960 153 955 q 113 965 136 965 l 28 965 q 5 970 10 965 q 0 992 0 974 l 0 1010 q 5 1036 0 1031 q 30 1042 10 1042 l 420 1042 q 449 1035 440 1042 q 458 1007 458 1028 l 458 990 q 451 969 458 973 q 427 965 443 965 l 334 965 q 300 957 304 965 q 302 929 295 949 l 516 297 q 529 249 524 276 q 541 204 535 223 q 556 185 547 185 q 567 194 561 185 q 581 224 573 203 "},"Ẃ":{"ha":1639,"x_min":0,"x_max":1639,"o":"m 813 1165 l 790 1190 q 790 1212 778 1201 l 926 1344 q 957 1360 939 1358 q 991 1356 974 1363 q 1017 1333 1008 1349 q 1025 1286 1033 1308 q 999 1255 1017 1265 l 840 1163 q 826 1157 831 1157 q 813 1165 821 1156 m 581 224 l 792 803 q 804 840 800 825 q 801 878 808 854 l 781 939 q 768 960 776 955 q 740 965 760 965 l 678 965 q 657 971 660 965 q 653 996 653 977 l 653 1008 q 658 1036 653 1031 q 685 1042 664 1042 l 1016 1042 q 1037 1037 1032 1042 q 1042 1015 1042 1032 l 1042 997 q 1031 969 1042 974 q 999 965 1021 965 l 959 965 q 922 959 931 965 q 920 931 913 953 l 1115 282 q 1123 245 1119 265 q 1130 211 1126 226 q 1138 197 1134 197 q 1148 203 1143 197 q 1160 232 1153 210 l 1397 943 q 1402 962 1403 959 q 1378 965 1401 965 l 1276 965 q 1254 971 1258 965 q 1250 996 1250 977 l 1250 1007 q 1254 1035 1250 1028 q 1280 1042 1258 1042 l 1605 1042 q 1632 1038 1626 1042 q 1639 1013 1639 1033 l 1639 996 q 1633 970 1639 976 q 1608 965 1628 965 l 1512 965 q 1486 960 1490 965 q 1476 939 1482 955 l 1166 6 q 1157 -11 1161 -8 q 1135 -14 1153 -14 l 1106 -14 q 1082 -9 1088 -14 q 1072 11 1076 -3 l 887 601 q 875 649 880 624 q 864 693 869 675 q 851 712 859 712 q 826 671 841 712 l 587 14 q 577 -8 581 -2 q 549 -14 573 -14 l 520 -14 q 494 -7 501 -14 q 483 14 488 1 l 159 938 q 144 960 153 955 q 113 965 136 965 l 28 965 q 5 970 10 965 q 0 992 0 974 l 0 1010 q 5 1036 0 1031 q 30 1042 10 1042 l 420 1042 q 449 1035 440 1042 q 458 1007 458 1028 l 458 990 q 451 969 458 973 q 427 965 443 965 l 334 965 q 300 957 304 965 q 302 929 295 949 l 516 297 q 529 249 524 276 q 541 204 535 223 q 556 185 547 185 q 567 194 561 185 q 581 224 573 203 "},"Ẅ":{"ha":1639,"x_min":0,"x_max":1639,"o":"m 962 1174 q 915 1193 934 1174 q 895 1240 895 1213 q 915 1288 895 1268 q 962 1308 934 1308 q 1009 1288 990 1308 q 1028 1240 1028 1268 q 1009 1193 1028 1213 q 962 1174 990 1174 m 740 1174 q 692 1193 712 1174 q 673 1240 673 1213 q 692 1288 673 1268 q 740 1308 712 1308 q 787 1288 767 1308 q 806 1240 806 1268 q 787 1193 806 1213 q 740 1174 767 1174 m 581 224 l 792 803 q 804 840 800 825 q 801 878 808 854 l 781 939 q 768 960 776 955 q 740 965 760 965 l 678 965 q 657 971 660 965 q 653 996 653 977 l 653 1008 q 658 1036 653 1031 q 685 1042 664 1042 l 1016 1042 q 1037 1037 1032 1042 q 1042 1015 1042 1032 l 1042 997 q 1031 969 1042 974 q 999 965 1021 965 l 959 965 q 922 959 931 965 q 920 931 913 953 l 1115 282 q 1123 245 1119 265 q 1130 211 1126 226 q 1138 197 1134 197 q 1148 203 1143 197 q 1160 232 1153 210 l 1397 943 q 1402 962 1403 959 q 1378 965 1401 965 l 1276 965 q 1254 971 1258 965 q 1250 996 1250 977 l 1250 1007 q 1254 1035 1250 1028 q 1280 1042 1258 1042 l 1605 1042 q 1632 1038 1626 1042 q 1639 1013 1639 1033 l 1639 996 q 1633 970 1639 976 q 1608 965 1628 965 l 1512 965 q 1486 960 1490 965 q 1476 939 1482 955 l 1166 6 q 1157 -11 1161 -8 q 1135 -14 1153 -14 l 1106 -14 q 1082 -9 1088 -14 q 1072 11 1076 -3 l 887 601 q 875 649 880 624 q 864 693 869 675 q 851 712 859 712 q 826 671 841 712 l 587 14 q 577 -8 581 -2 q 549 -14 573 -14 l 520 -14 q 494 -7 501 -14 q 483 14 488 1 l 159 938 q 144 960 153 955 q 113 965 136 965 l 28 965 q 5 970 10 965 q 0 992 0 974 l 0 1010 q 5 1036 0 1031 q 30 1042 10 1042 l 420 1042 q 449 1035 440 1042 q 458 1007 458 1028 l 458 990 q 451 969 458 973 q 427 965 443 965 l 334 965 q 300 957 304 965 q 302 929 295 949 l 516 297 q 529 249 524 276 q 541 204 535 223 q 556 185 547 185 q 567 194 561 185 q 581 224 573 203 "},"Ẇ":{"ha":1639,"x_min":0,"x_max":1639,"o":"m 854 1201 q 795 1226 820 1201 q 771 1285 771 1251 q 795 1344 771 1319 q 854 1368 820 1368 q 913 1344 889 1368 q 938 1285 938 1319 q 913 1226 938 1251 q 854 1201 889 1201 m 581 224 l 792 803 q 804 840 800 825 q 801 878 808 854 l 781 939 q 768 960 776 955 q 740 965 760 965 l 678 965 q 657 971 660 965 q 653 996 653 977 l 653 1008 q 658 1036 653 1031 q 685 1042 664 1042 l 1016 1042 q 1037 1037 1032 1042 q 1042 1015 1042 1032 l 1042 997 q 1031 969 1042 974 q 999 965 1021 965 l 959 965 q 922 959 931 965 q 920 931 913 953 l 1115 282 q 1123 245 1119 265 q 1130 211 1126 226 q 1138 197 1134 197 q 1148 203 1143 197 q 1160 232 1153 210 l 1397 943 q 1402 962 1403 959 q 1378 965 1401 965 l 1276 965 q 1254 971 1258 965 q 1250 996 1250 977 l 1250 1007 q 1254 1035 1250 1028 q 1280 1042 1258 1042 l 1605 1042 q 1632 1038 1626 1042 q 1639 1013 1639 1033 l 1639 996 q 1633 970 1639 976 q 1608 965 1628 965 l 1512 965 q 1486 960 1490 965 q 1476 939 1482 955 l 1166 6 q 1157 -11 1161 -8 q 1135 -14 1153 -14 l 1106 -14 q 1082 -9 1088 -14 q 1072 11 1076 -3 l 887 601 q 875 649 880 624 q 864 693 869 675 q 851 712 859 712 q 826 671 841 712 l 587 14 q 577 -8 581 -2 q 549 -14 573 -14 l 520 -14 q 494 -7 501 -14 q 483 14 488 1 l 159 938 q 144 960 153 955 q 113 965 136 965 l 28 965 q 5 970 10 965 q 0 992 0 974 l 0 1010 q 5 1036 0 1031 q 30 1042 10 1042 l 420 1042 q 449 1035 440 1042 q 458 1007 458 1028 l 458 990 q 451 969 458 973 q 427 965 443 965 l 334 965 q 300 957 304 965 q 302 929 295 949 l 516 297 q 529 249 524 276 q 541 204 535 223 q 556 185 547 185 q 567 194 561 185 q 581 224 573 203 "},"Ẉ":{"ha":1639,"x_min":0,"x_max":1639,"o":"m 824 -285 q 766 -260 790 -285 q 741 -201 741 -235 q 766 -142 741 -166 q 824 -117 790 -117 q 883 -142 859 -117 q 908 -201 908 -166 q 883 -260 908 -235 q 824 -285 859 -285 m 581 224 l 792 803 q 804 840 800 825 q 801 878 808 854 l 781 939 q 768 960 776 955 q 740 965 760 965 l 678 965 q 657 971 660 965 q 653 996 653 977 l 653 1008 q 658 1036 653 1031 q 685 1042 664 1042 l 1016 1042 q 1037 1037 1032 1042 q 1042 1015 1042 1032 l 1042 997 q 1031 969 1042 974 q 999 965 1021 965 l 959 965 q 922 959 931 965 q 920 931 913 953 l 1115 282 q 1123 245 1119 265 q 1130 211 1126 226 q 1138 197 1134 197 q 1148 203 1143 197 q 1160 232 1153 210 l 1397 943 q 1402 962 1403 959 q 1378 965 1401 965 l 1276 965 q 1254 971 1258 965 q 1250 996 1250 977 l 1250 1007 q 1254 1035 1250 1028 q 1280 1042 1258 1042 l 1605 1042 q 1632 1038 1626 1042 q 1639 1013 1639 1033 l 1639 996 q 1633 970 1639 976 q 1608 965 1628 965 l 1512 965 q 1486 960 1490 965 q 1476 939 1482 955 l 1166 6 q 1157 -11 1161 -8 q 1135 -14 1153 -14 l 1106 -14 q 1082 -9 1088 -14 q 1072 11 1076 -3 l 887 601 q 875 649 880 624 q 864 693 869 675 q 851 712 859 712 q 826 671 841 712 l 587 14 q 577 -8 581 -2 q 549 -14 573 -14 l 520 -14 q 494 -7 501 -14 q 483 14 488 1 l 159 938 q 144 960 153 955 q 113 965 136 965 l 28 965 q 5 970 10 965 q 0 992 0 974 l 0 1010 q 5 1036 0 1031 q 30 1042 10 1042 l 420 1042 q 449 1035 440 1042 q 458 1007 458 1028 l 458 990 q 451 969 458 973 q 427 965 443 965 l 334 965 q 300 957 304 965 q 302 929 295 949 l 516 297 q 529 249 524 276 q 541 204 535 223 q 556 185 547 185 q 567 194 561 185 q 581 224 573 203 "},"X":{"ha":1208,"x_min":14,"x_max":1194,"o":"m 14 24 l 14 60 q 18 73 14 70 q 31 76 23 76 l 148 76 q 180 81 172 76 q 197 98 187 85 l 509 491 q 528 522 525 511 q 524 544 531 533 q 501 574 517 555 l 220 944 q 206 961 211 956 q 178 965 200 965 l 94 965 q 70 969 78 965 q 63 990 63 973 l 63 1019 q 66 1038 63 1033 q 83 1042 70 1042 l 498 1042 q 515 1039 510 1042 q 521 1025 521 1037 l 521 987 q 517 969 521 974 q 501 965 513 965 l 408 965 q 383 964 391 965 q 374 958 374 963 q 381 945 374 954 l 600 660 q 629 631 622 631 q 658 660 635 631 l 878 943 q 887 961 889 957 q 858 965 885 965 l 757 965 q 735 968 742 965 q 729 986 729 971 l 729 1020 q 734 1038 729 1034 q 751 1042 738 1042 l 1115 1042 q 1139 1038 1133 1042 q 1146 1013 1146 1033 l 1146 987 q 1141 969 1146 974 q 1123 965 1136 965 l 1008 965 q 984 960 989 965 q 971 946 978 956 l 713 610 q 689 577 696 589 q 686 553 682 565 q 708 519 691 542 l 1027 103 q 1047 82 1039 88 q 1083 76 1055 76 l 1167 76 q 1189 72 1183 76 q 1194 52 1194 68 l 1194 26 q 1191 6 1194 11 q 1172 0 1188 0 l 758 0 q 741 3 745 0 q 736 19 736 7 l 736 55 q 742 73 736 69 q 761 76 748 76 l 857 76 q 874 83 877 76 q 864 98 870 90 l 616 424 q 582 458 590 458 q 548 424 574 458 l 299 107 q 291 83 285 90 q 332 76 296 76 l 407 76 q 426 73 421 76 q 431 55 431 69 l 431 22 q 427 5 431 9 q 411 0 424 0 l 35 0 q 18 5 22 0 q 14 24 14 10 "},"Y":{"ha":1090,"x_min":0,"x_max":1090,"o":"m 340 24 l 340 49 q 347 72 340 68 q 371 76 353 76 l 465 76 q 488 81 483 76 q 493 103 493 85 l 493 375 q 490 423 493 406 q 474 457 486 440 l 151 940 q 133 961 141 956 q 97 965 126 965 l 24 965 q 5 968 10 965 q 0 983 0 970 l 0 1015 q 4 1036 0 1031 q 24 1042 8 1042 l 435 1042 q 454 1037 450 1042 q 458 1017 458 1033 l 458 994 q 454 971 458 976 q 432 965 450 965 l 336 965 q 302 959 308 965 q 305 939 296 953 l 553 569 q 571 545 565 551 q 582 545 576 539 q 600 571 588 552 l 838 936 q 846 961 851 958 q 806 965 841 965 l 697 965 q 678 970 682 965 q 674 989 674 975 l 674 1013 q 677 1036 674 1031 q 699 1042 681 1042 l 1068 1042 q 1087 1036 1084 1042 q 1090 1014 1090 1030 l 1090 994 q 1084 970 1090 975 q 1058 965 1078 965 l 992 965 q 948 955 956 965 q 927 925 940 945 l 647 496 q 631 464 636 478 q 625 418 625 450 l 625 104 q 628 80 625 83 q 653 76 632 76 l 771 76 q 787 74 783 76 q 792 60 792 71 l 792 28 q 784 4 792 8 q 757 0 776 0 l 372 0 q 349 3 357 0 q 340 24 340 6 "},"Ý":{"ha":1090,"x_min":0,"x_max":1090,"o":"m 528 1165 l 505 1190 q 505 1212 494 1201 l 641 1344 q 672 1360 654 1358 q 707 1356 690 1363 q 733 1333 724 1349 q 740 1286 748 1308 q 714 1255 732 1265 l 556 1163 q 541 1157 547 1157 q 528 1165 536 1156 m 340 24 l 340 49 q 347 72 340 68 q 371 76 353 76 l 465 76 q 488 81 483 76 q 493 103 493 85 l 493 375 q 490 423 493 406 q 474 457 486 440 l 151 940 q 133 961 141 956 q 97 965 126 965 l 24 965 q 5 968 10 965 q 0 983 0 970 l 0 1015 q 4 1036 0 1031 q 24 1042 8 1042 l 435 1042 q 454 1037 450 1042 q 458 1017 458 1033 l 458 994 q 454 971 458 976 q 432 965 450 965 l 336 965 q 302 959 308 965 q 305 939 296 953 l 553 569 q 571 545 565 551 q 582 545 576 539 q 600 571 588 552 l 838 936 q 846 961 851 958 q 806 965 841 965 l 697 965 q 678 970 682 965 q 674 989 674 975 l 674 1013 q 677 1036 674 1031 q 699 1042 681 1042 l 1068 1042 q 1087 1036 1084 1042 q 1090 1014 1090 1030 l 1090 994 q 1084 970 1090 975 q 1058 965 1078 965 l 992 965 q 948 955 956 965 q 927 925 940 945 l 647 496 q 631 464 636 478 q 625 418 625 450 l 625 104 q 628 80 625 83 q 653 76 632 76 l 771 76 q 787 74 783 76 q 792 60 792 71 l 792 28 q 784 4 792 8 q 757 0 776 0 l 372 0 q 349 3 357 0 q 340 24 340 6 "},"Ŷ":{"ha":1090,"x_min":0,"x_max":1090,"o":"m 388 1174 l 373 1190 q 365 1201 365 1198 q 373 1211 365 1203 l 503 1342 q 518 1351 511 1349 q 540 1353 525 1353 l 599 1353 q 619 1351 613 1353 q 631 1342 625 1348 l 765 1208 q 770 1201 770 1203 q 765 1194 771 1199 l 742 1171 q 732 1164 735 1163 q 720 1170 729 1164 l 585 1271 q 550 1272 567 1284 l 413 1169 q 388 1174 401 1160 m 340 24 l 340 49 q 347 72 340 68 q 371 76 353 76 l 465 76 q 488 81 483 76 q 493 103 493 85 l 493 375 q 490 423 493 406 q 474 457 486 440 l 151 940 q 133 961 141 956 q 97 965 126 965 l 24 965 q 5 968 10 965 q 0 983 0 970 l 0 1015 q 4 1036 0 1031 q 24 1042 8 1042 l 435 1042 q 454 1037 450 1042 q 458 1017 458 1033 l 458 994 q 454 971 458 976 q 432 965 450 965 l 336 965 q 302 959 308 965 q 305 939 296 953 l 553 569 q 571 545 565 551 q 582 545 576 539 q 600 571 588 552 l 838 936 q 846 961 851 958 q 806 965 841 965 l 697 965 q 678 970 682 965 q 674 989 674 975 l 674 1013 q 677 1036 674 1031 q 699 1042 681 1042 l 1068 1042 q 1087 1036 1084 1042 q 1090 1014 1090 1030 l 1090 994 q 1084 970 1090 975 q 1058 965 1078 965 l 992 965 q 948 955 956 965 q 927 925 940 945 l 647 496 q 631 464 636 478 q 625 418 625 450 l 625 104 q 628 80 625 83 q 653 76 632 76 l 771 76 q 787 74 783 76 q 792 60 792 71 l 792 28 q 784 4 792 8 q 757 0 776 0 l 372 0 q 349 3 357 0 q 340 24 340 6 "},"Ÿ":{"ha":1090,"x_min":0,"x_max":1090,"o":"m 677 1174 q 630 1193 649 1174 q 610 1240 610 1213 q 630 1288 610 1268 q 677 1308 649 1308 q 724 1288 705 1308 q 744 1240 744 1268 q 724 1193 744 1213 q 677 1174 705 1174 m 455 1174 q 408 1193 427 1174 q 388 1240 388 1213 q 408 1288 388 1268 q 455 1308 427 1308 q 502 1288 483 1308 q 522 1240 522 1268 q 502 1193 522 1213 q 455 1174 483 1174 m 340 24 l 340 49 q 347 72 340 68 q 371 76 353 76 l 465 76 q 488 81 483 76 q 493 103 493 85 l 493 375 q 490 423 493 406 q 474 457 486 440 l 151 940 q 133 961 141 956 q 97 965 126 965 l 24 965 q 5 968 10 965 q 0 983 0 970 l 0 1015 q 4 1036 0 1031 q 24 1042 8 1042 l 435 1042 q 454 1037 450 1042 q 458 1017 458 1033 l 458 994 q 454 971 458 976 q 432 965 450 965 l 336 965 q 302 959 308 965 q 305 939 296 953 l 553 569 q 571 545 565 551 q 582 545 576 539 q 600 571 588 552 l 838 936 q 846 961 851 958 q 806 965 841 965 l 697 965 q 678 970 682 965 q 674 989 674 975 l 674 1013 q 677 1036 674 1031 q 699 1042 681 1042 l 1068 1042 q 1087 1036 1084 1042 q 1090 1014 1090 1030 l 1090 994 q 1084 970 1090 975 q 1058 965 1078 965 l 992 965 q 948 955 956 965 q 927 925 940 945 l 647 496 q 631 464 636 478 q 625 418 625 450 l 625 104 q 628 80 625 83 q 653 76 632 76 l 771 76 q 787 74 783 76 q 792 60 792 71 l 792 28 q 784 4 792 8 q 757 0 776 0 l 372 0 q 349 3 357 0 q 340 24 340 6 "},"Ỳ":{"ha":1090,"x_min":0,"x_max":1090,"o":"m 583 1159 l 419 1255 q 394 1286 402 1265 q 401 1333 385 1308 q 427 1356 410 1349 q 462 1360 444 1363 q 492 1344 480 1358 l 627 1213 q 628 1188 640 1201 l 604 1163 q 595 1156 599 1157 q 583 1159 591 1154 m 340 24 l 340 49 q 347 72 340 68 q 371 76 353 76 l 465 76 q 488 81 483 76 q 493 103 493 85 l 493 375 q 490 423 493 406 q 474 457 486 440 l 151 940 q 133 961 141 956 q 97 965 126 965 l 24 965 q 5 968 10 965 q 0 983 0 970 l 0 1015 q 4 1036 0 1031 q 24 1042 8 1042 l 435 1042 q 454 1037 450 1042 q 458 1017 458 1033 l 458 994 q 454 971 458 976 q 432 965 450 965 l 336 965 q 302 959 308 965 q 305 939 296 953 l 553 569 q 571 545 565 551 q 582 545 576 539 q 600 571 588 552 l 838 936 q 846 961 851 958 q 806 965 841 965 l 697 965 q 678 970 682 965 q 674 989 674 975 l 674 1013 q 677 1036 674 1031 q 699 1042 681 1042 l 1068 1042 q 1087 1036 1084 1042 q 1090 1014 1090 1030 l 1090 994 q 1084 970 1090 975 q 1058 965 1078 965 l 992 965 q 948 955 956 965 q 927 925 940 945 l 647 496 q 631 464 636 478 q 625 418 625 450 l 625 104 q 628 80 625 83 q 653 76 632 76 l 771 76 q 787 74 783 76 q 792 60 792 71 l 792 28 q 784 4 792 8 q 757 0 776 0 l 372 0 q 349 3 357 0 q 340 24 340 6 "},"Z":{"ha":1049,"x_min":63,"x_max":979,"o":"m 158 1042 l 904 1042 q 920 1037 917 1042 q 924 1018 924 1032 l 924 996 q 915 957 924 971 q 895 929 906 943 l 290 163 q 253 123 273 140 q 233 92 233 106 q 238 81 233 85 q 258 76 243 76 l 674 76 q 815 98 765 76 q 886 174 865 119 q 910 325 908 228 q 913 347 910 339 q 931 354 916 354 l 956 354 q 976 347 972 354 q 979 325 979 340 l 979 40 q 972 6 979 13 q 936 0 965 0 l 89 0 q 68 4 74 0 q 63 24 63 8 l 63 43 q 66 74 63 63 q 78 95 69 85 l 697 881 q 732 918 713 900 q 752 953 752 936 q 707 965 752 965 l 424 965 q 283 945 333 965 q 211 875 232 924 q 188 742 190 826 q 183 719 188 722 q 158 715 178 715 l 146 715 q 122 722 126 715 q 118 747 118 729 l 118 1008 q 126 1038 118 1033 q 158 1042 133 1042 "},"Ź":{"ha":1049,"x_min":63,"x_max":979,"o":"m 473 1165 l 449 1190 q 449 1212 438 1201 l 585 1344 q 616 1360 599 1358 q 651 1356 634 1363 q 677 1333 668 1349 q 684 1286 692 1308 q 658 1255 676 1265 l 500 1163 q 486 1157 491 1157 q 473 1165 481 1156 m 158 1042 l 904 1042 q 920 1037 917 1042 q 924 1018 924 1032 l 924 996 q 915 957 924 971 q 895 929 906 943 l 290 163 q 253 123 273 140 q 233 92 233 106 q 238 81 233 85 q 258 76 243 76 l 674 76 q 815 98 765 76 q 886 174 865 119 q 910 325 908 228 q 913 347 910 339 q 931 354 916 354 l 956 354 q 976 347 972 354 q 979 325 979 340 l 979 40 q 972 6 979 13 q 936 0 965 0 l 89 0 q 68 4 74 0 q 63 24 63 8 l 63 43 q 66 74 63 63 q 78 95 69 85 l 697 881 q 732 918 713 900 q 752 953 752 936 q 707 965 752 965 l 424 965 q 283 945 333 965 q 211 875 232 924 q 188 742 190 826 q 183 719 188 722 q 158 715 178 715 l 146 715 q 122 722 126 715 q 118 747 118 729 l 118 1008 q 126 1038 118 1033 q 158 1042 133 1042 "},"Ż":{"ha":1049,"x_min":63,"x_max":979,"o":"m 514 1201 q 455 1226 480 1201 q 431 1285 431 1251 q 455 1344 431 1319 q 514 1368 480 1368 q 573 1344 549 1368 q 597 1285 597 1319 q 573 1226 597 1251 q 514 1201 549 1201 m 158 1042 l 904 1042 q 920 1037 917 1042 q 924 1018 924 1032 l 924 996 q 915 957 924 971 q 895 929 906 943 l 290 163 q 253 123 273 140 q 233 92 233 106 q 238 81 233 85 q 258 76 243 76 l 674 76 q 815 98 765 76 q 886 174 865 119 q 910 325 908 228 q 913 347 910 339 q 931 354 916 354 l 956 354 q 976 347 972 354 q 979 325 979 340 l 979 40 q 972 6 979 13 q 936 0 965 0 l 89 0 q 68 4 74 0 q 63 24 63 8 l 63 43 q 66 74 63 63 q 78 95 69 85 l 697 881 q 732 918 713 900 q 752 953 752 936 q 707 965 752 965 l 424 965 q 283 945 333 965 q 211 875 232 924 q 188 742 190 826 q 183 719 188 722 q 158 715 178 715 l 146 715 q 122 722 126 715 q 118 747 118 729 l 118 1008 q 126 1038 118 1033 q 158 1042 133 1042 "},"Ž":{"ha":1049,"x_min":63,"x_max":979,"o":"m 436 1195 l 322 1310 q 311 1325 313 1319 q 319 1338 310 1330 l 332 1347 q 348 1355 343 1356 q 365 1346 353 1353 l 474 1275 q 511 1261 494 1262 q 547 1275 527 1261 l 663 1356 q 679 1361 674 1363 q 693 1349 684 1359 l 700 1344 q 711 1329 710 1335 q 703 1314 713 1324 l 581 1190 q 568 1178 573 1183 q 546 1174 563 1174 l 490 1174 q 457 1180 469 1174 q 436 1195 446 1185 m 158 1042 l 904 1042 q 920 1037 917 1042 q 924 1018 924 1032 l 924 996 q 915 957 924 971 q 895 929 906 943 l 290 163 q 253 123 273 140 q 233 92 233 106 q 238 81 233 85 q 258 76 243 76 l 674 76 q 815 98 765 76 q 886 174 865 119 q 910 325 908 228 q 913 347 910 339 q 931 354 916 354 l 956 354 q 976 347 972 354 q 979 325 979 340 l 979 40 q 972 6 979 13 q 936 0 965 0 l 89 0 q 68 4 74 0 q 63 24 63 8 l 63 43 q 66 74 63 63 q 78 95 69 85 l 697 881 q 732 918 713 900 q 752 953 752 936 q 707 965 752 965 l 424 965 q 283 945 333 965 q 211 875 232 924 q 188 742 190 826 q 183 719 188 722 q 158 715 178 715 l 146 715 q 122 722 126 715 q 118 747 118 729 l 118 1008 q 126 1038 118 1033 q 158 1042 133 1042 "},"Æ":{"ha":1740,"x_min":0,"x_max":1649,"o":"m 0 29 l 0 58 q 19 76 0 76 l 100 76 q 131 83 122 76 q 149 104 140 89 l 751 937 q 758 962 767 959 q 711 965 748 965 l 622 965 q 607 969 609 965 q 604 986 604 973 l 604 1022 q 608 1038 604 1034 q 624 1042 613 1042 l 1058 1042 q 1073 1038 1070 1042 q 1076 1022 1076 1035 l 1076 988 q 1074 970 1076 976 q 1057 965 1071 965 l 888 965 q 863 963 869 965 q 856 955 858 960 q 847 938 854 949 l 454 401 q 451 386 447 390 q 474 382 455 382 l 954 382 l 940 306 l 414 306 q 386 299 395 306 q 367 278 377 292 l 240 110 q 234 84 229 92 q 262 76 239 76 l 367 76 q 384 73 379 76 q 389 56 389 69 l 389 22 q 386 3 389 6 q 367 0 383 0 l 35 0 q 8 4 15 0 q 0 29 0 8 m 858 965 l 765 965 q 743 972 747 965 q 740 994 740 978 l 740 1015 q 744 1036 740 1031 q 763 1042 748 1042 l 1598 1042 q 1629 1037 1622 1042 q 1635 1008 1635 1033 l 1635 743 q 1635 721 1635 726 q 1616 715 1634 715 l 1588 715 q 1570 722 1573 715 q 1566 742 1567 728 q 1544 875 1564 826 q 1480 945 1524 924 q 1358 965 1435 965 l 1055 965 q 1030 960 1036 965 q 1024 935 1024 955 l 1024 597 q 1028 574 1024 582 q 1048 567 1031 567 l 1142 567 q 1265 605 1226 567 q 1308 704 1303 643 q 1313 722 1310 718 q 1327 726 1317 726 l 1350 726 q 1367 722 1362 726 q 1372 706 1372 717 l 1372 372 q 1368 350 1372 356 q 1349 344 1365 344 l 1326 344 q 1315 348 1320 344 q 1308 368 1309 352 q 1286 441 1304 409 q 1233 492 1268 474 q 1142 511 1198 511 l 1051 511 q 1028 505 1033 511 q 1024 481 1024 499 l 1024 107 q 1030 82 1024 88 q 1055 76 1035 76 l 1344 76 q 1486 99 1435 76 q 1558 176 1537 121 q 1580 332 1578 232 q 1584 350 1580 346 q 1597 354 1588 354 l 1623 354 q 1643 351 1636 354 q 1649 333 1649 347 l 1649 24 q 1645 5 1649 9 q 1627 0 1641 0 l 767 0 q 746 4 752 0 q 740 25 740 8 l 740 57 q 745 74 740 71 q 765 76 751 76 l 855 76 q 886 83 881 76 q 892 115 892 90 l 892 936 q 886 961 892 958 q 858 965 880 965 "},"Ð":{"ha":1142,"x_min":52,"x_max":1066,"o":"m 76 583 l 606 583 q 624 580 620 583 q 627 564 627 576 l 627 530 q 624 512 627 517 q 603 507 620 507 l 75 507 q 56 511 59 507 q 53 528 53 515 l 53 564 q 58 580 53 576 q 76 583 63 583 m 52 24 l 52 50 q 56 72 52 67 q 76 76 60 76 l 183 76 q 202 82 199 76 q 205 104 205 88 l 205 935 q 202 959 205 953 q 181 965 199 965 l 92 965 q 61 969 70 965 q 52 990 52 972 l 52 1022 q 63 1038 52 1035 q 90 1042 74 1042 l 566 1042 q 775 1002 682 1042 q 932 892 867 963 q 1032 727 997 822 q 1066 521 1066 632 q 1030 315 1066 410 q 927 149 994 220 q 769 39 860 78 q 566 0 677 0 l 76 0 q 57 5 61 0 q 52 24 52 9 m 365 76 l 566 76 q 768 135 694 76 q 874 294 842 193 q 906 521 906 394 q 872 748 906 647 q 762 907 837 849 q 566 965 687 965 l 367 965 q 342 960 347 965 q 337 935 337 955 l 337 100 q 342 80 337 83 q 365 76 348 76 "},"Ø":{"ha":1153,"x_min":76,"x_max":1076,"o":"m 76 521 q 111 729 76 632 q 210 899 145 826 q 368 1014 275 973 q 576 1056 460 1056 q 785 1014 692 1056 q 943 899 878 973 q 1042 729 1008 826 q 1076 521 1076 632 q 1040 313 1076 410 q 938 142 1004 216 q 779 27 871 69 q 576 -14 688 -14 q 368 27 460 -14 q 210 142 275 69 q 111 313 145 216 q 76 521 76 410 m 236 521 q 256 342 236 426 q 316 193 275 258 q 421 92 356 129 q 576 56 486 56 q 738 92 672 56 q 842 193 803 129 q 899 342 882 258 q 917 521 917 426 q 897 700 917 616 q 837 848 878 784 q 732 949 797 913 q 576 986 667 986 q 421 949 486 986 q 316 848 356 913 q 256 700 275 784 q 236 521 236 616 m 824 1153 l 855 1153 q 878 1149 875 1153 q 875 1132 881 1145 l 377 -117 q 364 -135 372 -131 q 334 -139 356 -139 l 312 -139 q 282 -132 286 -139 q 284 -110 278 -126 l 785 1129 q 797 1148 790 1143 q 824 1153 803 1153 "},"Þ":{"ha":958,"x_min":52,"x_max":906,"o":"m 372 315 l 545 315 q 699 377 645 315 q 753 531 753 438 q 699 685 753 624 q 545 746 645 746 l 357 746 q 340 739 344 746 q 337 719 337 733 l 337 346 q 343 320 337 324 q 372 315 350 315 m 337 200 l 337 120 q 343 84 337 92 q 377 76 349 76 l 467 76 q 486 70 483 76 q 490 49 490 65 l 490 33 q 485 6 490 13 q 460 0 481 0 l 90 0 q 60 5 68 0 q 52 32 52 9 l 52 57 q 57 73 52 69 q 74 76 61 76 l 173 76 q 200 83 194 76 q 205 110 205 90 l 205 947 q 200 962 205 959 q 183 965 195 965 l 69 965 q 55 970 57 965 q 52 988 52 976 l 52 1017 q 57 1037 52 1033 q 78 1042 63 1042 l 452 1042 q 482 1037 474 1042 q 490 1010 490 1033 l 490 985 q 485 969 490 972 q 467 965 481 965 l 369 965 q 342 959 347 965 q 337 932 337 952 l 337 849 q 342 827 337 832 q 363 822 347 822 l 545 822 q 820 744 734 822 q 906 531 906 666 q 820 317 906 395 q 545 239 734 239 l 381 239 q 345 234 353 239 q 337 200 337 228 "},"Đ":{"ha":1142,"x_min":52,"x_max":1066,"o":"m 52 24 l 52 50 q 56 72 52 67 q 76 76 60 76 l 183 76 q 202 82 199 76 q 205 104 205 88 l 205 935 q 202 959 205 953 q 181 965 199 965 l 92 965 q 61 969 70 965 q 52 990 52 972 l 52 1022 q 63 1038 52 1035 q 90 1042 74 1042 l 566 1042 q 775 1002 682 1042 q 932 892 867 963 q 1032 727 997 822 q 1066 521 1066 632 q 1030 315 1066 410 q 927 149 994 220 q 769 39 860 78 q 566 0 677 0 l 76 0 q 57 5 61 0 q 52 24 52 9 m 365 76 l 566 76 q 768 135 694 76 q 874 294 842 193 q 906 521 906 394 q 872 748 906 647 q 762 907 837 849 q 566 965 687 965 l 367 965 q 342 960 347 965 q 337 935 337 955 l 337 100 q 342 80 337 83 q 365 76 348 76 m 76 583 l 606 583 q 624 580 620 583 q 627 564 627 576 l 627 530 q 624 512 627 517 q 603 507 620 507 l 75 507 q 56 511 59 507 q 53 528 53 515 l 53 564 q 58 580 53 576 q 76 583 63 583 "},"Ħ":{"ha":1229,"x_min":52,"x_max":1177,"o":"m 99 826 l 1134 826 q 1170 823 1163 826 q 1177 807 1177 819 l 1177 773 q 1170 755 1177 760 q 1131 750 1163 750 l 96 750 q 59 754 65 750 q 53 771 53 758 l 53 807 q 63 823 53 819 q 99 826 73 826 m 337 935 l 337 617 q 343 583 337 590 q 376 576 349 576 l 856 576 q 888 585 883 576 q 892 621 892 593 l 892 929 q 889 958 892 951 q 863 965 885 965 l 749 965 q 730 972 735 965 q 726 992 726 979 l 726 1013 q 731 1036 726 1031 q 753 1042 735 1042 l 1149 1042 q 1172 1038 1166 1042 q 1177 1015 1177 1033 l 1177 989 q 1172 970 1177 974 q 1150 965 1166 965 l 1063 965 q 1032 961 1040 965 q 1024 933 1024 956 l 1024 100 q 1030 81 1024 85 q 1050 76 1035 76 l 1150 76 q 1170 73 1164 76 q 1177 54 1177 69 l 1177 31 q 1170 5 1177 9 q 1142 0 1163 0 l 753 0 q 730 6 735 0 q 726 31 726 11 l 726 51 q 729 71 726 66 q 746 76 732 76 l 863 76 q 888 84 883 76 q 892 111 892 92 l 892 467 q 886 494 892 489 q 858 500 879 500 l 369 500 q 343 495 349 500 q 337 471 337 491 l 337 104 q 341 82 337 88 q 363 76 346 76 l 481 76 q 499 72 494 76 q 503 53 503 68 l 503 35 q 498 6 503 11 q 469 0 492 0 l 80 0 q 57 5 63 0 q 52 28 52 10 l 52 47 q 57 71 52 66 q 81 76 63 76 l 176 76 q 199 80 193 76 q 205 100 205 83 l 205 938 q 199 960 205 955 q 178 965 194 965 l 76 965 q 56 972 59 965 q 52 997 52 979 l 52 1015 q 58 1037 52 1032 q 80 1042 65 1042 l 476 1042 q 497 1038 490 1042 q 503 1019 503 1035 l 503 992 q 499 970 503 975 q 478 965 494 965 l 364 965 q 342 960 347 965 q 337 935 337 954 "},"Ĳ":{"ha":1380,"x_min":63,"x_max":1349,"o":"m 347 940 l 347 107 q 353 83 347 90 q 374 76 358 76 l 499 76 q 511 70 508 76 q 514 54 514 64 l 514 22 q 507 5 514 10 q 486 0 501 0 l 90 0 q 69 5 76 0 q 63 22 63 9 l 63 57 q 69 72 63 68 q 94 76 75 76 l 168 76 q 201 82 186 76 q 215 111 215 88 l 215 942 q 213 960 215 956 q 194 965 210 965 l 86 965 q 68 970 73 965 q 63 986 63 975 l 63 1024 q 67 1040 63 1038 q 83 1042 72 1042 l 489 1042 q 509 1038 505 1042 q 514 1018 514 1034 l 514 994 q 506 971 514 976 q 485 965 498 965 l 374 965 q 352 961 357 965 q 347 940 347 958 m 576 201 q 610 300 576 266 q 686 333 644 333 q 749 311 723 333 q 775 251 775 289 q 766 201 775 217 q 744 176 756 185 q 723 157 733 167 q 714 125 714 147 q 724 99 714 113 q 763 73 734 84 q 849 63 792 63 q 957 90 912 63 q 1026 176 1002 117 q 1050 333 1050 236 l 1050 924 q 1045 957 1050 948 q 1017 965 1041 965 l 887 965 q 860 972 865 965 q 856 1000 856 978 l 856 1014 q 864 1038 856 1034 q 890 1042 872 1042 l 1321 1042 q 1341 1039 1333 1042 q 1349 1022 1349 1036 l 1349 989 q 1345 970 1349 975 q 1328 965 1342 965 l 1213 965 q 1186 959 1191 965 q 1182 929 1182 952 l 1182 375 q 1145 176 1182 264 q 1034 37 1108 88 q 849 -14 960 -14 q 693 20 753 -14 q 605 103 633 53 q 576 201 576 153 "},"Ŀ":{"ha":1010,"x_min":52,"x_max":955,"o":"m 587 660 q 598 702 587 683 q 628 732 610 721 q 670 743 647 743 q 712 732 693 743 q 742 702 731 721 q 753 660 753 683 q 742 618 753 637 q 712 588 731 599 q 670 576 693 576 q 628 588 647 576 q 598 618 610 599 q 587 660 587 637 m 176 965 l 74 965 q 56 970 60 965 q 52 989 52 974 l 52 1022 q 57 1038 52 1035 q 75 1042 62 1042 l 461 1042 q 484 1038 478 1042 q 490 1018 490 1035 l 490 989 q 484 969 490 974 q 465 965 479 965 l 365 965 q 343 960 350 965 q 337 938 337 956 l 337 99 q 344 80 337 83 q 366 76 351 76 l 649 76 q 793 105 742 76 q 864 190 844 133 q 885 335 885 247 q 888 349 885 344 q 900 354 890 354 l 929 354 q 949 351 943 354 q 955 335 955 349 l 955 32 q 951 6 955 13 q 928 0 947 0 l 82 0 q 59 4 66 0 q 52 25 52 8 l 52 54 q 55 72 52 67 q 69 76 58 76 l 172 76 q 199 81 192 76 q 205 104 205 85 l 205 939 q 199 961 205 956 q 176 965 194 965 "},"Ł":{"ha":1010,"x_min":52,"x_max":955,"o":"m 100 511 l 540 791 q 557 802 551 797 q 563 786 563 808 l 563 752 q 560 728 563 734 q 547 716 558 723 l 104 434 q 89 424 94 428 q 83 440 83 419 l 83 483 q 87 502 83 499 q 100 511 91 506 m 176 965 l 74 965 q 56 970 60 965 q 52 989 52 974 l 52 1022 q 57 1038 52 1035 q 75 1042 62 1042 l 461 1042 q 484 1038 478 1042 q 490 1018 490 1035 l 490 989 q 484 969 490 974 q 465 965 479 965 l 365 965 q 343 960 350 965 q 337 938 337 956 l 337 99 q 344 80 337 83 q 366 76 351 76 l 649 76 q 793 105 742 76 q 864 190 844 133 q 885 335 885 247 q 888 349 885 344 q 900 354 890 354 l 929 354 q 949 351 943 354 q 955 335 955 349 l 955 32 q 951 6 955 13 q 928 0 947 0 l 82 0 q 59 4 66 0 q 52 25 52 8 l 52 54 q 55 72 52 67 q 69 76 58 76 l 172 76 q 199 81 192 76 q 205 104 205 85 l 205 939 q 199 961 205 956 q 176 965 194 965 "},"Ŋ":{"ha":1136,"x_min":53,"x_max":1025,"o":"m 189 965 l 67 965 q 56 969 58 965 q 53 983 53 974 l 53 1026 q 56 1038 53 1034 q 66 1042 58 1042 l 316 1042 q 333 1034 328 1042 q 338 1017 338 1027 l 338 853 q 341 828 338 826 q 351 841 344 830 q 399 905 368 869 q 475 976 431 942 q 577 1033 520 1010 q 703 1056 634 1056 q 880 1022 808 1056 q 989 923 952 988 q 1025 763 1025 858 l 1025 15 q 1017 -131 1025 -62 q 986 -251 1009 -199 q 918 -332 963 -303 q 800 -361 874 -361 q 694 -337 738 -361 q 627 -276 651 -314 q 604 -194 604 -237 q 627 -125 604 -155 q 686 -96 650 -96 q 744 -117 722 -96 q 767 -174 767 -139 q 760 -209 767 -198 q 747 -227 753 -219 q 740 -249 740 -235 q 751 -281 740 -262 q 800 -300 762 -300 q 869 -269 847 -300 q 900 -189 892 -239 q 905 -80 907 -140 q 898 38 903 -21 q 893 144 893 97 l 893 747 q 830 916 893 856 q 671 976 766 976 q 547 946 607 976 q 440 867 488 916 q 365 761 393 818 q 338 650 338 703 l 338 105 q 344 83 338 89 q 367 76 351 76 l 480 76 q 499 72 494 76 q 504 53 504 68 l 504 21 q 500 4 504 8 q 485 0 497 0 l 72 0 q 56 5 60 0 q 53 22 53 9 l 53 54 q 59 73 53 69 q 78 76 65 76 l 182 76 q 201 80 196 76 q 206 96 206 83 l 206 953 q 201 963 206 961 q 189 965 197 965 "},"Œ":{"ha":1683,"x_min":76,"x_max":1593,"o":"m 729 1042 l 729 965 l 576 965 q 374 907 449 965 q 268 748 300 849 q 236 521 236 647 q 271 294 236 394 q 381 135 306 193 q 576 76 456 76 l 729 76 l 729 0 l 576 0 q 368 39 460 0 q 210 149 275 78 q 111 315 145 220 q 76 521 76 410 q 113 727 76 632 q 215 892 149 822 q 374 1002 282 963 q 576 1042 465 1042 l 729 1042 m 802 965 l 708 965 q 687 972 691 965 q 683 994 683 978 l 683 1015 q 688 1036 683 1031 q 707 1042 692 1042 l 1542 1042 q 1573 1037 1566 1042 q 1579 1008 1579 1033 l 1579 743 q 1578 721 1579 726 q 1560 715 1578 715 l 1532 715 q 1514 722 1517 715 q 1510 742 1510 728 q 1488 875 1508 826 q 1424 945 1468 924 q 1301 965 1379 965 l 999 965 q 974 960 980 965 q 968 935 968 955 l 968 597 q 972 574 968 582 q 992 567 975 567 l 1086 567 q 1208 605 1169 567 q 1252 704 1247 643 q 1257 722 1253 718 q 1271 726 1260 726 l 1294 726 q 1310 722 1306 726 q 1315 706 1315 717 l 1315 372 q 1312 350 1315 356 q 1293 344 1308 344 l 1270 344 q 1258 348 1264 344 q 1251 368 1253 352 q 1230 441 1248 409 q 1177 492 1212 474 q 1086 511 1142 511 l 994 511 q 972 505 976 511 q 968 481 968 499 l 968 107 q 973 82 968 88 q 999 76 978 76 l 1288 76 q 1430 99 1379 76 q 1501 176 1481 121 q 1524 332 1522 232 q 1527 350 1524 346 q 1540 354 1531 354 l 1567 354 q 1586 351 1580 354 q 1593 333 1593 347 l 1593 24 q 1589 5 1593 9 q 1571 0 1585 0 l 711 0 q 690 4 696 0 q 683 25 683 8 l 683 57 q 689 74 683 71 q 708 76 694 76 l 799 76 q 830 83 824 76 q 836 115 836 90 l 836 936 q 830 961 836 958 q 802 965 824 965 "},"Ŧ":{"ha":1076,"x_min":69,"x_max":1007,"o":"m 274 569 l 803 569 q 821 566 817 569 q 824 550 824 563 l 824 516 q 821 498 824 503 q 801 493 817 493 l 272 493 q 253 497 256 493 q 250 514 250 501 l 250 550 q 255 566 250 562 q 274 569 260 569 m 292 28 l 292 52 q 299 73 292 69 q 321 76 306 76 l 435 76 q 466 83 460 76 q 472 115 472 89 l 472 941 q 467 967 472 961 q 442 972 461 972 l 375 972 q 233 949 284 972 q 162 870 183 926 q 139 716 141 814 q 134 694 138 700 q 113 688 131 688 l 93 688 q 73 698 76 688 q 69 723 69 708 l 69 1005 q 74 1035 69 1029 q 103 1042 79 1042 l 978 1042 q 1002 1036 998 1042 q 1007 1009 1007 1030 l 1007 709 q 1002 691 1007 694 q 981 688 997 688 l 964 688 q 941 695 944 688 q 937 720 938 703 q 914 872 935 817 q 842 949 892 926 q 701 972 792 972 l 631 972 q 608 967 613 972 q 604 942 604 961 l 604 116 q 610 83 604 90 q 642 76 616 76 l 756 76 q 781 70 776 76 q 785 42 785 64 l 785 29 q 774 4 785 8 q 744 0 763 0 l 324 0 q 298 5 303 0 q 292 28 292 9 "},"ẞ":{"ha":1314,"x_min":35,"x_max":1258,"o":"m 635 188 q 659 134 635 157 q 722 97 683 111 q 803 75 760 82 q 884 67 846 67 q 1050 117 988 67 q 1113 264 1113 166 q 1104 345 1113 303 q 1065 426 1096 388 q 969 487 1035 463 q 790 510 903 510 l 790 589 q 1034 560 941 589 q 1176 484 1127 531 q 1241 379 1224 436 q 1258 264 1258 322 q 1232 144 1258 197 q 1158 57 1206 92 q 1048 4 1111 22 q 911 -14 985 -14 q 771 3 838 -14 q 652 49 704 20 q 571 115 601 78 q 542 188 542 151 q 566 259 542 231 q 633 286 591 286 q 692 263 669 286 q 715 201 715 239 q 703 162 715 179 q 675 135 692 144 q 636 125 657 125 q 604 130 620 125 q 574 143 588 135 q 551 164 560 152 q 543 188 543 175 l 635 188 m 35 76 l 424 76 l 424 0 l 35 0 l 35 76 m 928 569 q 902 575 918 572 q 866 580 885 577 q 827 584 847 582 q 790 589 807 586 l 1056 901 q 978 941 1028 924 q 871 968 928 958 q 762 977 813 977 q 549 951 638 977 q 406 877 461 926 q 325 758 351 828 q 299 598 299 688 l 299 0 l 160 0 l 160 613 q 202 800 160 718 q 322 940 243 883 q 511 1026 400 997 q 762 1056 622 1056 q 917 1041 842 1056 q 1054 1004 992 1026 q 1159 959 1116 982 q 1217 918 1201 935 l 928 569 "},"Δ":{"ha":1194,"x_min":110,"x_max":1064,"o":"m 867 76 q 883 84 883 76 q 878 101 882 92 l 589 872 q 578 894 581 893 q 567 876 574 894 l 240 110 q 236 85 233 93 q 262 76 239 76 l 867 76 m 1019 0 l 150 0 q 117 7 124 0 q 116 28 110 13 l 561 1056 q 566 1061 563 1060 q 576 1063 569 1063 l 631 1063 q 643 1061 640 1063 q 649 1054 647 1060 l 1057 31 q 1057 7 1064 14 q 1019 0 1051 0 "},"Ω":{"ha":1078,"x_min":95,"x_max":983,"o":"m 870 208 l 949 208 l 949 0 l 644 0 l 644 282 q 778 403 731 319 q 824 625 824 488 q 754 885 824 788 q 539 981 684 981 q 324 885 394 981 q 254 625 254 788 q 301 400 254 488 q 435 276 347 313 l 435 0 l 130 0 l 130 208 l 208 208 q 218 155 208 176 q 249 123 227 133 q 306 113 270 113 l 358 113 l 358 234 q 261 294 308 257 q 176 381 214 331 q 117 492 139 431 q 95 625 95 553 q 150 852 95 756 q 305 1002 205 949 q 539 1056 405 1056 q 773 1002 674 1056 q 928 852 873 949 q 983 625 983 756 q 961 493 983 553 q 902 383 940 432 q 818 298 865 334 q 720 240 771 262 l 720 113 l 773 113 q 830 123 809 113 q 861 155 851 133 q 870 208 870 176 "},"a":{"ha":772,"x_min":69,"x_max":792,"o":"m 69 171 q 110 292 69 236 q 230 381 150 347 q 429 415 310 415 l 497 415 q 512 418 509 415 q 515 433 515 421 l 515 510 q 505 593 515 556 q 464 651 494 630 q 379 672 435 672 q 308 665 342 672 q 252 644 274 657 q 231 618 231 632 q 240 600 231 606 q 260 583 250 594 q 269 546 269 573 q 249 488 269 510 q 193 465 228 465 q 136 483 161 465 q 111 546 111 500 q 137 626 111 591 q 206 686 163 662 q 302 723 249 710 q 407 736 354 736 q 555 705 504 736 q 623 623 605 674 q 640 517 640 573 l 640 99 q 651 68 640 78 q 676 58 662 58 q 708 67 691 58 q 742 103 724 75 q 758 108 749 115 l 783 93 q 788 76 792 88 q 748 26 772 46 q 698 -4 725 6 q 643 -14 672 -14 l 642 -14 q 565 4 590 -14 q 531 46 540 22 q 519 86 522 69 q 514 99 517 99 q 500 85 510 99 q 467 47 489 70 q 401 5 444 23 q 285 -14 358 -14 q 131 35 192 -14 q 69 171 69 83 m 211 192 q 253 93 211 122 q 347 64 295 64 q 467 117 418 64 q 515 265 515 171 l 515 349 q 501 363 515 363 l 429 363 q 301 342 349 363 q 232 283 253 322 q 211 192 211 245 "},"à":{"ha":772,"x_min":69,"x_max":792,"o":"m 414 840 l 250 935 q 224 967 233 946 q 231 1014 216 988 q 258 1037 241 1030 q 292 1041 274 1044 q 323 1025 310 1038 l 458 894 q 458 869 470 881 l 435 844 q 425 836 429 838 q 414 840 422 835 m 69 171 q 110 292 69 236 q 230 381 150 347 q 429 415 310 415 l 497 415 q 512 418 509 415 q 515 433 515 421 l 515 510 q 505 593 515 556 q 464 651 494 630 q 379 672 435 672 q 308 665 342 672 q 252 644 274 657 q 231 618 231 632 q 240 600 231 606 q 260 583 250 594 q 269 546 269 573 q 249 488 269 510 q 193 465 228 465 q 136 483 161 465 q 111 546 111 500 q 137 626 111 591 q 206 686 163 662 q 302 723 249 710 q 407 736 354 736 q 555 705 504 736 q 623 623 605 674 q 640 517 640 573 l 640 99 q 651 68 640 78 q 676 58 662 58 q 708 67 691 58 q 742 103 724 75 q 758 108 749 115 l 783 93 q 788 76 792 88 q 748 26 772 46 q 698 -4 725 6 q 643 -14 672 -14 l 642 -14 q 565 4 590 -14 q 531 46 540 22 q 519 86 522 69 q 514 99 517 99 q 500 85 510 99 q 467 47 489 70 q 401 5 444 23 q 285 -14 358 -14 q 131 35 192 -14 q 69 171 69 83 m 211 192 q 253 93 211 122 q 347 64 295 64 q 467 117 418 64 q 515 265 515 171 l 515 349 q 501 363 515 363 l 429 363 q 301 342 349 363 q 232 283 253 322 q 211 192 211 245 "},"á":{"ha":772,"x_min":69,"x_max":792,"o":"m 359 845 l 335 870 q 335 892 324 882 l 472 1025 q 502 1041 485 1038 q 537 1037 520 1044 q 563 1014 554 1030 q 570 967 578 988 q 544 935 563 946 l 386 843 q 372 837 377 838 q 359 845 367 837 m 69 171 q 110 292 69 236 q 230 381 150 347 q 429 415 310 415 l 497 415 q 512 418 509 415 q 515 433 515 421 l 515 510 q 505 593 515 556 q 464 651 494 630 q 379 672 435 672 q 308 665 342 672 q 252 644 274 657 q 231 618 231 632 q 240 600 231 606 q 260 583 250 594 q 269 546 269 573 q 249 488 269 510 q 193 465 228 465 q 136 483 161 465 q 111 546 111 500 q 137 626 111 591 q 206 686 163 662 q 302 723 249 710 q 407 736 354 736 q 555 705 504 736 q 623 623 605 674 q 640 517 640 573 l 640 99 q 651 68 640 78 q 676 58 662 58 q 708 67 691 58 q 742 103 724 75 q 758 108 749 115 l 783 93 q 788 76 792 88 q 748 26 772 46 q 698 -4 725 6 q 643 -14 672 -14 l 642 -14 q 565 4 590 -14 q 531 46 540 22 q 519 86 522 69 q 514 99 517 99 q 500 85 510 99 q 467 47 489 70 q 401 5 444 23 q 285 -14 358 -14 q 131 35 192 -14 q 69 171 69 83 m 211 192 q 253 93 211 122 q 347 64 295 64 q 467 117 418 64 q 515 265 515 171 l 515 349 q 501 363 515 363 l 429 363 q 301 342 349 363 q 232 283 253 322 q 211 192 211 245 "},"â":{"ha":772,"x_min":69,"x_max":792,"o":"m 219 854 l 203 871 q 196 881 196 878 q 203 892 196 884 l 334 1022 q 349 1032 342 1030 q 371 1034 356 1034 l 430 1034 q 450 1031 444 1034 q 462 1022 456 1028 l 595 889 q 601 882 601 884 q 596 874 601 880 l 573 851 q 563 844 565 844 q 551 851 560 844 l 415 951 q 381 952 397 965 l 244 850 q 219 854 232 841 m 69 171 q 110 292 69 236 q 230 381 150 347 q 429 415 310 415 l 497 415 q 512 418 509 415 q 515 433 515 421 l 515 510 q 505 593 515 556 q 464 651 494 630 q 379 672 435 672 q 308 665 342 672 q 252 644 274 657 q 231 618 231 632 q 240 600 231 606 q 260 583 250 594 q 269 546 269 573 q 249 488 269 510 q 193 465 228 465 q 136 483 161 465 q 111 546 111 500 q 137 626 111 591 q 206 686 163 662 q 302 723 249 710 q 407 736 354 736 q 555 705 504 736 q 623 623 605 674 q 640 517 640 573 l 640 99 q 651 68 640 78 q 676 58 662 58 q 708 67 691 58 q 742 103 724 75 q 758 108 749 115 l 783 93 q 788 76 792 88 q 748 26 772 46 q 698 -4 725 6 q 643 -14 672 -14 l 642 -14 q 565 4 590 -14 q 531 46 540 22 q 519 86 522 69 q 514 99 517 99 q 500 85 510 99 q 467 47 489 70 q 401 5 444 23 q 285 -14 358 -14 q 131 35 192 -14 q 69 171 69 83 m 211 192 q 253 93 211 122 q 347 64 295 64 q 467 117 418 64 q 515 265 515 171 l 515 349 q 501 363 515 363 l 429 363 q 301 342 349 363 q 232 283 253 322 q 211 192 211 245 "},"ã":{"ha":772,"x_min":69,"x_max":792,"o":"m 501 847 q 429 864 458 847 q 378 902 400 881 q 339 938 360 919 q 287 957 318 957 q 230 935 248 957 q 210 871 211 913 q 196 861 209 861 l 174 861 q 160 866 162 861 q 159 882 158 872 q 183 961 163 926 q 236 1017 203 997 q 313 1038 269 1038 q 385 1021 356 1038 q 434 983 414 1005 q 467 947 449 966 q 513 928 485 928 q 590 1008 585 928 q 593 1020 591 1017 q 606 1024 596 1024 l 628 1024 q 640 1020 638 1024 q 642 1008 642 1017 q 625 921 640 957 q 580 866 610 885 q 501 847 549 847 m 69 171 q 110 292 69 236 q 230 381 150 347 q 429 415 310 415 l 497 415 q 512 418 509 415 q 515 433 515 421 l 515 510 q 505 593 515 556 q 464 651 494 630 q 379 672 435 672 q 308 665 342 672 q 252 644 274 657 q 231 618 231 632 q 240 600 231 606 q 260 583 250 594 q 269 546 269 573 q 249 488 269 510 q 193 465 228 465 q 136 483 161 465 q 111 546 111 500 q 137 626 111 591 q 206 686 163 662 q 302 723 249 710 q 407 736 354 736 q 555 705 504 736 q 623 623 605 674 q 640 517 640 573 l 640 99 q 651 68 640 78 q 676 58 662 58 q 708 67 691 58 q 742 103 724 75 q 758 108 749 115 l 783 93 q 788 76 792 88 q 748 26 772 46 q 698 -4 725 6 q 643 -14 672 -14 l 642 -14 q 565 4 590 -14 q 531 46 540 22 q 519 86 522 69 q 514 99 517 99 q 500 85 510 99 q 467 47 489 70 q 401 5 444 23 q 285 -14 358 -14 q 131 35 192 -14 q 69 171 69 83 m 211 192 q 253 93 211 122 q 347 64 295 64 q 467 117 418 64 q 515 265 515 171 l 515 349 q 501 363 515 363 l 429 363 q 301 342 349 363 q 232 283 253 322 q 211 192 211 245 "},"ä":{"ha":772,"x_min":69,"x_max":792,"o":"m 508 854 q 460 874 480 854 q 441 921 441 893 q 460 968 441 949 q 508 988 480 988 q 555 968 535 988 q 574 921 574 949 q 555 874 574 893 q 508 854 535 854 m 285 854 q 238 874 258 854 q 219 921 219 893 q 238 968 219 949 q 285 988 258 988 q 333 968 313 988 q 352 921 352 949 q 333 874 352 893 q 285 854 313 854 m 69 171 q 110 292 69 236 q 230 381 150 347 q 429 415 310 415 l 497 415 q 512 418 509 415 q 515 433 515 421 l 515 510 q 505 593 515 556 q 464 651 494 630 q 379 672 435 672 q 308 665 342 672 q 252 644 274 657 q 231 618 231 632 q 240 600 231 606 q 260 583 250 594 q 269 546 269 573 q 249 488 269 510 q 193 465 228 465 q 136 483 161 465 q 111 546 111 500 q 137 626 111 591 q 206 686 163 662 q 302 723 249 710 q 407 736 354 736 q 555 705 504 736 q 623 623 605 674 q 640 517 640 573 l 640 99 q 651 68 640 78 q 676 58 662 58 q 708 67 691 58 q 742 103 724 75 q 758 108 749 115 l 783 93 q 788 76 792 88 q 748 26 772 46 q 698 -4 725 6 q 643 -14 672 -14 l 642 -14 q 565 4 590 -14 q 531 46 540 22 q 519 86 522 69 q 514 99 517 99 q 500 85 510 99 q 467 47 489 70 q 401 5 444 23 q 285 -14 358 -14 q 131 35 192 -14 q 69 171 69 83 m 211 192 q 253 93 211 122 q 347 64 295 64 q 467 117 418 64 q 515 265 515 171 l 515 349 q 501 363 515 363 l 429 363 q 301 342 349 363 q 232 283 253 322 q 211 192 211 245 "},"å":{"ha":772,"x_min":69,"x_max":792,"o":"m 397 847 q 334 864 363 847 q 289 908 306 880 q 273 972 273 937 q 289 1035 273 1007 q 334 1081 306 1064 q 397 1097 363 1097 q 461 1081 433 1097 q 506 1035 490 1064 q 522 972 522 1007 q 506 908 522 937 q 461 864 489 880 q 397 847 433 847 m 397 899 q 448 918 428 899 q 468 972 468 938 q 448 1025 468 1004 q 397 1047 428 1047 q 347 1025 366 1047 q 327 972 327 1004 q 347 918 327 938 q 397 899 366 899 m 69 171 q 110 292 69 236 q 230 381 150 347 q 429 415 310 415 l 497 415 q 512 418 509 415 q 515 433 515 421 l 515 510 q 505 593 515 556 q 464 651 494 630 q 379 672 435 672 q 308 665 342 672 q 252 644 274 657 q 231 618 231 632 q 240 600 231 606 q 260 583 250 594 q 269 546 269 573 q 249 488 269 510 q 193 465 228 465 q 136 483 161 465 q 111 546 111 500 q 137 626 111 591 q 206 686 163 662 q 302 723 249 710 q 407 736 354 736 q 555 705 504 736 q 623 623 605 674 q 640 517 640 573 l 640 99 q 651 68 640 78 q 676 58 662 58 q 708 67 691 58 q 742 103 724 75 q 758 108 749 115 l 783 93 q 788 76 792 88 q 748 26 772 46 q 698 -4 725 6 q 643 -14 672 -14 l 642 -14 q 565 4 590 -14 q 531 46 540 22 q 519 86 522 69 q 514 99 517 99 q 500 85 510 99 q 467 47 489 70 q 401 5 444 23 q 285 -14 358 -14 q 131 35 192 -14 q 69 171 69 83 m 211 192 q 253 93 211 122 q 347 64 295 64 q 467 117 418 64 q 515 265 515 171 l 515 349 q 501 363 515 363 l 429 363 q 301 342 349 363 q 232 283 253 322 q 211 192 211 245 "},"ā":{"ha":772,"x_min":69,"x_max":792,"o":"m 231 869 l 231 892 q 233 907 231 902 q 244 911 235 911 l 540 911 q 559 907 553 911 q 564 890 564 903 l 564 868 q 562 852 564 857 q 549 847 560 847 l 255 847 q 236 851 242 847 q 231 869 231 855 m 69 171 q 110 292 69 236 q 230 381 150 347 q 429 415 310 415 l 497 415 q 512 418 509 415 q 515 433 515 421 l 515 510 q 505 593 515 556 q 464 651 494 630 q 379 672 435 672 q 308 665 342 672 q 252 644 274 657 q 231 618 231 632 q 240 600 231 606 q 260 583 250 594 q 269 546 269 573 q 249 488 269 510 q 193 465 228 465 q 136 483 161 465 q 111 546 111 500 q 137 626 111 591 q 206 686 163 662 q 302 723 249 710 q 407 736 354 736 q 555 705 504 736 q 623 623 605 674 q 640 517 640 573 l 640 99 q 651 68 640 78 q 676 58 662 58 q 708 67 691 58 q 742 103 724 75 q 758 108 749 115 l 783 93 q 788 76 792 88 q 748 26 772 46 q 698 -4 725 6 q 643 -14 672 -14 l 642 -14 q 565 4 590 -14 q 531 46 540 22 q 519 86 522 69 q 514 99 517 99 q 500 85 510 99 q 467 47 489 70 q 401 5 444 23 q 285 -14 358 -14 q 131 35 192 -14 q 69 171 69 83 m 211 192 q 253 93 211 122 q 347 64 295 64 q 467 117 418 64 q 515 265 515 171 l 515 349 q 501 363 515 363 l 429 363 q 301 342 349 363 q 232 283 253 322 q 211 192 211 245 "},"ă":{"ha":772,"x_min":69,"x_max":792,"o":"m 397 847 q 274 893 308 847 q 239 1013 240 938 q 255 1026 239 1026 l 268 1026 q 281 1015 280 1026 q 315 946 284 969 q 397 924 347 924 q 477 944 445 924 q 515 1006 508 964 q 516 1021 516 1016 q 528 1026 516 1026 l 544 1026 q 557 1023 555 1026 q 558 1010 558 1020 q 520 892 555 937 q 397 847 485 847 m 69 171 q 110 292 69 236 q 230 381 150 347 q 429 415 310 415 l 497 415 q 512 418 509 415 q 515 433 515 421 l 515 510 q 505 593 515 556 q 464 651 494 630 q 379 672 435 672 q 308 665 342 672 q 252 644 274 657 q 231 618 231 632 q 240 600 231 606 q 260 583 250 594 q 269 546 269 573 q 249 488 269 510 q 193 465 228 465 q 136 483 161 465 q 111 546 111 500 q 137 626 111 591 q 206 686 163 662 q 302 723 249 710 q 407 736 354 736 q 555 705 504 736 q 623 623 605 674 q 640 517 640 573 l 640 99 q 651 68 640 78 q 676 58 662 58 q 708 67 691 58 q 742 103 724 75 q 758 108 749 115 l 783 93 q 788 76 792 88 q 748 26 772 46 q 698 -4 725 6 q 643 -14 672 -14 l 642 -14 q 565 4 590 -14 q 531 46 540 22 q 519 86 522 69 q 514 99 517 99 q 500 85 510 99 q 467 47 489 70 q 401 5 444 23 q 285 -14 358 -14 q 131 35 192 -14 q 69 171 69 83 m 211 192 q 253 93 211 122 q 347 64 295 64 q 467 117 418 64 q 515 265 515 171 l 515 349 q 501 363 515 363 l 429 363 q 301 342 349 363 q 232 283 253 322 q 211 192 211 245 "},"ą":{"ha":772,"x_min":69,"x_max":828,"o":"m 672 -284 q 568 -261 613 -284 q 522 -178 522 -238 q 539 -121 522 -149 q 583 -67 556 -93 q 641 -19 610 -42 q 699 23 672 4 q 720 33 711 31 q 733 30 728 35 q 733 17 738 24 q 720 -1 728 9 q 688 -41 704 -19 q 662 -90 672 -64 q 651 -144 651 -115 q 666 -193 651 -170 q 717 -217 681 -217 q 761 -204 743 -217 q 791 -174 780 -191 q 811 -169 800 -160 l 821 -176 q 828 -185 828 -181 q 824 -196 828 -188 q 768 -259 803 -234 q 672 -284 733 -284 m 69 171 q 110 292 69 236 q 230 381 150 347 q 429 415 310 415 l 497 415 q 512 418 509 415 q 515 433 515 421 l 515 510 q 505 593 515 556 q 464 651 494 630 q 379 672 435 672 q 308 665 342 672 q 252 644 274 657 q 231 618 231 632 q 240 600 231 606 q 260 583 250 594 q 269 546 269 573 q 249 488 269 510 q 193 465 228 465 q 136 483 161 465 q 111 546 111 500 q 137 626 111 591 q 206 686 163 662 q 302 723 249 710 q 407 736 354 736 q 555 705 504 736 q 623 623 605 674 q 640 517 640 573 l 640 99 q 651 68 640 78 q 676 58 662 58 q 708 67 691 58 q 742 103 724 75 q 758 108 749 115 l 783 93 q 788 76 792 88 q 748 26 772 46 q 698 -4 725 6 q 643 -14 672 -14 l 642 -14 q 565 4 590 -14 q 531 46 540 22 q 519 86 522 69 q 514 99 517 99 q 500 85 510 99 q 467 47 489 70 q 401 5 444 23 q 285 -14 358 -14 q 131 35 192 -14 q 69 171 69 83 m 211 192 q 253 93 211 122 q 347 64 295 64 q 467 117 418 64 q 515 265 515 171 l 515 349 q 501 363 515 363 l 429 363 q 301 342 349 363 q 232 283 253 322 q 211 192 211 245 "},"b":{"ha":890,"x_min":35,"x_max":824,"o":"m 285 361 q 310 213 285 282 q 381 101 335 144 q 490 58 427 58 q 592 101 549 58 q 660 213 636 144 q 685 361 685 282 q 660 509 685 440 q 592 621 636 578 q 490 664 549 664 q 381 621 427 664 q 310 509 335 578 q 285 361 285 440 m 47 1007 q 37 1010 40 1007 q 35 1021 35 1014 l 35 1073 q 36 1081 35 1078 q 42 1083 38 1083 l 274 1083 q 282 1082 279 1083 q 285 1074 285 1080 l 285 602 q 286 584 285 587 q 292 590 288 582 q 383 697 326 658 q 515 735 440 735 q 668 691 598 735 q 781 563 738 647 q 824 361 824 479 q 781 159 824 243 q 668 31 738 75 q 515 -14 598 -14 q 386 22 442 -14 q 296 123 331 58 q 287 133 289 135 q 285 106 285 131 l 285 25 q 282 7 285 15 q 267 0 278 0 l 48 0 q 37 2 40 0 q 35 12 35 3 l 35 65 q 38 74 35 72 q 48 76 41 76 l 148 76 q 158 79 156 76 q 160 89 160 81 l 160 993 q 149 1007 160 1007 l 47 1007 "},"c":{"ha":754,"x_min":63,"x_max":705,"o":"m 63 361 q 85 507 63 440 q 152 627 108 575 q 260 707 196 678 q 408 736 324 736 q 554 708 493 736 q 648 633 615 680 q 681 529 681 586 q 651 458 681 479 q 592 438 622 438 q 538 459 564 438 q 513 518 513 480 q 524 557 513 543 q 546 581 535 570 q 557 607 557 591 q 518 653 557 635 q 422 671 478 671 q 298 626 347 671 q 226 511 249 582 q 203 361 203 440 q 223 212 203 282 q 288 98 242 142 q 408 54 333 54 q 545 102 491 54 q 626 227 599 149 q 633 237 629 234 q 646 240 636 240 l 689 240 q 702 238 700 240 q 702 228 705 235 q 642 102 680 157 q 545 17 603 48 q 406 -14 488 -14 q 211 36 287 -14 q 99 172 135 87 q 63 361 63 257 "},"ç":{"ha":754,"x_min":63,"x_max":705,"o":"m 277 -344 l 277 -332 q 283 -317 277 -320 q 299 -313 288 -314 q 377 -294 341 -310 q 413 -244 413 -278 q 396 -201 413 -216 q 350 -179 378 -185 q 291 -169 322 -172 q 268 -163 271 -167 q 272 -149 265 -158 l 377 -9 q 383 -3 381 -4 q 393 -2 385 -2 l 428 -2 q 442 -5 444 -2 q 434 -16 440 -8 l 372 -98 q 365 -111 363 -110 q 385 -115 367 -113 q 477 -143 442 -119 q 512 -226 512 -167 q 493 -289 512 -263 q 444 -331 475 -315 q 374 -355 413 -347 q 294 -364 335 -362 q 277 -344 277 -365 m 63 361 q 85 507 63 440 q 152 627 108 575 q 260 707 196 678 q 408 736 324 736 q 554 708 493 736 q 648 633 615 680 q 681 529 681 586 q 651 458 681 479 q 592 438 622 438 q 538 459 564 438 q 513 518 513 480 q 524 557 513 543 q 546 581 535 570 q 557 607 557 591 q 518 653 557 635 q 422 671 478 671 q 298 626 347 671 q 226 511 249 582 q 203 361 203 440 q 223 212 203 282 q 288 98 242 142 q 408 54 333 54 q 545 102 491 54 q 626 227 599 149 q 633 237 629 234 q 646 240 636 240 l 689 240 q 702 238 700 240 q 702 228 705 235 q 642 102 680 157 q 545 17 603 48 q 406 -14 488 -14 q 211 36 287 -14 q 99 172 135 87 q 63 361 63 257 "},"ć":{"ha":754,"x_min":63,"x_max":705,"o":"m 372 845 l 349 870 q 349 892 338 882 l 485 1025 q 516 1041 498 1038 q 550 1037 533 1044 q 576 1014 567 1030 q 584 967 592 988 q 558 935 576 946 l 399 843 q 385 837 390 838 q 372 845 380 837 m 63 361 q 85 507 63 440 q 152 627 108 575 q 260 707 196 678 q 408 736 324 736 q 554 708 493 736 q 648 633 615 680 q 681 529 681 586 q 651 458 681 479 q 592 438 622 438 q 538 459 564 438 q 513 518 513 480 q 524 557 513 543 q 546 581 535 570 q 557 607 557 591 q 518 653 557 635 q 422 671 478 671 q 298 626 347 671 q 226 511 249 582 q 203 361 203 440 q 223 212 203 282 q 288 98 242 142 q 408 54 333 54 q 545 102 491 54 q 626 227 599 149 q 633 237 629 234 q 646 240 636 240 l 689 240 q 702 238 700 240 q 702 228 705 235 q 642 102 680 157 q 545 17 603 48 q 406 -14 488 -14 q 211 36 287 -14 q 99 172 135 87 q 63 361 63 257 "},"ĉ":{"ha":754,"x_min":63,"x_max":705,"o":"m 232 854 l 217 871 q 209 881 209 878 q 217 892 209 884 l 347 1022 q 362 1032 355 1030 q 384 1034 369 1034 l 443 1034 q 463 1031 457 1034 q 475 1022 469 1028 l 608 889 q 614 882 614 884 q 609 874 615 880 l 586 851 q 576 844 578 844 q 564 851 573 844 l 428 951 q 394 952 410 965 l 257 850 q 232 854 245 841 m 63 361 q 85 507 63 440 q 152 627 108 575 q 260 707 196 678 q 408 736 324 736 q 554 708 493 736 q 648 633 615 680 q 681 529 681 586 q 651 458 681 479 q 592 438 622 438 q 538 459 564 438 q 513 518 513 480 q 524 557 513 543 q 546 581 535 570 q 557 607 557 591 q 518 653 557 635 q 422 671 478 671 q 298 626 347 671 q 226 511 249 582 q 203 361 203 440 q 223 212 203 282 q 288 98 242 142 q 408 54 333 54 q 545 102 491 54 q 626 227 599 149 q 633 237 629 234 q 646 240 636 240 l 689 240 q 702 238 700 240 q 702 228 705 235 q 642 102 680 157 q 545 17 603 48 q 406 -14 488 -14 q 211 36 287 -14 q 99 172 135 87 q 63 361 63 257 "},"ċ":{"ha":754,"x_min":63,"x_max":705,"o":"m 413 881 q 355 906 379 881 q 330 965 330 931 q 355 1024 330 1000 q 413 1049 379 1049 q 472 1024 448 1049 q 497 965 497 1000 q 472 906 497 931 q 413 881 448 881 m 63 361 q 85 507 63 440 q 152 627 108 575 q 260 707 196 678 q 408 736 324 736 q 554 708 493 736 q 648 633 615 680 q 681 529 681 586 q 651 458 681 479 q 592 438 622 438 q 538 459 564 438 q 513 518 513 480 q 524 557 513 543 q 546 581 535 570 q 557 607 557 591 q 518 653 557 635 q 422 671 478 671 q 298 626 347 671 q 226 511 249 582 q 203 361 203 440 q 223 212 203 282 q 288 98 242 142 q 408 54 333 54 q 545 102 491 54 q 626 227 599 149 q 633 237 629 234 q 646 240 636 240 l 689 240 q 702 238 700 240 q 702 228 705 235 q 642 102 680 157 q 545 17 603 48 q 406 -14 488 -14 q 211 36 287 -14 q 99 172 135 87 q 63 361 63 257 "},"č":{"ha":754,"x_min":63,"x_max":705,"o":"m 335 876 l 222 991 q 211 1005 213 1000 q 219 1018 209 1010 l 231 1028 q 248 1035 242 1037 q 265 1026 253 1034 l 373 956 q 410 942 394 942 q 447 956 426 942 l 562 1036 q 578 1042 573 1044 q 592 1030 583 1040 l 599 1024 q 611 1010 609 1015 q 603 994 613 1004 l 480 871 q 467 859 472 863 q 445 854 462 854 l 390 854 q 357 860 368 854 q 335 876 345 866 m 63 361 q 85 507 63 440 q 152 627 108 575 q 260 707 196 678 q 408 736 324 736 q 554 708 493 736 q 648 633 615 680 q 681 529 681 586 q 651 458 681 479 q 592 438 622 438 q 538 459 564 438 q 513 518 513 480 q 524 557 513 543 q 546 581 535 570 q 557 607 557 591 q 518 653 557 635 q 422 671 478 671 q 298 626 347 671 q 226 511 249 582 q 203 361 203 440 q 223 212 203 282 q 288 98 242 142 q 408 54 333 54 q 545 102 491 54 q 626 227 599 149 q 633 237 629 234 q 646 240 636 240 l 689 240 q 702 238 700 240 q 702 228 705 235 q 642 102 680 157 q 545 17 603 48 q 406 -14 488 -14 q 211 36 287 -14 q 99 172 135 87 q 63 361 63 257 "},"d":{"ha":890,"x_min":69,"x_max":858,"o":"m 208 361 q 233 213 208 282 q 301 101 257 144 q 403 58 344 58 q 512 101 466 58 q 583 213 558 144 q 608 361 608 282 q 583 509 608 440 q 512 621 558 578 q 403 664 466 664 q 301 621 344 664 q 233 509 257 578 q 208 361 208 440 m 69 361 q 112 563 69 479 q 225 691 155 647 q 378 735 295 735 q 506 700 450 735 q 596 601 561 665 q 606 590 603 588 q 608 620 608 592 l 608 988 q 604 1005 608 1002 q 586 1007 600 1007 l 496 1007 q 485 1011 488 1007 q 483 1024 483 1015 l 483 1070 q 488 1081 483 1078 q 499 1083 492 1083 l 706 1083 q 726 1080 719 1083 q 733 1063 733 1076 l 733 99 q 738 80 733 83 q 758 76 742 76 l 836 76 q 854 74 849 76 q 858 58 858 72 l 858 20 q 856 3 858 7 q 840 0 853 0 l 632 0 q 613 5 617 0 q 608 25 608 10 l 608 109 q 604 131 608 127 q 590 120 600 135 q 500 21 550 56 q 378 -14 450 -14 q 225 31 295 -14 q 112 159 155 75 q 69 361 69 243 "},"ď":{"ha":890,"x_min":69,"x_max":1176,"o":"m 986 1001 q 998 1043 986 1024 q 1032 1073 1010 1062 q 1079 1083 1053 1083 q 1148 1049 1120 1083 q 1176 939 1176 1015 q 1165 867 1176 904 q 1131 797 1153 830 q 1075 743 1108 765 q 999 717 1042 722 q 988 718 992 717 q 983 728 983 719 l 983 758 q 988 770 983 767 q 1001 774 993 773 q 1059 800 1033 778 q 1100 854 1085 821 q 1110 927 1115 888 q 1105 933 1110 935 q 1095 928 1101 931 q 1079 921 1087 922 q 1060 919 1071 919 q 1006 943 1026 919 q 986 1001 986 967 m 208 361 q 233 213 208 282 q 301 101 257 144 q 403 58 344 58 q 512 101 466 58 q 583 213 558 144 q 608 361 608 282 q 583 509 608 440 q 512 621 558 578 q 403 664 466 664 q 301 621 344 664 q 233 509 257 578 q 208 361 208 440 m 69 361 q 112 563 69 479 q 225 691 155 647 q 378 735 295 735 q 506 700 450 735 q 596 601 561 665 q 606 590 603 588 q 608 620 608 592 l 608 988 q 604 1005 608 1002 q 586 1007 600 1007 l 496 1007 q 485 1011 488 1007 q 483 1024 483 1015 l 483 1070 q 488 1081 483 1078 q 499 1083 492 1083 l 706 1083 q 726 1080 719 1083 q 733 1063 733 1076 l 733 99 q 738 80 733 83 q 758 76 742 76 l 836 76 q 854 74 849 76 q 858 58 858 72 l 858 20 q 856 3 858 7 q 840 0 853 0 l 632 0 q 613 5 617 0 q 608 25 608 10 l 608 109 q 604 131 608 127 q 590 120 600 135 q 500 21 550 56 q 378 -14 450 -14 q 225 31 295 -14 q 112 159 155 75 q 69 361 69 243 "},"e":{"ha":761,"x_min":63,"x_max":697,"o":"m 63 347 q 99 546 63 458 q 210 685 136 634 q 396 736 284 736 q 514 716 464 736 q 600 659 565 695 q 656 578 635 624 q 688 482 678 533 q 697 383 697 432 q 692 366 697 369 q 672 363 687 363 l 226 363 q 209 358 215 363 q 203 342 203 354 q 223 200 203 266 q 287 94 243 134 q 403 54 331 54 q 540 101 485 54 q 622 224 594 147 q 628 236 625 231 q 641 240 631 240 l 681 240 q 694 237 692 240 q 695 226 697 233 q 637 101 676 155 q 536 17 598 47 q 386 -14 474 -14 q 209 36 281 -14 q 100 168 137 85 q 63 347 63 250 m 225 422 l 539 422 q 556 424 553 422 q 559 433 559 426 q 549 509 559 468 q 519 589 540 551 q 469 651 499 626 q 396 675 438 675 q 290 639 332 675 q 226 549 247 603 q 206 440 206 494 q 209 426 206 429 q 225 422 213 422 "},"è":{"ha":761,"x_min":63,"x_max":697,"o":"m 409 840 l 245 935 q 219 967 228 946 q 226 1014 211 988 q 253 1037 236 1030 q 288 1041 269 1044 q 318 1025 306 1038 l 453 894 q 453 869 465 881 l 430 844 q 420 836 424 838 q 409 840 417 835 m 63 347 q 99 546 63 458 q 210 685 136 634 q 396 736 284 736 q 514 716 464 736 q 600 659 565 695 q 656 578 635 624 q 688 482 678 533 q 697 383 697 432 q 692 366 697 369 q 672 363 687 363 l 226 363 q 209 358 215 363 q 203 342 203 354 q 223 200 203 266 q 287 94 243 134 q 403 54 331 54 q 540 101 485 54 q 622 224 594 147 q 628 236 625 231 q 641 240 631 240 l 681 240 q 694 237 692 240 q 695 226 697 233 q 637 101 676 155 q 536 17 598 47 q 386 -14 474 -14 q 209 36 281 -14 q 100 168 137 85 q 63 347 63 250 m 225 422 l 539 422 q 556 424 553 422 q 559 433 559 426 q 549 509 559 468 q 519 589 540 551 q 469 651 499 626 q 396 675 438 675 q 290 639 332 675 q 226 549 247 603 q 206 440 206 494 q 209 426 206 429 q 225 422 213 422 "},"é":{"ha":761,"x_min":63,"x_max":697,"o":"m 354 845 l 331 870 q 331 892 319 882 l 467 1025 q 498 1041 480 1038 q 532 1037 515 1044 q 558 1014 549 1030 q 566 967 574 988 q 540 935 558 946 l 381 843 q 367 837 372 838 q 354 845 362 837 m 63 347 q 99 546 63 458 q 210 685 136 634 q 396 736 284 736 q 514 716 464 736 q 600 659 565 695 q 656 578 635 624 q 688 482 678 533 q 697 383 697 432 q 692 366 697 369 q 672 363 687 363 l 226 363 q 209 358 215 363 q 203 342 203 354 q 223 200 203 266 q 287 94 243 134 q 403 54 331 54 q 540 101 485 54 q 622 224 594 147 q 628 236 625 231 q 641 240 631 240 l 681 240 q 694 237 692 240 q 695 226 697 233 q 637 101 676 155 q 536 17 598 47 q 386 -14 474 -14 q 209 36 281 -14 q 100 168 137 85 q 63 347 63 250 m 225 422 l 539 422 q 556 424 553 422 q 559 433 559 426 q 549 509 559 468 q 519 589 540 551 q 469 651 499 626 q 396 675 438 675 q 290 639 332 675 q 226 549 247 603 q 206 440 206 494 q 209 426 206 429 q 225 422 213 422 "},"ê":{"ha":761,"x_min":63,"x_max":697,"o":"m 214 854 l 199 871 q 191 881 191 878 q 199 892 191 884 l 329 1022 q 344 1032 337 1030 q 366 1034 351 1034 l 425 1034 q 445 1031 439 1034 q 457 1022 451 1028 l 590 889 q 596 882 596 884 q 591 874 597 880 l 568 851 q 558 844 560 844 q 546 851 555 844 l 410 951 q 376 952 392 965 l 239 850 q 214 854 227 841 m 63 347 q 99 546 63 458 q 210 685 136 634 q 396 736 284 736 q 514 716 464 736 q 600 659 565 695 q 656 578 635 624 q 688 482 678 533 q 697 383 697 432 q 692 366 697 369 q 672 363 687 363 l 226 363 q 209 358 215 363 q 203 342 203 354 q 223 200 203 266 q 287 94 243 134 q 403 54 331 54 q 540 101 485 54 q 622 224 594 147 q 628 236 625 231 q 641 240 631 240 l 681 240 q 694 237 692 240 q 695 226 697 233 q 637 101 676 155 q 536 17 598 47 q 386 -14 474 -14 q 209 36 281 -14 q 100 168 137 85 q 63 347 63 250 m 225 422 l 539 422 q 556 424 553 422 q 559 433 559 426 q 549 509 559 468 q 519 589 540 551 q 469 651 499 626 q 396 675 438 675 q 290 639 332 675 q 226 549 247 603 q 206 440 206 494 q 209 426 206 429 q 225 422 213 422 "},"ë":{"ha":761,"x_min":63,"x_max":697,"o":"m 503 854 q 456 874 475 854 q 436 921 436 893 q 456 968 436 949 q 503 988 475 988 q 550 968 531 988 q 569 921 569 949 q 550 874 569 893 q 503 854 531 854 m 281 854 q 233 874 253 854 q 214 921 214 893 q 233 968 214 949 q 281 988 253 988 q 328 968 308 988 q 347 921 347 949 q 328 874 347 893 q 281 854 308 854 m 63 347 q 99 546 63 458 q 210 685 136 634 q 396 736 284 736 q 514 716 464 736 q 600 659 565 695 q 656 578 635 624 q 688 482 678 533 q 697 383 697 432 q 692 366 697 369 q 672 363 687 363 l 226 363 q 209 358 215 363 q 203 342 203 354 q 223 200 203 266 q 287 94 243 134 q 403 54 331 54 q 540 101 485 54 q 622 224 594 147 q 628 236 625 231 q 641 240 631 240 l 681 240 q 694 237 692 240 q 695 226 697 233 q 637 101 676 155 q 536 17 598 47 q 386 -14 474 -14 q 209 36 281 -14 q 100 168 137 85 q 63 347 63 250 m 225 422 l 539 422 q 556 424 553 422 q 559 433 559 426 q 549 509 559 468 q 519 589 540 551 q 469 651 499 626 q 396 675 438 675 q 290 639 332 675 q 226 549 247 603 q 206 440 206 494 q 209 426 206 429 q 225 422 213 422 "},"ē":{"ha":761,"x_min":63,"x_max":697,"o":"m 226 869 l 226 892 q 228 907 226 902 q 240 911 231 911 l 535 911 q 554 907 549 911 q 559 890 559 903 l 559 868 q 557 852 559 857 q 544 847 555 847 l 250 847 q 231 851 237 847 q 226 869 226 855 m 63 347 q 99 546 63 458 q 210 685 136 634 q 396 736 284 736 q 514 716 464 736 q 600 659 565 695 q 656 578 635 624 q 688 482 678 533 q 697 383 697 432 q 692 366 697 369 q 672 363 687 363 l 226 363 q 209 358 215 363 q 203 342 203 354 q 223 200 203 266 q 287 94 243 134 q 403 54 331 54 q 540 101 485 54 q 622 224 594 147 q 628 236 625 231 q 641 240 631 240 l 681 240 q 694 237 692 240 q 695 226 697 233 q 637 101 676 155 q 536 17 598 47 q 386 -14 474 -14 q 209 36 281 -14 q 100 168 137 85 q 63 347 63 250 m 225 422 l 539 422 q 556 424 553 422 q 559 433 559 426 q 549 509 559 468 q 519 589 540 551 q 469 651 499 626 q 396 675 438 675 q 290 639 332 675 q 226 549 247 603 q 206 440 206 494 q 209 426 206 429 q 225 422 213 422 "},"ĕ":{"ha":761,"x_min":63,"x_max":697,"o":"m 392 847 q 269 893 303 847 q 234 1013 235 938 q 250 1026 234 1026 l 263 1026 q 276 1015 275 1026 q 310 946 279 969 q 392 924 342 924 q 472 944 440 924 q 510 1006 503 964 q 511 1021 511 1016 q 524 1026 511 1026 l 539 1026 q 552 1023 550 1026 q 553 1010 553 1020 q 515 892 550 937 q 392 847 481 847 m 63 347 q 99 546 63 458 q 210 685 136 634 q 396 736 284 736 q 514 716 464 736 q 600 659 565 695 q 656 578 635 624 q 688 482 678 533 q 697 383 697 432 q 692 366 697 369 q 672 363 687 363 l 226 363 q 209 358 215 363 q 203 342 203 354 q 223 200 203 266 q 287 94 243 134 q 403 54 331 54 q 540 101 485 54 q 622 224 594 147 q 628 236 625 231 q 641 240 631 240 l 681 240 q 694 237 692 240 q 695 226 697 233 q 637 101 676 155 q 536 17 598 47 q 386 -14 474 -14 q 209 36 281 -14 q 100 168 137 85 q 63 347 63 250 m 225 422 l 539 422 q 556 424 553 422 q 559 433 559 426 q 549 509 559 468 q 519 589 540 551 q 469 651 499 626 q 396 675 438 675 q 290 639 332 675 q 226 549 247 603 q 206 440 206 494 q 209 426 206 429 q 225 422 213 422 "},"ė":{"ha":761,"x_min":63,"x_max":697,"o":"m 395 881 q 336 906 361 881 q 312 965 312 931 q 336 1024 312 1000 q 395 1049 361 1049 q 454 1024 430 1049 q 478 965 478 1000 q 454 906 478 931 q 395 881 430 881 m 63 347 q 99 546 63 458 q 210 685 136 634 q 396 736 284 736 q 514 716 464 736 q 600 659 565 695 q 656 578 635 624 q 688 482 678 533 q 697 383 697 432 q 692 366 697 369 q 672 363 687 363 l 226 363 q 209 358 215 363 q 203 342 203 354 q 223 200 203 266 q 287 94 243 134 q 403 54 331 54 q 540 101 485 54 q 622 224 594 147 q 628 236 625 231 q 641 240 631 240 l 681 240 q 694 237 692 240 q 695 226 697 233 q 637 101 676 155 q 536 17 598 47 q 386 -14 474 -14 q 209 36 281 -14 q 100 168 137 85 q 63 347 63 250 m 225 422 l 539 422 q 556 424 553 422 q 559 433 559 426 q 549 509 559 468 q 519 589 540 551 q 469 651 499 626 q 396 675 438 675 q 290 639 332 675 q 226 549 247 603 q 206 440 206 494 q 209 426 206 429 q 225 422 213 422 "},"ę":{"ha":761,"x_min":63,"x_max":712,"o":"m 556 -220 q 452 -197 497 -220 q 406 -115 406 -174 q 423 -57 406 -85 q 467 -3 440 -29 q 525 45 494 22 q 583 87 556 68 q 604 97 595 94 q 617 94 613 99 q 617 81 622 88 q 604 63 613 73 q 572 23 588 45 q 546 -26 556 0 q 535 -80 535 -51 q 550 -130 535 -106 q 601 -153 565 -153 q 645 -140 627 -153 q 675 -110 664 -127 q 695 -106 684 -97 l 705 -112 q 712 -121 712 -117 q 708 -132 712 -124 q 652 -195 687 -170 q 556 -220 617 -220 m 63 347 q 99 546 63 458 q 210 685 136 634 q 396 736 284 736 q 514 716 464 736 q 600 659 565 695 q 656 578 635 624 q 688 482 678 533 q 697 383 697 432 q 692 366 697 369 q 672 363 687 363 l 226 363 q 209 358 215 363 q 203 342 203 354 q 223 200 203 266 q 287 94 243 134 q 403 54 331 54 q 540 101 485 54 q 622 224 594 147 q 628 236 625 231 q 641 240 631 240 l 681 240 q 694 237 692 240 q 695 226 697 233 q 637 101 676 155 q 536 17 598 47 q 386 -14 474 -14 q 209 36 281 -14 q 100 168 137 85 q 63 347 63 250 m 225 422 l 539 422 q 556 424 553 422 q 559 433 559 426 q 549 509 559 468 q 519 589 540 551 q 469 651 499 626 q 396 675 438 675 q 290 639 332 675 q 226 549 247 603 q 206 440 206 494 q 209 426 206 429 q 225 422 213 422 "},"ě":{"ha":761,"x_min":63,"x_max":697,"o":"m 317 876 l 203 991 q 193 1005 194 1000 q 201 1018 191 1010 l 213 1028 q 230 1035 224 1037 q 247 1026 235 1034 l 355 956 q 392 942 376 942 q 428 956 408 942 l 544 1036 q 560 1042 555 1044 q 574 1030 565 1040 l 581 1024 q 593 1010 591 1015 q 585 994 594 1004 l 462 871 q 449 859 454 863 q 427 854 444 854 l 372 854 q 339 860 350 854 q 317 876 327 866 m 63 347 q 99 546 63 458 q 210 685 136 634 q 396 736 284 736 q 514 716 464 736 q 600 659 565 695 q 656 578 635 624 q 688 482 678 533 q 697 383 697 432 q 692 366 697 369 q 672 363 687 363 l 226 363 q 209 358 215 363 q 203 342 203 354 q 223 200 203 266 q 287 94 243 134 q 403 54 331 54 q 540 101 485 54 q 622 224 594 147 q 628 236 625 231 q 641 240 631 240 l 681 240 q 694 237 692 240 q 695 226 697 233 q 637 101 676 155 q 536 17 598 47 q 386 -14 474 -14 q 209 36 281 -14 q 100 168 137 85 q 63 347 63 250 m 225 422 l 539 422 q 556 424 553 422 q 559 433 559 426 q 549 509 559 468 q 519 589 540 551 q 469 651 499 626 q 396 675 438 675 q 290 639 332 675 q 226 549 247 603 q 206 440 206 494 q 209 426 206 429 q 225 422 213 422 "},"f":{"ha":543,"x_min":29,"x_max":661,"o":"m 279 625 l 279 101 q 282 81 279 85 q 302 76 285 76 l 419 76 q 437 74 428 76 q 446 61 446 72 l 446 21 q 441 4 446 8 q 424 0 436 0 l 45 0 q 32 3 34 0 q 29 18 29 7 l 29 61 q 34 74 29 72 q 49 76 40 76 l 139 76 q 152 81 150 76 q 154 95 154 85 l 154 622 q 152 641 154 635 q 136 646 149 646 l 47 646 q 33 649 36 646 q 29 663 29 651 l 29 706 q 33 719 29 717 q 48 722 38 722 l 136 722 q 151 725 149 722 q 154 742 154 728 l 154 794 q 185 953 154 885 q 277 1059 216 1022 q 428 1097 338 1097 q 550 1075 498 1097 q 632 1018 603 1053 q 661 943 661 983 q 639 875 661 899 q 579 851 616 851 q 521 870 543 851 q 499 918 499 889 q 506 951 499 939 q 520 973 513 963 q 528 997 528 983 q 506 1022 528 1010 q 431 1035 485 1035 q 342 1004 375 1035 q 294 913 308 973 q 279 764 279 852 l 279 742 q 282 727 279 731 q 297 722 285 722 l 449 722 q 468 719 463 722 q 474 701 474 717 l 474 666 q 470 649 474 651 q 452 646 467 646 l 297 646 q 282 641 285 646 q 279 625 279 637 "},"g":{"ha":833,"x_min":38,"x_max":833,"o":"m 205 479 q 218 382 205 428 q 263 307 231 335 q 349 278 294 278 q 436 307 404 278 q 481 382 467 335 q 494 479 494 428 q 481 577 494 531 q 436 652 467 623 q 349 681 404 681 q 263 652 294 681 q 218 577 231 623 q 205 479 205 531 m 73 479 q 107 614 73 556 q 203 704 141 672 q 349 736 265 736 q 461 718 411 736 q 547 668 511 701 q 555 663 553 663 q 563 670 557 664 q 628 720 593 705 q 688 736 663 736 q 769 719 738 736 q 817 674 801 703 q 833 610 833 646 q 811 554 833 574 q 759 533 790 533 q 711 551 730 533 q 692 594 692 569 q 699 627 692 617 q 712 645 706 638 q 719 664 719 653 q 692 685 719 685 q 643 673 668 685 q 596 629 617 660 q 591 620 592 624 q 593 611 590 617 q 626 479 626 552 q 592 345 626 403 q 495 255 558 287 q 349 222 433 222 q 322 223 335 222 q 296 226 309 224 q 275 228 283 228 q 257 222 267 227 q 201 188 225 208 q 177 147 177 167 q 216 102 177 109 q 312 96 255 96 q 345 96 325 96 q 387 97 365 97 q 431 97 410 97 q 466 97 451 97 q 562 90 515 97 q 645 63 608 83 q 704 -1 682 42 q 726 -114 726 -43 q 682 -246 726 -191 q 557 -331 638 -301 q 365 -361 476 -361 q 127 -318 216 -361 q 38 -187 38 -276 q 74 -77 38 -124 q 152 -7 110 -31 q 164 2 166 1 q 148 9 162 3 q 100 48 118 22 q 83 117 83 73 q 111 189 83 156 q 188 243 139 222 q 204 253 206 251 q 186 264 201 255 q 102 352 132 297 q 73 479 73 408 m 627 -149 q 592 -52 627 -92 q 490 -12 558 -12 q 443 -12 475 -12 q 379 -12 411 -12 q 331 -12 347 -12 q 280 -12 306 -12 q 231 -10 255 -12 q 219 -10 222 -8 q 212 -16 216 -11 q 176 -83 181 -48 q 170 -142 170 -119 q 223 -254 170 -212 q 387 -296 276 -296 q 500 -280 445 -296 q 591 -231 556 -264 q 627 -149 627 -199 "},"ĝ":{"ha":833,"x_min":38,"x_max":833,"o":"m 260 854 l 245 871 q 238 881 238 878 q 245 892 238 884 l 376 1022 q 390 1032 383 1030 q 413 1034 397 1034 l 472 1034 q 491 1031 485 1034 q 503 1022 497 1028 l 637 889 q 643 882 642 884 q 638 874 643 880 l 615 851 q 604 844 607 844 q 592 851 601 844 l 457 951 q 422 952 439 965 l 285 850 q 260 854 274 841 m 205 479 q 218 382 205 428 q 263 307 231 335 q 349 278 294 278 q 436 307 404 278 q 481 382 467 335 q 494 479 494 428 q 481 577 494 531 q 436 652 467 623 q 349 681 404 681 q 263 652 294 681 q 218 577 231 623 q 205 479 205 531 m 73 479 q 107 614 73 556 q 203 704 141 672 q 349 736 265 736 q 461 718 411 736 q 547 668 511 701 q 555 663 553 663 q 563 670 557 664 q 628 720 593 705 q 688 736 663 736 q 769 719 738 736 q 817 674 801 703 q 833 610 833 646 q 811 554 833 574 q 759 533 790 533 q 711 551 730 533 q 692 594 692 569 q 699 627 692 617 q 712 645 706 638 q 719 664 719 653 q 692 685 719 685 q 643 673 668 685 q 596 629 617 660 q 591 620 592 624 q 593 611 590 617 q 626 479 626 552 q 592 345 626 403 q 495 255 558 287 q 349 222 433 222 q 322 223 335 222 q 296 226 309 224 q 275 228 283 228 q 257 222 267 227 q 201 188 225 208 q 177 147 177 167 q 216 102 177 109 q 312 96 255 96 q 345 96 325 96 q 387 97 365 97 q 431 97 410 97 q 466 97 451 97 q 562 90 515 97 q 645 63 608 83 q 704 -1 682 42 q 726 -114 726 -43 q 682 -246 726 -191 q 557 -331 638 -301 q 365 -361 476 -361 q 127 -318 216 -361 q 38 -187 38 -276 q 74 -77 38 -124 q 152 -7 110 -31 q 164 2 166 1 q 148 9 162 3 q 100 48 118 22 q 83 117 83 73 q 111 189 83 156 q 188 243 139 222 q 204 253 206 251 q 186 264 201 255 q 102 352 132 297 q 73 479 73 408 m 627 -149 q 592 -52 627 -92 q 490 -12 558 -12 q 443 -12 475 -12 q 379 -12 411 -12 q 331 -12 347 -12 q 280 -12 306 -12 q 231 -10 255 -12 q 219 -10 222 -8 q 212 -16 216 -11 q 176 -83 181 -48 q 170 -142 170 -119 q 223 -254 170 -212 q 387 -296 276 -296 q 500 -280 445 -296 q 591 -231 556 -264 q 627 -149 627 -199 "}}}
